CommissionerLoud-SemiBold.ufo
<glyph name="numbersign" format="2">
  <advance width="693.6315789473684"/>
  <unicode hex="0023"/>
  <outline>
    <contour>
      <point x="14.736842105263158" y="132.68421052631578" type="line"/>
      <point x="81.6842105263158" y="134.73684210526318"/>
      <point x="153.42105263157896" y="136.78947368421052"/>
      <point x="200.0" y="137.8421052631579" type="curve"/>
      <point x="441.57894736842104" y="137.8421052631579" type="line"/>
      <point x="488.1578947368421" y="136.78947368421052"/>
      <point x="559.8947368421052" y="134.73684210526318"/>
      <point x="626.8421052631579" y="132.68421052631578" type="curve"/>
      <point x="626.8421052631579" y="240.47368421052633" type="line"/>
      <point x="559.8947368421052" y="238.42105263157893"/>
      <point x="488.1578947368421" y="236.3684210526316"/>
      <point x="441.57894736842104" y="235.31578947368422" type="curve"/>
      <point x="200.0" y="235.31578947368422" type="line"/>
      <point x="153.42105263157896" y="236.3684210526316"/>
      <point x="81.6842105263158" y="238.42105263157893"/>
      <point x="14.736842105263158" y="240.47368421052633" type="curve"/>
    </contour>
    <contour>
      <point x="100.63157894736842" y="0.0" type="curve"/>
      <point x="219.31578947368422" y="0.0" type="line"/>
      <point x="229.1052631578947" y="68.05263157894737"/>
      <point x="237.94736842105263" y="129.73684210526315"/>
      <point x="250.21052631578948" y="214.26315789473685" type="curve"/>
      <point x="292.89473684210526" y="442.94736842105266" type="line"/>
      <point x="312.4210526315789" y="532.0526315789473"/>
      <point x="325.89473684210526" y="590.5263157894736"/>
      <point x="341.89473684210526" y="663.5263157894736" type="curve"/>
      <point x="224.26315789473685" y="663.5263157894736" type="line"/>
      <point x="213.94736842105266" y="589.3157894736842"/>
      <point x="206.1578947368421" y="532.421052631579"/>
      <point x="192.94736842105263" y="443.89473684210526" type="curve"/>
      <point x="150.26315789473685" y="214.26315789473685" type="line"/>
      <point x="130.21052631578948" y="128.68421052631578"/>
      <point x="115.63157894736841" y="65.94736842105263"/>
    </contour>
    <contour>
      <point x="66.78947368421052" y="420.0526315789474" type="line"/>
      <point x="133.73684210526315" y="422.10526315789474"/>
      <point x="205.47368421052633" y="424.15789473684214"/>
      <point x="252.05263157894737" y="425.2105263157895" type="curve"/>
      <point x="493.63157894736844" y="425.2105263157895" type="line"/>
      <point x="540.2105263157895" y="424.15789473684214"/>
      <point x="611.9473684210526" y="422.10526315789474"/>
      <point x="678.8947368421052" y="420.0526315789474" type="curve"/>
      <point x="678.8947368421052" y="527.8421052631579" type="line"/>
      <point x="611.9473684210526" y="525.7894736842105"/>
      <point x="540.2105263157895" y="523.7368421052632"/>
      <point x="493.63157894736844" y="522.6842105263158" type="curve"/>
      <point x="252.05263157894737" y="522.6842105263158" type="line"/>
      <point x="205.47368421052633" y="523.7368421052632"/>
      <point x="133.73684210526315" y="525.7894736842105"/>
      <point x="66.78947368421052" y="527.8421052631579" type="curve"/>
    </contour>
    <contour>
      <point x="346.42105263157896" y="0.0" type="curve"/>
      <point x="465.1052631578947" y="0.0" type="line"/>
      <point x="474.89473684210526" y="68.05263157894737"/>
      <point x="483.7368421052632" y="129.73684210526315"/>
      <point x="496.0" y="214.26315789473685" type="curve"/>
      <point x="538.6842105263158" y="442.94736842105266" type="line"/>
      <point x="558.2105263157895" y="532.0526315789473"/>
      <point x="571.6842105263157" y="590.5263157894736"/>
      <point x="587.6842105263157" y="663.5263157894736" type="curve"/>
      <point x="470.0526315789474" y="663.5263157894736" type="line"/>
      <point x="459.7368421052631" y="589.3157894736842"/>
      <point x="451.94736842105266" y="532.421052631579"/>
      <point x="438.7368421052632" y="443.89473684210526" type="curve"/>
      <point x="396.05263157894734" y="214.26315789473685" type="line"/>
      <point x="376.0" y="128.68421052631578"/>
      <point x="361.4210526315789" y="65.94736842105263"/>
    </contour>
  </outline>
</glyph>
<glyph name="dollar" format="2">
  <advance width="570.9473684210526"/>
  <unicode hex="0024"/>
  <outline>
    <contour>
      <point x="285.2631578947368" y="-12.157894736842106" type="curve" smooth="yes"/>
      <point x="461.1578947368421" y="-12.157894736842106"/>
      <point x="538.2105263157895" y="70.6842105263158"/>
      <point x="538.2105263157895" y="192.78947368421052" type="curve" smooth="yes"/>
      <point x="538.2105263157895" y="299.7368421052632"/>
      <point x="486.1578947368421" y="348.7894736842105"/>
      <point x="323.7368421052632" y="398.5263157894737" type="curve" smooth="yes"/>
      <point x="215.52631578947367" y="432.4736842105263"/>
      <point x="168.5263157894737" y="448.2631578947368"/>
      <point x="168.5263157894737" y="499.8421052631579" type="curve" smooth="yes"/>
      <point x="168.5263157894737" y="559.8421052631579"/>
      <point x="230.4736842105263" y="584.6315789473684"/>
      <point x="297.8421052631579" y="585.578947368421" type="curve"/>
      <point x="317.2105263157895" y="585.578947368421"/>
      <point x="405.89473684210526" y="559.6315789473683"/>
      <point x="487.63157894736844" y="529.6315789473684" type="curve"/>
      <point x="498.8421052631579" y="653.0" type="line"/>
      <point x="435.63157894736844" y="668.9473684210526"/>
      <point x="326.7894736842105" y="698.1052631578947"/>
      <point x="278.2105263157895" y="698.1052631578947" type="curve" smooth="yes"/>
      <point x="121.05263157894737" y="698.1052631578947"/>
      <point x="44.421052631578945" y="615.3157894736842"/>
      <point x="44.421052631578945" y="499.3157894736842" type="curve" smooth="yes"/>
      <point x="44.421052631578945" y="382.89473684210526"/>
      <point x="116.73684210526315" y="337.1578947368421"/>
      <point x="242.31578947368422" y="299.4736842105263" type="curve" smooth="yes"/>
      <point x="349.0526315789474" y="267.36842105263156"/>
      <point x="414.63157894736844" y="248.6315789473684"/>
      <point x="414.63157894736844" y="191.1578947368421" type="curve" smooth="yes"/>
      <point x="414.63157894736844" y="125.05263157894737"/>
      <point x="359.4736842105263" y="99.21052631578947"/>
      <point x="280.0" y="98.26315789473684" type="curve"/>
      <point x="248.31578947368422" y="98.26315789473684"/>
      <point x="158.10526315789474" y="123.78947368421052"/>
      <point x="65.3157894736842" y="155.73684210526315" type="curve"/>
      <point x="54.526315789473685" y="29.789473684210527" type="line"/>
      <point x="137.73684210526318" y="8.578947368421053"/>
      <point x="237.78947368421052" y="-12.157894736842106"/>
    </contour>
    <contour>
      <point x="235.57894736842104" y="-137.0" type="curve"/>
      <point x="348.52631578947364" y="-137.0" type="line"/>
      <point x="345.42105263157896" y="0.9999999999999992"/>
      <point x="341.7894736842105" y="154.0"/>
      <point x="341.2631578947368" y="192.0" type="curve"/>
      <point x="341.2631578947368" y="474.0" type="line"/>
      <point x="341.7894736842105" y="512.0"/>
      <point x="345.42105263157896" y="665.0"/>
      <point x="348.52631578947364" y="803.0" type="curve"/>
      <point x="235.57894736842104" y="803.0" type="line"/>
      <point x="238.6842105263158" y="665.0"/>
      <point x="242.31578947368422" y="512.0"/>
      <point x="242.8421052631579" y="474.0" type="curve"/>
      <point x="242.8421052631579" y="192.0" type="line"/>
      <point x="242.31578947368422" y="154.0"/>
      <point x="238.6842105263158" y="1.0"/>
    </contour>
  </outline>
</glyph>
<glyph name="ampersand" format="2">
  <advance width="758.3106796116506"/>
  <unicode hex="0026"/>
  <outline>
    <contour>
      <point x="573.2912621359224" y="0.0" type="curve"/>
      <point x="758.3300970873786" y="0.0" type="line"/>
      <point x="690.6893203883494" y="68.01941747572816"/>
      <point x="623.0485436893204" y="136.0388349514563"/>
      <point x="554.5339805825242" y="204.05825242718447" type="curve"/>
      <point x="339.68932038834953" y="429.0485436893204" type="line" smooth="yes"/>
      <point x="290.2135922330097" y="479.90291262135923"/>
      <point x="269.8446601941747" y="515.0097087378641"/>
      <point x="269.8446601941747" y="555.4951456310679" type="curve" smooth="yes"/>
      <point x="269.8446601941747" y="601.4660194174758"/>
      <point x="299.4563106796116" y="630.6990291262136"/>
      <point x="345.04854368932035" y="633.8252427184466" type="curve"/>
      <point x="388.2718446601942" y="630.6990291262136"/>
      <point x="421.62135922330094" y="601.3398058252428"/>
      <point x="421.62135922330094" y="559.6116504854368" type="curve" smooth="yes"/>
      <point x="421.62135922330094" y="532.7572815533982"/>
      <point x="369.2815533980582" y="482.14563106796123"/>
      <point x="318.06796116504853" y="436.7864077669903" type="curve"/>
      <point x="387.4854368932038" y="367.747572815534" type="line"/>
      <point x="464.20388349514565" y="435.9902912621359"/>
      <point x="538.6990291262135" y="502.378640776699"/>
      <point x="538.6990291262135" y="563.6213592233009" type="curve" smooth="yes"/>
      <point x="538.6990291262135" y="668.0"/>
      <point x="451.4466019417476" y="727.252427184466"/>
      <point x="338.41747572815535" y="727.252427184466" type="curve" smooth="yes"/>
      <point x="228.1359223300971" y="727.252427184466"/>
      <point x="139.35922330097088" y="665.5048543689321"/>
      <point x="139.35922330097088" y="553.6116504854369" type="curve" smooth="yes"/>
      <point x="139.35922330097088" y="484.368932038835"/>
      <point x="175.4757281553398" y="429.36893203883494"/>
      <point x="232.2135922330097" y="369.126213592233" type="curve" smooth="yes"/>
      <point x="453.81553398058253" y="136.0" type="line"/>
      <point x="493.9320388349514" y="91.0"/>
      <point x="534.0485436893204" y="44.12621359223301"/>
    </contour>
    <contour>
      <point x="262.2330097087379" y="-11.37864077669903" type="curve" smooth="yes"/>
      <point x="329.6990291262136" y="-11.37864077669903"/>
      <point x="392.2330097087379" y="29.35922330097087"/>
      <point x="485.96116504854365" y="89.58252427184468" type="curve"/>
      <point x="499.3398058252427" y="89.58252427184468" type="line"/>
      <point x="493.97087378640776" y="114.09708737864078" type="line"/>
      <point x="437.3009708737864" y="183.25242718446606" type="line"/>
      <point x="364.4854368932038" y="133.17475728155338"/>
      <point x="304.6407766990291" y="95.58252427184468"/>
      <point x="284.15533980582524" y="95.58252427184468" type="curve"/>
      <point x="211.8155339805825" y="98.58252427184468"/>
      <point x="166.84466019417474" y="140.5631067961165"/>
      <point x="166.84466019417474" y="202.90291262135923" type="curve" smooth="yes"/>
      <point x="166.84466019417474" y="263.8543689320388"/>
      <point x="207.6796116504854" y="309.45631067961165"/>
      <point x="271.88349514563106" y="339.44660194174753" type="curve"/>
      <point x="215.83495145631068" y="417.24271844660194" type="line"/>
      <point x="124.70873786407765" y="377.11650485436894"/>
      <point x="39.22330097087379" y="308.11650485436894"/>
      <point x="39.22330097087379" y="186.873786407767" type="curve" smooth="yes"/>
      <point x="39.22330097087379" y="74.49514563106796"/>
      <point x="113.60194174757281" y="-11.37864077669903"/>
    </contour>
    <contour>
      <point x="570.9320388349514" y="174.6116504854369" type="line"/>
      <point x="622.0679611650485" y="232.98058252427182"/>
      <point x="671.3300970873786" y="289.60194174757277"/>
      <point x="721.5922330097088" y="348.97087378640776" type="curve"/>
      <point x="603.2330097087378" y="425.5436893203883" type="line"/>
      <point x="567.73786407767" y="364.9223300970874"/>
      <point x="533.9902912621359" y="306.9223300970874"/>
      <point x="498.49514563106794" y="245.4271844660194" type="curve"/>
    </contour>
  </outline>
</glyph>
<glyph name="quotesingle" format="2">
  <advance width="219.31578947368422"/>
  <unicode hex="0027"/>
  <outline>
    <contour>
      <point x="53.421052631578945" y="409.6842105263158" type="curve"/>
      <point x="149.94736842105263" y="410.6842105263158" type="line"/>
      <point x="155.73684210526312" y="523.1578947368421"/>
      <point x="164.89473684210523" y="634.578947368421"/>
      <point x="172.99999999999997" y="744.5263157894736" type="curve"/>
      <point x="29.368421052631582" y="741.421052631579" type="line"/>
      <point x="38.47368421052632" y="632.0"/>
      <point x="47.631578947368425" y="521.578947368421"/>
    </contour>
  </outline>
</glyph>
<glyph name="parenleft" format="2">
  <advance width="404.5263157894737"/>
  <unicode hex="0028"/>
  <outline>
    <contour>
      <point x="270.9473684210526" y="-129.3684210526316" type="curve"/>
      <point x="378.6842105263158" y="-89.63157894736842" type="line"/>
      <point x="277.2105263157894" y="41.526315789473685"/>
      <point x="182.0" y="169.26315789473685"/>
      <point x="182.0" y="323.4736842105263" type="curve" smooth="yes"/>
      <point x="182.0" y="478.15789473684214"/>
      <point x="277.2105263157894" y="605.421052631579"/>
      <point x="378.6842105263158" y="736.578947368421" type="curve"/>
      <point x="270.9473684210526" y="776.3157894736842" type="line"/>
      <point x="179.78947368421055" y="659.1052631578947"/>
      <point x="48.94736842105263" y="514.0526315789474"/>
      <point x="48.94736842105263" y="323.4736842105263" type="curve" smooth="yes"/>
      <point x="48.94736842105263" y="133.36842105263156"/>
      <point x="179.78947368421055" y="-12.157894736842099"/>
    </contour>
  </outline>
</glyph>
<glyph name="asterisk" format="2">
  <advance width="486.9473684210526"/>
  <unicode hex="002A"/>
  <outline>
    <contour>
      <point x="416.84210526315786" y="358.6842105263158" type="curve"/>
      <point x="464.2631578947368" y="439.2105263157894" type="line"/>
      <point x="395.5263157894737" y="472.99999999999994"/>
      <point x="325.7894736842105" y="505.7368421052632"/>
      <point x="257.05263157894734" y="539.5263157894736" type="curve"/>
      <point x="194.57894736842104" y="584.6842105263158"/>
      <point x="132.1052631578947" y="630.421052631579"/>
      <point x="70.10526315789474" y="675.1052631578947" type="curve"/>
      <point x="22.684210526315788" y="594.0526315789474" type="line"/>
      <point x="91.42105263157895" y="560.2631578947369"/>
      <point x="160.63157894736844" y="527.5263157894738"/>
      <point x="230.3684210526316" y="493.2631578947369" type="curve"/>
      <point x="292.36842105263156" y="448.57894736842104"/>
      <point x="354.84210526315786" y="403.3684210526316"/>
    </contour>
    <contour>
      <point x="70.63157894736842" y="358.1578947368421" type="line"/>
      <point x="132.6315789473684" y="403.36842105263156"/>
      <point x="194.57894736842104" y="448.57894736842104"/>
      <point x="257.05263157894734" y="494.2631578947368" type="curve"/>
      <point x="325.7894736842105" y="527.5263157894738"/>
      <point x="395.0" y="561.3157894736843"/>
      <point x="463.7368421052631" y="594.578947368421" type="curve"/>
      <point x="416.31578947368416" y="675.6315789473683" type="line"/>
      <point x="354.3157894736842" y="630.421052631579"/>
      <point x="292.36842105263156" y="585.2105263157895"/>
      <point x="230.3684210526316" y="540.0" type="curve"/>
      <point x="161.1578947368421" y="506.2631578947369"/>
      <point x="91.42105263157895" y="472.99999999999994"/>
      <point x="22.684210526315788" y="439.7368421052631" type="curve"/>
    </contour>
    <contour>
      <point x="196.26315789473685" y="287.1578947368421" type="curve"/>
      <point x="290.6842105263158" y="287.1578947368421" type="line"/>
      <point x="283.9473684210526" y="363.7368421052632"/>
      <point x="276.6842105263158" y="440.3157894736842"/>
      <point x="269.9473684210526" y="517.3684210526316" type="curve"/>
      <point x="276.6842105263158" y="593.4736842105264"/>
      <point x="283.42105263157896" y="670.0526315789474"/>
      <point x="290.1578947368421" y="746.6315789473684" type="curve"/>
      <point x="196.26315789473685" y="746.6315789473684" type="line"/>
      <point x="203.0" y="670.0526315789474"/>
      <point x="210.26315789473685" y="593.4736842105264"/>
      <point x="217.0" y="517.3684210526316" type="curve"/>
      <point x="210.26315789473685" y="440.3157894736842"/>
      <point x="203.0" y="363.7368421052632"/>
    </contour>
  </outline>
</glyph>
<glyph name="comma" format="2">
  <advance width="246.1052631578947"/>
  <unicode hex="002C"/>
  <outline>
    <contour>
      <point x="32.73684210526316" y="-157.0" type="curve"/>
      <point x="97.8421052631579" y="-155.47368421052633" type="line"/>
      <point x="130.57894736842104" y="-99.52631578947368"/>
      <point x="203.57894736842107" y="16.894736842105264"/>
      <point x="203.57894736842107" y="66.63157894736842" type="curve" smooth="yes"/>
      <point x="203.57894736842107" y="114.3157894736842"/>
      <point x="182.05263157894734" y="150.78947368421052"/>
      <point x="132.15789473684208" y="156.5263157894737" type="curve"/>
      <point x="59.31578947368422" y="151.31578947368422" type="line"/>
      <point x="64.0" y="111.0"/>
      <point x="68.63157894736842" y="70.68421052631578"/>
      <point x="71.73684210526316" y="33.526315789473685" type="curve"/>
      <point x="60.78947368421053" y="-26.631578947368418"/>
      <point x="46.1578947368421" y="-98.52631578947368"/>
    </contour>
  </outline>
</glyph>
<glyph name="hyphen" format="2">
  <advance width="425.2631578947368"/>
  <unicode hex="002D"/>
  <outline>
    <contour>
      <point x="54.21052631578947" y="237.47368421052633" type="line"/>
      <point x="111.52631578947368" y="239.52631578947373"/>
      <point x="172.68421052631578" y="241.57894736842107"/>
      <point x="212.6315789473684" y="242.63157894736844" type="curve"/>
      <point x="252.57894736842107" y="241.57894736842107"/>
      <point x="313.7368421052632" y="239.52631578947373"/>
      <point x="371.05263157894734" y="237.47368421052633" type="curve"/>
      <point x="371.05263157894734" y="362.0" type="line"/>
      <point x="313.7368421052632" y="359.94736842105266"/>
      <point x="252.57894736842107" y="357.89473684210526"/>
      <point x="212.6315789473684" y="356.8421052631579" type="curve"/>
      <point x="172.68421052631578" y="357.89473684210526"/>
      <point x="111.52631578947368" y="359.94736842105266"/>
      <point x="54.21052631578947" y="362.0" type="curve"/>
    </contour>
  </outline>
</glyph>
<glyph name="period" format="2">
  <advance width="256.15789473684214"/>
  <unicode hex="002E"/>
  <outline>
    <contour>
      <point x="128.05263157894737" y="-12.68421052631579" type="curve" smooth="yes"/>
      <point x="181.8421052631579" y="-12.68421052631579"/>
      <point x="214.10526315789474" y="16.578947368421055"/>
      <point x="214.10526315789474" y="77.94736842105264" type="curve" smooth="yes"/>
      <point x="214.10526315789474" y="126.42105263157895"/>
      <point x="181.8421052631579" y="153.6315789473684"/>
      <point x="128.57894736842104" y="153.6315789473684" type="curve" smooth="yes"/>
      <point x="75.26315789473685" y="153.6315789473684"/>
      <point x="42.526315789473685" y="126.42105263157895"/>
      <point x="42.526315789473685" y="77.94736842105264" type="curve" smooth="yes"/>
      <point x="42.526315789473685" y="16.578947368421055"/>
      <point x="75.26315789473685" y="-12.68421052631579"/>
    </contour>
  </outline>
</glyph>
<glyph name="slash" format="2">
  <advance width="462.7368421052631"/>
  <unicode hex="002F"/>
  <outline>
    <contour>
      <point x="15.894736842105265" y="0.0" type="curve"/>
      <point x="161.8421052631579" y="0.0" type="line"/>
      <point x="188.52631578947367" y="74.0"/>
      <point x="210.73684210526315" y="136.0"/>
      <point x="243.8421052631579" y="228.0" type="curve"/>
      <point x="342.1578947368421" y="474.0" type="line"/>
      <point x="383.5263157894737" y="569.0"/>
      <point x="411.42105263157896" y="632.4736842105264"/>
      <point x="446.8421052631579" y="713.0" type="curve"/>
      <point x="301.42105263157896" y="713.0" type="line"/>
      <point x="273.7368421052631" y="636.4736842105264"/>
      <point x="250.52631578947367" y="571.4736842105264"/>
      <point x="215.94736842105263" y="476.0" type="curve"/>
      <point x="116.63157894736841" y="228.0" type="line"/>
      <point x="76.26315789473684" y="137.57894736842104"/>
      <point x="48.8421052631579" y="74.57894736842105"/>
    </contour>
  </outline>
</glyph>
<glyph name="zero" format="2">
  <advance width="661.421052631579"/>
  <unicode hex="0030"/>
  <outline>
    <contour>
      <point x="333.4736842105263" y="-12.157894736842106" type="curve" smooth="yes"/>
      <point x="520.8421052631579" y="-12.157894736842106"/>
      <point x="614.8421052631579" y="128.6315789473684"/>
      <point x="614.8421052631579" y="344.5263157894737" type="curve" smooth="yes"/>
      <point x="614.8421052631579" y="554.421052631579"/>
      <point x="525.3684210526316" y="701.2631578947369"/>
      <point x="329.89473684210526" y="701.2631578947369" type="curve" smooth="yes"/>
      <point x="136.3684210526316" y="701.2631578947369"/>
      <point x="46.578947368421055" y="555.3684210526316"/>
      <point x="46.578947368421055" y="344.0" type="curve" smooth="yes"/>
      <point x="46.578947368421055" y="142.78947368421052"/>
      <point x="129.47368421052633" y="-12.157894736842106"/>
    </contour>
    <contour>
      <point x="331.4736842105263" y="101.42105263157895" type="curve"/>
      <point x="227.26315789473685" y="106.52631578947368"/>
      <point x="186.4736842105263" y="203.78947368421052"/>
      <point x="186.4736842105263" y="344.5263157894737" type="curve" smooth="yes"/>
      <point x="186.4736842105263" y="486.42105263157896"/>
      <point x="230.26315789473685" y="582.0526315789474"/>
      <point x="331.4736842105263" y="587.1578947368421" type="curve"/>
      <point x="429.7368421052632" y="582.0526315789474"/>
      <point x="475.4736842105263" y="491.10526315789474"/>
      <point x="475.4736842105263" y="344.5263157894737" type="curve" smooth="yes"/>
      <point x="475.4736842105263" y="205.21052631578948"/>
      <point x="434.63157894736844" y="106.52631578947368"/>
    </contour>
  </outline>
</glyph>
<glyph name="one" format="2">
  <advance width="451.1578947368421"/>
  <unicode hex="0031"/>
  <outline>
    <contour>
      <point x="58.94736842105264" y="445.1052631578947" type="line"/>
      <point x="134.1052631578947" y="486.5263157894737"/>
      <point x="208.6842105263158" y="527.421052631579"/>
      <point x="284.89473684210526" y="569.3684210526316" type="curve"/>
      <point x="289.63157894736844" y="691.2631578947369" type="line"/>
      <point x="199.94736842105263" y="649.8421052631579"/>
      <point x="111.3157894736842" y="609.421052631579"/>
      <point x="21.63157894736842" y="568.0" type="curve"/>
    </contour>
    <contour>
      <point x="209.42105263157893" y="0.0" type="curve"/>
      <point x="366.0" y="0.0" type="line"/>
      <point x="362.36842105263156" y="72.36842105263158"/>
      <point x="359.2631578947368" y="134.21052631578948"/>
      <point x="355.10526315789474" y="216.78947368421052" type="curve"/>
      <point x="355.10526315789474" y="448.05263157894734" type="line"/>
      <point x="358.7368421052632" y="529.8947368421053"/>
      <point x="362.36842105263156" y="609.3684210526316"/>
      <point x="366.0" y="687.1578947368421" type="curve"/>
      <point x="289.63157894736844" y="691.2631578947369" type="line"/>
      <point x="214.10526315789474" y="630.6315789473684" type="line"/>
      <point x="215.6842105263158" y="560.8421052631579"/>
      <point x="218.26315789473685" y="486.84210526315786"/>
      <point x="219.8421052631579" y="422.2631578947368" type="curve"/>
      <point x="219.8421052631579" y="216.78947368421052" type="line"/>
      <point x="215.68421052631578" y="134.21052631578948"/>
      <point x="213.05263157894737" y="72.36842105263158"/>
    </contour>
  </outline>
</glyph>
<glyph name="two" format="2">
  <advance width="565.1052631578947"/>
  <unicode hex="0032"/>
  <outline>
    <contour>
      <point x="44.578947368421055" y="0.0" type="line"/>
      <point x="518.2631578947369" y="0.0" type="line"/>
      <point x="518.2631578947369" y="129.31578947368422" type="line"/>
      <point x="448.89473684210526" y="125.1578947368421"/>
      <point x="379.57894736842104" y="121.0"/>
      <point x="308.10526315789474" y="116.3157894736842" type="curve"/>
      <point x="179.73684210526315" y="116.3157894736842" type="line"/>
      <point x="197.21052631578948" y="89.89473684210526" type="line"/>
      <point x="299.2631578947368" y="172.10526315789474" type="line"/>
      <point x="439.6842105263158" y="285.0"/>
      <point x="508.63157894736844" y="389.0"/>
      <point x="508.63157894736844" y="497.4736842105263" type="curve" smooth="yes"/>
      <point x="508.63157894736844" y="624.0526315789474"/>
      <point x="426.6842105263158" y="701.2631578947369"/>
      <point x="278.10526315789474" y="701.2631578947369" type="curve" smooth="yes"/>
      <point x="235.21052631578948" y="701.2631578947369"/>
      <point x="101.42105263157896" y="665.5263157894738"/>
      <point x="41.05263157894737" y="647.6315789473684" type="curve"/>
      <point x="53.36842105263158" y="515.3684210526316" type="line"/>
      <point x="128.63157894736844" y="547.6315789473684"/>
      <point x="233.15789473684214" y="586.1052631578948"/>
      <point x="251.78947368421052" y="586.1052631578948" type="curve"/>
      <point x="330.0526315789474" y="584.0526315789474"/>
      <point x="369.2105263157895" y="550.4736842105264"/>
      <point x="369.2105263157895" y="480.1578947368421" type="curve" smooth="yes"/>
      <point x="369.2105263157895" y="388.2631578947368"/>
      <point x="287.21052631578954" y="302.8947368421052"/>
      <point x="157.57894736842104" y="188.68421052631578" type="curve"/>
      <point x="119.89473684210526" y="159.63157894736844"/>
      <point x="82.26315789473685" y="130.6315789473684"/>
      <point x="44.578947368421055" y="101.57894736842104" type="curve"/>
    </contour>
  </outline>
</glyph>
<glyph name="three" format="2">
  <advance width="579.3980582524272"/>
  <unicode hex="0033"/>
  <outline>
    <contour>
      <point x="278.631067961165" y="-12.504854368932039" type="curve" smooth="yes"/>
      <point x="454.7864077669903" y="-12.504854368932039"/>
      <point x="536.5436893203884" y="72.62135922330097"/>
      <point x="536.5436893203884" y="187.1359223300971" type="curve" smooth="yes"/>
      <point x="536.5436893203884" y="295.37864077669906"/>
      <point x="460.31067961165047" y="347.873786407767"/>
      <point x="388.43689320388347" y="360.873786407767" type="curve"/>
      <point x="388.43689320388347" y="371.631067961165" type="line"/>
      <point x="459.18446601941747" y="387.25242718446606"/>
      <point x="516.4271844660194" y="440.8640776699029"/>
      <point x="516.4271844660194" y="526.8640776699029" type="curve" smooth="yes"/>
      <point x="516.4271844660194" y="633.747572815534"/>
      <point x="429.1747572815534" y="701.6310679611651"/>
      <point x="283.631067961165" y="701.6310679611651" type="curve" smooth="yes"/>
      <point x="241.8834951456311" y="701.6310679611651"/>
      <point x="110.99029126213591" y="663.7669902912621"/>
      <point x="52.10679611650485" y="645.1456310679612" type="curve"/>
      <point x="63.99029126213592" y="518.5339805825242" type="line"/>
      <point x="139.0970873786408" y="550.3980582524272"/>
      <point x="242.61165048543688" y="585.9029126213593"/>
      <point x="261.6019417475728" y="585.9029126213593" type="curve"/>
      <point x="329.4466019417476" y="583.7766990291263"/>
      <point x="377.29126213592235" y="558.2912621359224"/>
      <point x="377.29126213592235" y="499.6990291262136" type="curve" smooth="yes"/>
      <point x="377.29126213592235" y="443.1067961165048"/>
      <point x="334.19417475728153" y="405.8932038834951"/>
      <point x="234.2621359223301" y="403.7669902912621" type="curve"/>
      <point x="210.252427184466" y="405.8932038834951"/>
      <point x="185.49514563106797" y="408.0194174757282"/>
      <point x="163.23300970873788" y="409.2718446601941" type="curve"/>
      <point x="163.23300970873788" y="294.8252427184466" type="line"/>
      <point x="189.873786407767" y="296.07766990291265"/>
      <point x="214.75728155339806" y="298.07766990291265"/>
      <point x="242.27184466019418" y="299.33009708737865" type="curve"/>
      <point x="341.20388349514565" y="297.20388349514565"/>
      <point x="397.53398058252424" y="264.3592233009709"/>
      <point x="397.53398058252424" y="198.28155339805826" type="curve" smooth="yes"/>
      <point x="397.53398058252424" y="142.19417475728156"/>
      <point x="359.18446601941747" y="104.4757281553398"/>
      <point x="264.8640776699029" y="102.3495145631068" type="curve"/>
      <point x="233.3883495145631" y="102.3495145631068"/>
      <point x="129.98058252427182" y="135.10679611650482"/>
      <point x="50.36893203883495" y="163.2233009708738" type="curve"/>
      <point x="38.6116504854369" y="35.23300970873785" type="line"/>
      <point x="113.47572815533981" y="14.368932038834956"/>
      <point x="234.2621359223301" y="-12.504854368932039"/>
    </contour>
  </outline>
</glyph>
<glyph name="four" format="2">
  <advance width="609.7766990291262"/>
  <unicode hex="0034"/>
  <outline>
    <contour>
      <point x="330.6893203883495" y="0.0" type="curve"/>
      <point x="487.4660194174757" y="0.0" type="line"/>
      <point x="484.08737864077665" y="65.50485436893203"/>
      <point x="480.8349514563107" y="118.38834951456312"/>
      <point x="476.45631067961165" y="198.14563106796115" type="curve"/>
      <point x="476.45631067961165" y="446.37864077669906" type="line"/>
      <point x="480.7087378640777" y="524.378640776699"/>
      <point x="484.08737864077665" y="604.378640776699"/>
      <point x="487.4660194174757" y="687.378640776699" type="curve"/>
      <point x="334.19417475728153" y="687.378640776699" type="line"/>
      <point x="306.8252427184466" y="644.8834951456311"/>
      <point x="278.45631067961165" y="600.5145631067961"/>
      <point x="251.08737864077668" y="558.0194174757281" type="curve"/>
      <point x="167.09708737864077" y="438.53398058252424" type="line"/>
      <point x="123.72815533980582" y="380.6699029126214"/>
      <point x="66.23300970873785" y="303.9320388349514"/>
      <point x="25.864077669902912" y="249.94174757281553" type="curve"/>
      <point x="25.864077669902912" y="148.3495145631068" type="line"/>
      <point x="391.3592233009709" y="148.3495145631068" type="line"/>
      <point x="448.62135922330094" y="146.0970873786408"/>
      <point x="531.5145631067961" y="143.71844660194174"/>
      <point x="583.6504854368933" y="141.59223300970874" type="curve"/>
      <point x="583.6504854368933" y="272.2135922330097" type="line"/>
      <point x="531.5145631067961" y="270.0873786407767"/>
      <point x="448.62135922330094" y="266.8349514563107"/>
      <point x="391.3592233009709" y="264.58252427184465" type="curve"/>
      <point x="375.9805825242718" y="262.05825242718447" type="line"/>
      <point x="133.0873786407767" y="262.05825242718447" type="line"/>
      <point x="143.84466019417474" y="223.71844660194174" type="line"/>
      <point x="172.21359223300968" y="266.0873786407767"/>
      <point x="198.58252427184468" y="307.45631067961165"/>
      <point x="226.9514563106796" y="350.82524271844665" type="curve"/>
      <point x="340.05825242718447" y="511.3009708737864" type="line"/>
      <point x="374.5533980582524" y="557.0388349514564"/>
      <point x="408.9223300970874" y="602.7766990291262"/>
      <point x="444.41747572815535" y="649.5145631067961" type="curve"/>
      <point x="338.8349514563107" y="627.5825242718446" type="line"/>
      <point x="342.0873786407767" y="558.0873786407767"/>
      <point x="345.3398058252427" y="487.84466019417476"/>
      <point x="347.71844660194176" y="420.09708737864077" type="curve"/>
      <point x="347.71844660194176" y="218.28155339805826" type="line"/>
      <point x="341.6990291262136" y="198.14563106796115" type="line"/>
      <point x="337.32038834951453" y="118.38834951456312"/>
      <point x="334.06796116504853" y="65.50485436893203"/>
    </contour>
  </outline>
</glyph>
<glyph name="five" format="2">
  <advance width="580.7669902912622"/>
  <unicode hex="0035"/>
  <outline>
    <contour>
      <point x="275.50485436893206" y="-12.504854368932039" type="curve" smooth="yes"/>
      <point x="451.7864077669903" y="-12.504854368932039"/>
      <point x="537.9126213592233" y="82.126213592233"/>
      <point x="537.9126213592233" y="220.50485436893203" type="curve" smooth="yes"/>
      <point x="537.9126213592233" y="362.62135922330094"/>
      <point x="445.04854368932035" y="445.8543689320389"/>
      <point x="329.93203883495147" y="445.8543689320389" type="curve" smooth="yes"/>
      <point x="295.8252427184466" y="445.8543689320389"/>
      <point x="251.33009708737865" y="432.4854368932038"/>
      <point x="215.58252427184468" y="419.4854368932039" type="curve"/>
      <point x="204.82524271844662" y="419.4854368932039" type="line"/>
      <point x="204.95145631067962" y="456.97087378640776" type="line"/>
      <point x="208.33009708737862" y="506.3398058252427"/>
      <point x="211.58252427184468" y="559.4466019417476"/>
      <point x="214.96116504854368" y="614.0582524271845" type="curve"/>
      <point x="163.4368932038835" y="571.1456310679612" type="line"/>
      <point x="263.05825242718447" y="571.1456310679612" type="line"/>
      <point x="341.67961165048547" y="566.7669902912622"/>
      <point x="422.4271844660194" y="562.3883495145632"/>
      <point x="501.0485436893204" y="558.0097087378641" type="curve"/>
      <point x="501.0485436893204" y="687.378640776699" type="line"/>
      <point x="68.97087378640776" y="687.378640776699" type="line"/>
      <point x="72.2233009708738" y="606.3689320388349"/>
      <point x="75.47572815533981" y="517.1067961165049"/>
      <point x="78.85436893203884" y="421.84466019417476" type="curve"/>
      <point x="78.85436893203884" y="309.2038834951456" type="line"/>
      <point x="137.40776699029126" y="304.82524271844665" type="line"/>
      <point x="176.63106796116503" y="325.9320388349514"/>
      <point x="229.48543689320388" y="341.17475728155335"/>
      <point x="265.3495145631068" y="341.17475728155335" type="curve"/>
      <point x="342.94174757281553" y="339.04854368932035"/>
      <point x="398.77669902912623" y="307.06796116504853"/>
      <point x="398.77669902912623" y="223.88349514563106" type="curve" smooth="yes"/>
      <point x="398.77669902912623" y="146.6893203883495"/>
      <point x="355.18446601941747" y="104.4757281553398"/>
      <point x="262.8640776699029" y="102.3495145631068" type="curve"/>
      <point x="232.2621359223301" y="102.3495145631068"/>
      <point x="128.98058252427182" y="135.10679611650482"/>
      <point x="50.36893203883495" y="163.2233009708738" type="curve"/>
      <point x="38.6116504854369" y="35.23300970873785" type="line"/>
      <point x="112.47572815533981" y="14.368932038834956"/>
      <point x="231.26213592233012" y="-12.504854368932039"/>
    </contour>
  </outline>
</glyph>
<glyph name="less" format="2">
  <advance width="575.7894736842105"/>
  <unicode hex="003C"/>
  <outline>
    <contour>
      <point x="521.578947368421" y="52.8421052631579" type="curve"/>
      <point x="521.578947368421" y="186.57894736842104" type="line"/>
      <point x="459.4210526315789" y="209.0"/>
      <point x="393.4736842105263" y="233.3157894736842"/>
      <point x="330.36842105263156" y="256.2105263157895" type="curve"/>
      <point x="229.36842105263156" y="296.2631578947368" type="line"/>
      <point x="229.36842105263156" y="307.5263157894737" type="line"/>
      <point x="330.36842105263156" y="347.57894736842104" type="line"/>
      <point x="393.4736842105263" y="370.4736842105263"/>
      <point x="459.4210526315789" y="394.7894736842105"/>
      <point x="521.578947368421" y="417.2105263157895" type="curve"/>
      <point x="521.578947368421" y="550.9473684210526" type="line"/>
      <point x="453.57894736842104" y="521.8421052631579"/>
      <point x="389.7894736842105" y="494.3157894736842"/>
      <point x="335.8421052631579" y="471.2105263157895" type="curve"/>
      <point x="239.0" y="432.5263157894737" type="line"/>
      <point x="183.6315789473684" y="412.57894736842104"/>
      <point x="120.6842105263158" y="389.63157894736844"/>
      <point x="54.21052631578947" y="365.6842105263158" type="curve"/>
      <point x="54.21052631578947" y="238.10526315789474" type="line"/>
      <point x="120.6842105263158" y="214.63157894736844"/>
      <point x="184.57894736842104" y="191.21052631578948"/>
      <point x="239.0" y="171.26315789473685" type="curve"/>
      <point x="335.8421052631579" y="132.57894736842104" type="line"/>
      <point x="390.7368421052632" y="109.0"/>
      <point x="454.5263157894737" y="81.47368421052632"/>
    </contour>
  </outline>
</glyph>
<glyph name="equal" format="2">
  <advance width="575.7894736842105"/>
  <unicode hex="003D"/>
  <outline>
    <contour>
      <point x="59.473684210526315" y="121.94736842105263" type="line"/>
      <point x="126.42105263157895" y="124.0"/>
      <point x="198.1578947368421" y="126.05263157894737"/>
      <point x="244.73684210526315" y="127.10526315789474" type="curve"/>
      <point x="331.05263157894734" y="127.10526315789474" type="line"/>
      <point x="377.63157894736844" y="126.05263157894737"/>
      <point x="449.36842105263156" y="124.0"/>
      <point x="516.3157894736842" y="121.94736842105263" type="curve"/>
      <point x="516.3157894736842" y="246.47368421052633" type="line"/>
      <point x="449.36842105263156" y="244.42105263157893"/>
      <point x="377.63157894736844" y="242.3684210526316"/>
      <point x="331.05263157894734" y="241.31578947368422" type="curve"/>
      <point x="244.73684210526315" y="241.31578947368422" type="line"/>
      <point x="198.1578947368421" y="242.3684210526316"/>
      <point x="126.42105263157895" y="244.42105263157893"/>
      <point x="59.473684210526315" y="246.47368421052633" type="curve"/>
    </contour>
    <contour>
      <point x="59.473684210526315" y="358.2631578947369" type="line"/>
      <point x="126.42105263157895" y="360.3157894736842"/>
      <point x="198.1578947368421" y="362.3684210526316"/>
      <point x="244.73684210526315" y="363.42105263157896" type="curve"/>
      <point x="331.05263157894734" y="363.42105263157896" type="line"/>
      <point x="377.63157894736844" y="362.3684210526316"/>
      <point x="449.36842105263156" y="360.3157894736842"/>
      <point x="516.3157894736842" y="358.2631578947369" type="curve"/>
      <point x="516.3157894736842" y="482.7894736842105" type="line"/>
      <point x="449.36842105263156" y="480.7368421052632"/>
      <point x="377.63157894736844" y="478.6842105263158"/>
      <point x="331.05263157894734" y="477.63157894736844" type="curve"/>
      <point x="244.73684210526315" y="477.63157894736844" type="line"/>
      <point x="198.1578947368421" y="478.6842105263158"/>
      <point x="126.42105263157895" y="480.7368421052632"/>
      <point x="59.473684210526315" y="482.7894736842105" type="curve"/>
    </contour>
  </outline>
</glyph>
<glyph name="greater" format="2">
  <advance width="575.7894736842105"/>
  <unicode hex="003E"/>
  <outline>
    <contour>
      <point x="54.21052631578947" y="52.8421052631579" type="line"/>
      <point x="122.21052631578948" y="81.94736842105263"/>
      <point x="186.0" y="109.47368421052632"/>
      <point x="239.94736842105263" y="132.57894736842104" type="curve"/>
      <point x="336.7894736842105" y="171.26315789473685" type="line"/>
      <point x="392.15789473684214" y="191.21052631578948"/>
      <point x="455.10526315789474" y="214.15789473684214"/>
      <point x="521.578947368421" y="238.10526315789474" type="curve"/>
      <point x="521.578947368421" y="365.6842105263158" type="line"/>
      <point x="455.10526315789474" y="389.1578947368421"/>
      <point x="391.2105263157895" y="412.57894736842104"/>
      <point x="336.7894736842105" y="432.5263157894737" type="curve"/>
      <point x="239.94736842105263" y="471.2105263157895" type="line"/>
      <point x="185.05263157894737" y="494.7894736842105"/>
      <point x="121.26315789473685" y="522.3157894736842"/>
      <point x="54.21052631578947" y="550.9473684210526" type="curve"/>
      <point x="54.21052631578947" y="417.2105263157895" type="line"/>
      <point x="116.36842105263158" y="394.7894736842105"/>
      <point x="182.31578947368422" y="370.4736842105263"/>
      <point x="245.42105263157896" y="347.57894736842104" type="curve"/>
      <point x="346.42105263157896" y="307.5263157894737" type="line"/>
      <point x="346.42105263157896" y="296.2631578947368" type="line"/>
      <point x="245.42105263157896" y="256.2105263157895" type="line"/>
      <point x="182.31578947368422" y="233.3157894736842"/>
      <point x="116.36842105263158" y="209.0"/>
      <point x="54.21052631578947" y="186.57894736842104" type="curve"/>
    </contour>
  </outline>
</glyph>
<glyph name="at" format="2">
  <advance width="889.2105263157895"/>
  <unicode hex="0040"/>
  <outline>
    <contour>
      <point x="475.2631578947368" y="-140.42105263157896" type="curve" smooth="yes"/>
      <point x="540.3157894736843" y="-140.42105263157896"/>
      <point x="665.7368421052631" y="-99.10526315789473"/>
      <point x="758.3157894736842" y="-71.78947368421052" type="curve"/>
      <point x="758.3157894736842" y="19.421052631578945" type="line"/>
      <point x="641.0" y="-25.210526315789476"/>
      <point x="517.8421052631579" y="-60.05263157894737"/>
      <point x="475.2631578947368" y="-62.578947368421055" type="curve"/>
      <point x="207.21052631578948" y="-58.526315789473685"/>
      <point x="86.57894736842105" y="118.05263157894737"/>
      <point x="133.68421052631578" y="335.63157894736844" type="curve" smooth="yes"/>
      <point x="171.3684210526316" y="510.8947368421053"/>
      <point x="291.0" y="608.1052631578947"/>
      <point x="470.2631578947368" y="612.1578947368421" type="curve"/>
      <point x="677.3684210526316" y="608.1052631578947"/>
      <point x="793.8947368421052" y="470.2631578947369"/>
      <point x="757.0" y="268.5263157894737" type="curve" smooth="yes"/>
      <point x="751.6315789473684" y="239.68421052631578"/>
      <point x="679.4736842105264" y="153.0"/>
      <point x="648.1052631578947" y="145.63157894736844" type="curve"/>
      <point x="604.2105263157894" y="149.1578947368421"/>
      <point x="588.6315789473683" y="180.78947368421052"/>
      <point x="600.0526315789474" y="235.78947368421052" type="curve"/>
      <point x="622.0" y="341.10526315789474" type="line"/>
      <point x="636.2105263157895" y="387.05263157894734"/>
      <point x="651.8421052631578" y="437.6842105263158"/>
      <point x="667.0" y="484.3157894736842" type="curve"/>
      <point x="562.3684210526316" y="478.6842105263158" type="line"/>
      <point x="545.7894736842105" y="427.4736842105263" type="line"/>
      <point x="536.5789473684212" y="427.4736842105263" type="line"/>
      <point x="502.1052631578946" y="460.6842105263158"/>
      <point x="452.2105263157895" y="489.7894736842105"/>
      <point x="418.2631578947368" y="489.7894736842105" type="curve" smooth="yes"/>
      <point x="325.3157894736842" y="489.7894736842105"/>
      <point x="258.1578947368421" y="411.8421052631579"/>
      <point x="236.78947368421052" y="307.36842105263156" type="curve" smooth="yes"/>
      <point x="211.26315789473685" y="182.52631578947367"/>
      <point x="263.57894736842104" y="69.84210526315789"/>
      <point x="377.2105263157895" y="69.84210526315789" type="curve" smooth="yes"/>
      <point x="403.8421052631579" y="69.84210526315789"/>
      <point x="452.89473684210526" y="98.15789473684211"/>
      <point x="499.47368421052636" y="134.47368421052633" type="curve"/>
      <point x="508.15789473684214" y="134.47368421052633" type="line"/>
      <point x="524.6315789473684" y="96.10526315789474"/>
      <point x="570.6315789473684" y="60.89473684210526"/>
      <point x="653.5263157894738" y="60.89473684210526" type="curve" smooth="yes"/>
      <point x="694.3157894736843" y="60.89473684210526"/>
      <point x="823.9473684210526" y="176.42105263157896"/>
      <point x="838.578947368421" y="252.0" type="curve" smooth="yes"/>
      <point x="885.2631578947369" y="493.2105263157895"/>
      <point x="727.1578947368421" y="690.0"/>
      <point x="471.7894736842105" y="690.0" type="curve" smooth="yes"/>
      <point x="277.57894736842104" y="690.0"/>
      <point x="100.84210526315789" y="585.8421052631579"/>
      <point x="52.15789473684211" y="352.7894736842105" type="curve" smooth="yes"/>
      <point x="-2.2105263157894726" y="94.36842105263158"/>
      <point x="153.94736842105263" y="-140.42105263157896"/>
    </contour>
    <contour>
      <point x="408.05263157894734" y="163.52631578947367" type="curve"/>
      <point x="349.1578947368421" y="165.52631578947367"/>
      <point x="325.8421052631579" y="221.68421052631578"/>
      <point x="339.89473684210526" y="289.10526315789474" type="curve" smooth="yes"/>
      <point x="352.57894736842104" y="349.1578947368421"/>
      <point x="387.6842105263158" y="391.5263157894737"/>
      <point x="443.94736842105266" y="394.0526315789474" type="curve"/>
      <point x="468.2631578947369" y="392.00000000000006"/>
      <point x="498.9473684210526" y="375.2105263157895"/>
      <point x="520.5263157894738" y="356.42105263157896" type="curve"/>
      <point x="490.63157894736844" y="217.68421052631578" type="line"/>
      <point x="463.6315789473685" y="185.26315789473685"/>
      <point x="430.05263157894734" y="167.1052631578947"/>
    </contour>
  </outline>
</glyph>
<glyph name="A" format="2">
  <advance width="712.7368421052631"/>
  <unicode hex="0041"/>
  <anchor x="356.6315789473684" y="0.0" name="bottom"/>
  <anchor x="697.578947368421" y="0.0" name="ogonek"/>
  <anchor x="356.6315789473684" y="713.0" name="top"/>
  <outline>
    <contour>
      <point x="12.578947368421053" y="0.0" type="curve"/>
      <point x="183.0" y="0.0" type="line"/>
      <point x="202.78947368421052" y="78.94736842105263"/>
      <point x="224.0" y="161.73684210526318"/>
      <point x="243.3157894736842" y="239.73684210526315" type="curve"/>
      <point x="350.89473684210526" y="589.1052631578948" type="line"/>
      <point x="362.1578947368421" y="589.1052631578948" type="line"/>
      <point x="468.7368421052631" y="236.21052631578948" type="line"/>
      <point x="487.1052631578947" y="162.21052631578948"/>
      <point x="508.36842105263156" y="76.36842105263158"/>
      <point x="527.6842105263158" y="0.0" type="curve"/>
      <point x="700.7368421052631" y="0.0" type="line"/>
      <point x="671.7894736842105" y="76.52631578947368"/>
      <point x="639.3684210526316" y="161.52631578947367"/>
      <point x="608.9473684210526" y="241.0" type="curve"/>
      <point x="527.0526315789474" y="486.4736842105263" type="line"/>
      <point x="502.94736842105254" y="572.421052631579"/>
      <point x="484.2631578947368" y="639.8947368421053"/>
      <point x="464.0526315789474" y="713.0" type="curve"/>
      <point x="252.1578947368421" y="713.0" type="line"/>
      <point x="231.47368421052633" y="638.9473684210526"/>
      <point x="212.73684210526315" y="573.3684210526316"/>
      <point x="188.1578947368421" y="486.4736842105263" type="curve"/>
      <point x="105.78947368421052" y="241.47368421052633" type="line"/>
      <point x="76.36842105263158" y="164.94736842105263"/>
      <point x="42.47368421052632" y="77.47368421052632"/>
    </contour>
    <contour>
      <point x="185.42105263157893" y="157.21052631578948" type="line"/>
      <point x="542.5263157894738" y="157.21052631578948" type="line"/>
      <point x="530.421052631579" y="266.1578947368421" type="line"/>
      <point x="200.1578947368421" y="266.1578947368421" type="line"/>
    </contour>
  </outline>
</glyph>
<glyph name="B" format="2">
  <advance width="660.6601941747573"/>
  <unicode hex="0042"/>
  <outline>
    <contour>
      <point x="321.5145631067962" y="-5.504854368932039" type="curve"/>
      <point x="555.0485436893204" y="-5.504854368932039"/>
      <point x="626.4271844660194" y="81.36893203883494"/>
      <point x="626.4271844660194" y="198.75728155339806" type="curve" smooth="yes"/>
      <point x="626.4271844660194" y="305.747572815534"/>
      <point x="562.4466019417476" y="352.126213592233"/>
      <point x="480.0485436893204" y="369.88349514563106" type="curve"/>
      <point x="480.0485436893204" y="381.5145631067961" type="line"/>
      <point x="553.5533980582525" y="401.00970873786406"/>
      <point x="608.9320388349515" y="456.75728155339806"/>
      <point x="608.9320388349515" y="547.8834951456311" type="curve" smooth="yes"/>
      <point x="608.9320388349515" y="653.3786407766991"/>
      <point x="542.1844660194174" y="717.378640776699"/>
      <point x="360.1359223300971" y="717.378640776699" type="curve"/>
      <point x="259.621359223301" y="717.378640776699"/>
      <point x="157.9708737864078" y="713.0"/>
      <point x="67.8252427184466" y="713.0" type="curve"/>
      <point x="71.20388349514565" y="634.252427184466"/>
      <point x="74.45631067961165" y="567.6310679611651"/>
      <point x="78.96116504854369" y="474.873786407767" type="curve"/>
      <point x="78.96116504854369" y="233.36893203883494" type="line"/>
      <point x="74.58252427184466" y="143.99029126213594"/>
      <point x="71.20388349514565" y="76.49514563106796"/>
      <point x="67.8252427184466" y="0.0" type="curve"/>
      <point x="147.46601941747574" y="0.0"/>
      <point x="216.0" y="-5.504854368932039"/>
    </contour>
    <contour>
      <point x="223.60194174757282" y="112.82524271844659" type="line"/>
      <point x="222.6019417475728" y="159.55339805825244"/>
      <point x="221.4757281553398" y="206.53398058252426"/>
      <point x="220.3495145631068" y="264.5242718446602" type="curve"/>
      <point x="220.3495145631068" y="442.09708737864077" type="line"/>
      <point x="221.4757281553398" y="504.0873786407767"/>
      <point x="222.6019417475728" y="552.4466019417475"/>
      <point x="223.60194174757282" y="600.6796116504854" type="curve"/>
      <point x="349.0" y="600.6796116504854" type="line" smooth="yes"/>
      <point x="423.3203883495146" y="600.6796116504854"/>
      <point x="460.0388349514563" y="570.4368932038835"/>
      <point x="460.0388349514563" y="510.8446601941747" type="curve" smooth="yes"/>
      <point x="460.0388349514563" y="455.11650485436894"/>
      <point x="422.3106796116505" y="412.77669902912623"/>
      <point x="338.63106796116506" y="412.77669902912623" type="curve" smooth="yes"/>
      <point x="186.6893203883495" y="412.77669902912623" type="line"/>
      <point x="186.6893203883495" y="305.7184466019417" type="line"/>
      <point x="343.8932038834952" y="305.7184466019417" type="line" smooth="yes"/>
      <point x="428.95145631067965" y="305.7184466019417"/>
      <point x="476.4077669902913" y="276.60194174757277"/>
      <point x="476.4077669902913" y="211.01941747572818" type="curve" smooth="yes"/>
      <point x="476.4077669902913" y="148.1747572815534"/>
      <point x="435.1844660194175" y="112.82524271844659"/>
      <point x="335.0291262135923" y="112.82524271844659" type="curve" smooth="yes"/>
    </contour>
  </outline>
</glyph>
<glyph name="C" format="2">
  <advance width="683.3684210526317"/>
  <unicode hex="0043"/>
  <anchor x="396.7894736842105" y="0.0" name="bottom"/>
  <anchor x="392.05263157894734" y="713.0" name="top"/>
  <outline>
    <contour>
      <point x="414.36842105263156" y="-12.68421052631579" type="curve" smooth="yes"/>
      <point x="457.1052631578948" y="-12.68421052631579"/>
      <point x="573.0" y="11.05263157894737"/>
      <point x="633.9473684210526" y="30.89473684210526" type="curve"/>
      <point x="625.3157894736842" y="168.8421052631579" type="line"/>
      <point x="557.6315789473684" y="138.52631578947367"/>
      <point x="459.0526315789474" y="107.1578947368421"/>
      <point x="431.3157894736842" y="107.1578947368421" type="curve"/>
      <point x="271.36842105263156" y="110.68421052631578"/>
      <point x="191.42105263157896" y="220.89473684210526"/>
      <point x="191.42105263157896" y="356.42105263157896" type="curve" smooth="yes"/>
      <point x="191.42105263157896" y="513.1578947368421"/>
      <point x="286.2631578947368" y="600.0526315789474"/>
      <point x="399.89473684210526" y="603.578947368421" type="curve"/>
      <point x="423.15789473684214" y="603.578947368421"/>
      <point x="529.4736842105264" y="574.4736842105262"/>
      <point x="627.0526315789474" y="538.8947368421052" type="curve"/>
      <point x="638.3684210526317" y="676.3684210526316" type="line"/>
      <point x="565.6315789473683" y="697.5263157894736"/>
      <point x="444.2105263157895" y="727.1052631578947"/>
      <point x="401.42105263157896" y="727.1052631578947" type="curve" smooth="yes"/>
      <point x="178.57894736842104" y="727.1052631578947"/>
      <point x="41.05263157894737" y="571.2631578947369"/>
      <point x="41.05263157894737" y="356.36842105263156" type="curve" smooth="yes"/>
      <point x="41.05263157894737" y="138.26315789473685"/>
      <point x="183.94736842105263" y="-12.68421052631579"/>
    </contour>
  </outline>
</glyph>
<glyph name="E" format="2">
  <advance width="598.0097087378641"/>
  <unicode hex="0045"/>
  <anchor x="311.49514563106794" y="0.0" name="bottom"/>
  <anchor x="544.1456310679612" y="0.0" name="ogonek"/>
  <anchor x="311.49514563106794" y="713.0" name="top"/>
  <anchor x="37.126213592233015" y="713.0" name="topleft"/>
  <outline>
    <contour>
      <point x="67.8252427184466" y="0.0" type="curve"/>
      <point x="232.23300970873785" y="0.0" type="line"/>
      <point x="232.23300970873785" y="22.524271844660195" type="line"/>
      <point x="227.98058252427182" y="100.01941747572816"/>
      <point x="224.6019417475728" y="167.51456310679612"/>
      <point x="220.22330097087377" y="255.89320388349515" type="curve"/>
      <point x="220.22330097087377" y="452.3495145631068" type="line"/>
      <point x="224.6019417475728" y="542.9805825242719"/>
      <point x="227.98058252427182" y="611.7281553398059"/>
      <point x="232.23300970873785" y="690.4757281553398" type="curve"/>
      <point x="232.23300970873785" y="713.0" type="line"/>
      <point x="67.8252427184466" y="713.0" type="line"/>
      <point x="71.20388349514565" y="634.252427184466"/>
      <point x="74.45631067961165" y="567.6310679611651"/>
      <point x="78.96116504854369" y="474.873786407767" type="curve"/>
      <point x="78.96116504854369" y="233.36893203883494" type="line"/>
      <point x="74.58252427184466" y="143.99029126213594"/>
      <point x="71.20388349514565" y="76.49514563106796"/>
    </contour>
    <contour>
      <point x="203.83495145631068" y="0.0" type="line"/>
      <point x="547.5242718446602" y="0.0" type="line"/>
      <point x="547.5242718446602" y="131.4854368932039" type="line"/>
      <point x="479.7864077669903" y="127.23300970873787"/>
      <point x="408.0485436893204" y="123.85436893203884"/>
      <point x="326.56310679611653" y="119.60194174757282" type="curve"/>
      <point x="203.83495145631068" y="119.60194174757282" type="line"/>
    </contour>
    <contour>
      <point x="187.68932038834953" y="303.3300970873786" type="line"/>
      <point x="320.17475728155347" y="303.3300970873786" type="line"/>
      <point x="406.16504854368935" y="300.95145631067953"/>
      <point x="464.5339805825243" y="298.82524271844653"/>
      <point x="527.7766990291262" y="297.57281553398053" type="curve"/>
      <point x="527.7766990291262" y="424.4174757281553" type="line"/>
      <point x="467.53398058252435" y="422.29126213592235"/>
      <point x="409.16504854368935" y="420.03883495145635"/>
      <point x="320.17475728155347" y="416.7864077669903" type="curve"/>
      <point x="187.68932038834953" y="416.7864077669903" type="line"/>
    </contour>
    <contour>
      <point x="195.69902912621362" y="593.3980582524272" type="line"/>
      <point x="315.80582524271847" y="593.3980582524272" type="line"/>
      <point x="413.16504854368935" y="588.0194174757281"/>
      <point x="481.02912621359224" y="585.6407766990291"/>
      <point x="544.0194174757282" y="581.5145631067961" type="curve"/>
      <point x="544.0194174757282" y="713.0" type="line"/>
      <point x="195.69902912621362" y="713.0" type="line"/>
    </contour>
  </outline>
</glyph>
<glyph name="F" format="2">
  <advance width="578.8947368421053"/>
  <unicode hex="0046"/>
  <outline>
    <contour>
      <point x="68.00000000000001" y="0.0" type="curve"/>
      <point x="231.8421052631579" y="0.0" type="line"/>
      <point x="228.21052631578945" y="77.3157894736842"/>
      <point x="224.57894736842104" y="144.1578947368421"/>
      <point x="220.42105263157893" y="233.26315789473685" type="curve"/>
      <point x="220.42105263157893" y="452.0" type="line"/>
      <point x="224.57894736842104" y="543.2105263157895"/>
      <point x="228.21052631578945" y="611.6315789473684"/>
      <point x="231.8421052631579" y="690.5263157894736" type="curve"/>
      <point x="231.8421052631579" y="713.0" type="line"/>
      <point x="68.00000000000001" y="713.0" type="line"/>
      <point x="71.63157894736842" y="634.1052631578947"/>
      <point x="74.26315789473685" y="567.2631578947369"/>
      <point x="78.94736842105264" y="474.4736842105263" type="curve"/>
      <point x="78.94736842105264" y="233.26315789473685" type="line"/>
      <point x="74.78947368421053" y="143.63157894736844"/>
      <point x="71.63157894736842" y="76.78947368421052"/>
    </contour>
    <contour>
      <point x="184.42105263157893" y="293.3157894736842" type="line"/>
      <point x="312.10526315789474" y="293.3157894736842" type="line"/>
      <point x="398.2105263157895" y="290.6842105263158"/>
      <point x="456.47368421052636" y="288.63157894736844"/>
      <point x="519.6842105263158" y="287.0526315789474" type="curve"/>
      <point x="519.6842105263158" y="417.3157894736842" type="line"/>
      <point x="459.94736842105266" y="415.2631578947368"/>
      <point x="400.7368421052632" y="412.6842105263158"/>
      <point x="312.57894736842104" y="409.57894736842104" type="curve"/>
      <point x="184.42105263157893" y="409.57894736842104" type="line"/>
    </contour>
    <contour>
      <point x="192.8421052631579" y="592.0" type="line"/>
      <point x="308.8421052631579" y="592.0" type="line"/>
      <point x="406.2105263157895" y="587.3157894736842"/>
      <point x="473.7894736842105" y="583.7368421052631"/>
      <point x="536.8947368421053" y="580.6315789473684" type="curve"/>
      <point x="536.8947368421053" y="713.0" type="line"/>
      <point x="192.8421052631579" y="713.0" type="line"/>
    </contour>
  </outline>
</glyph>
<glyph name="G" format="2">
  <advance width="729.1052631578948"/>
  <unicode hex="0047"/>
  <anchor x="396.7894736842105" y="0.0" name="bottom"/>
  <anchor x="396.7894736842105" y="713.0" name="top"/>
  <outline>
    <contour>
      <point x="424.42105263157896" y="-12.157894736842106" type="curve" smooth="yes"/>
      <point x="469.0526315789474" y="-12.157894736842106"/>
      <point x="609.8421052631579" y="8.105263157894736"/>
      <point x="675.7894736842105" y="23.42105263157895" type="curve"/>
      <point x="651.8947368421053" y="156.6315789473684" type="line"/>
      <point x="576.578947368421" y="130.31578947368422"/>
      <point x="468.89473684210526" y="104.52631578947368"/>
      <point x="436.5263157894737" y="104.52631578947368" type="curve"/>
      <point x="267.5263157894737" y="108.05263157894737"/>
      <point x="190.36842105263156" y="217.36842105263156"/>
      <point x="190.36842105263156" y="356.36842105263156" type="curve" smooth="yes"/>
      <point x="190.36842105263156" y="515.1578947368421"/>
      <point x="288.9473684210526" y="600.578947368421"/>
      <point x="402.7368421052631" y="603.578947368421" type="curve"/>
      <point x="427.5263157894737" y="603.578947368421"/>
      <point x="541.578947368421" y="575.0"/>
      <point x="646.3157894736842" y="539.421052631579" type="curve"/>
      <point x="657.6315789473684" y="674.7894736842104" type="line"/>
      <point x="579.7368421052631" y="697.0"/>
      <point x="449.63157894736844" y="727.1052631578947"/>
      <point x="403.7894736842105" y="727.1052631578947" type="curve" smooth="yes"/>
      <point x="180.94736842105263" y="727.1052631578947"/>
      <point x="41.05263157894737" y="574.1052631578947"/>
      <point x="41.05263157894737" y="356.89473684210526" type="curve" smooth="yes"/>
      <point x="41.05263157894737" y="143.5263157894737"/>
      <point x="178.57894736842104" y="-12.157894736842106"/>
    </contour>
    <contour>
      <point x="527.6842105263157" y="23.42105263157895" type="curve"/>
      <point x="675.7894736842105" y="23.42105263157895" type="line"/>
      <point x="673.2105263157895" y="95.63157894736842"/>
      <point x="671.1052631578948" y="148.42105263157896"/>
      <point x="669.0526315789474" y="203.68421052631578" type="curve"/>
      <point x="673.2105263157895" y="267.89473684210526"/>
      <point x="676.3684210526316" y="314.10526315789474"/>
      <point x="680.0" y="365.8421052631579" type="curve"/>
      <point x="521.9473684210526" y="365.8421052631579" type="line"/>
      <point x="525.578947368421" y="314.10526315789474"/>
      <point x="529.2105263157895" y="267.89473684210526"/>
      <point x="533.3684210526316" y="203.68421052631578" type="curve"/>
      <point x="531.3157894736842" y="148.42105263157896"/>
      <point x="530.2631578947369" y="96.6842105263158"/>
    </contour>
  </outline>
</glyph>
<glyph name="H" format="2">
  <advance width="755.7894736842105"/>
  <unicode hex="0048"/>
  <anchor x="378.15789473684214" y="0.0" name="bottom"/>
  <anchor x="378.15789473684214" y="357.0" name="center"/>
  <anchor x="378.15789473684214" y="713.0" name="top"/>
  <anchor x="39.68421052631579" y="713.0" name="topleft"/>
  <outline>
    <contour>
      <point x="520.7894736842106" y="0.0" type="curve"/>
      <point x="687.7894736842105" y="0.0" type="line"/>
      <point x="684.1578947368421" y="77.3157894736842"/>
      <point x="680.5263157894736" y="144.1578947368421"/>
      <point x="676.3684210526316" y="233.26315789473685" type="curve"/>
      <point x="676.3684210526316" y="474.4736842105263" type="line"/>
      <point x="681.0526315789474" y="567.2631578947369"/>
      <point x="684.1578947368421" y="634.1052631578947"/>
      <point x="687.7894736842105" y="713.0" type="curve"/>
      <point x="520.7894736842106" y="713.0" type="line"/>
      <point x="524.421052631579" y="634.1052631578947"/>
      <point x="527.0526315789474" y="567.2631578947369"/>
      <point x="531.7368421052632" y="474.4736842105263" type="curve"/>
      <point x="531.7368421052632" y="233.26315789473685" type="line"/>
      <point x="527.5789473684212" y="143.63157894736844"/>
      <point x="524.421052631579" y="76.78947368421052"/>
    </contour>
    <contour>
      <point x="68.00000000000001" y="0.0" type="curve"/>
      <point x="235.0" y="0.0" type="line"/>
      <point x="231.36842105263156" y="77.3157894736842"/>
      <point x="227.73684210526315" y="144.1578947368421"/>
      <point x="223.57894736842104" y="233.26315789473685" type="curve"/>
      <point x="223.57894736842104" y="474.4736842105263" type="line"/>
      <point x="228.26315789473682" y="567.2631578947369"/>
      <point x="231.36842105263156" y="634.1052631578947"/>
      <point x="235.0" y="713.0" type="curve"/>
      <point x="68.00000000000001" y="713.0" type="line"/>
      <point x="71.63157894736842" y="634.1052631578947"/>
      <point x="74.26315789473685" y="567.2631578947369"/>
      <point x="78.94736842105264" y="474.4736842105263" type="curve"/>
      <point x="78.94736842105264" y="233.26315789473685" type="line"/>
      <point x="74.78947368421053" y="143.63157894736844"/>
      <point x="71.63157894736842" y="76.78947368421052"/>
    </contour>
    <contour>
      <point x="181.5263157894737" y="299.10526315789474" type="line"/>
      <point x="575.7368421052631" y="299.10526315789474" type="line"/>
      <point x="575.7368421052631" y="420.10526315789474" type="line"/>
      <point x="181.5263157894737" y="420.10526315789474" type="line"/>
    </contour>
  </outline>
</glyph>
<glyph name="J" format="2">
  <advance width="316.2631578947369"/>
  <unicode hex="004A"/>
  <anchor x="159.8421052631579" y="0.0" name="bottom"/>
  <anchor x="159.8421052631579" y="713.0" name="top"/>
  <outline>
    <contour>
      <point x="20.947368421052634" y="-155.78947368421052" type="curve"/>
      <point x="152.52631578947367" y="-155.78947368421052" type="line"/>
      <point x="181.1578947368421" y="-106.42105263157896"/>
      <point x="242.05263157894737" y="10.578947368421051"/>
      <point x="242.05263157894737" y="58.15789473684211" type="curve" smooth="yes"/>
      <point x="242.05263157894737" y="142.52631578947367"/>
      <point x="234.21052631578945" y="231.4736842105263"/>
      <point x="234.21052631578945" y="320.57894736842104" type="curve"/>
      <point x="234.21052631578945" y="474.4736842105263" type="line"/>
      <point x="238.42105263157893" y="567.2631578947369"/>
      <point x="241.05263157894734" y="634.1052631578947"/>
      <point x="245.6315789473684" y="713.0" type="curve"/>
      <point x="78.63157894736842" y="713.0" type="line"/>
      <point x="82.73684210526315" y="634.1052631578947"/>
      <point x="85.36842105263158" y="567.2631578947369"/>
      <point x="89.57894736842105" y="474.4736842105263" type="curve"/>
      <point x="89.57894736842105" y="305.89473684210526" type="line"/>
      <point x="86.52631578947368" y="56.368421052631575" type="line"/>
      <point x="63.05263157894737" y="-19.47368421052632"/>
      <point x="42.0" y="-87.89473684210526"/>
    </contour>
  </outline>
</glyph>
<glyph name="K" format="2">
  <advance width="692.7894736842105"/>
  <unicode hex="004B"/>
  <anchor x="355.15789473684214" y="0.0" name="bottom"/>
  <anchor x="355.15789473684214" y="713.0" name="top"/>
  <outline>
    <contour>
      <point x="484.6842105263158" y="0.0" type="curve"/>
      <point x="683.3684210526316" y="0.0" type="line"/>
      <point x="628.4736842105264" y="65.3157894736842"/>
      <point x="541.8947368421052" y="169.3684210526316"/>
      <point x="477.63157894736844" y="246.73684210526315" type="curve"/>
      <point x="344.36842105263156" y="417.1578947368421" type="line"/>
      <point x="347.0" y="353.6842105263158" type="line"/>
      <point x="466.47368421052636" y="492.36842105263156" type="line"/>
      <point x="532.2631578947368" y="565.4736842105264"/>
      <point x="597.4736842105262" y="637.0"/>
      <point x="667.1578947368421" y="713.0" type="curve"/>
      <point x="475.7894736842105" y="713.0" type="line"/>
      <point x="423.5789473684211" y="644.578947368421"/>
      <point x="387.3157894736842" y="595.8947368421052"/>
      <point x="346.15789473684214" y="540.7368421052631" type="curve"/>
      <point x="251.26315789473682" y="427.2105263157895" type="line"/>
      <point x="210.8421052631579" y="427.2105263157895" type="line"/>
      <point x="210.8421052631579" y="313.0526315789474" type="line"/>
      <point x="252.89473684210523" y="313.0526315789474" type="line"/>
      <point x="360.15789473684214" y="174.94736842105263" type="line"/>
      <point x="398.7894736842105" y="120.73684210526316"/>
      <point x="437.89473684210526" y="65.57894736842105"/>
    </contour>
    <contour>
      <point x="68.00000000000001" y="0.0" type="curve"/>
      <point x="234.47368421052633" y="0.0" type="line"/>
      <point x="230.8421052631579" y="77.3157894736842"/>
      <point x="227.21052631578948" y="144.1578947368421"/>
      <point x="223.05263157894737" y="233.26315789473685" type="curve"/>
      <point x="223.05263157894737" y="474.4736842105263" type="line"/>
      <point x="227.73684210526315" y="567.2631578947369"/>
      <point x="230.8421052631579" y="634.1052631578947"/>
      <point x="234.47368421052633" y="713.0" type="curve"/>
      <point x="68.00000000000001" y="713.0" type="line"/>
      <point x="71.63157894736842" y="634.1052631578947"/>
      <point x="74.26315789473685" y="567.2631578947369"/>
      <point x="78.94736842105264" y="474.4736842105263" type="curve"/>
      <point x="78.94736842105264" y="233.26315789473685" type="line"/>
      <point x="74.78947368421053" y="143.63157894736844"/>
      <point x="71.63157894736842" y="76.78947368421052"/>
    </contour>
  </outline>
</glyph>
<glyph name="L" format="2">
  <advance width="572.8421052631578"/>
  <unicode hex="004C"/>
  <anchor x="307.94736842105266" y="0.0" name="bottom"/>
  <anchor x="434.63157894736844" y="358.57894736842104" name="center"/>
  <anchor x="221.4736842105263" y="713.0" name="top"/>
  <anchor x="298.5263157894737" y="498.2105263157895" name="topright"/>
  <outline>
    <contour>
      <point x="68.00000000000001" y="0.0" type="curve"/>
      <point x="235.0" y="0.0" type="line"/>
      <point x="235.0" y="22.473684210526315" type="line"/>
      <point x="231.36842105263156" y="99.78947368421052"/>
      <point x="227.73684210526315" y="166.6315789473684"/>
      <point x="223.57894736842104" y="255.73684210526315" type="curve"/>
      <point x="223.57894736842104" y="474.4736842105263" type="line"/>
      <point x="228.26315789473682" y="567.2631578947369"/>
      <point x="231.36842105263156" y="634.1052631578947"/>
      <point x="235.0" y="713.0" type="curve"/>
      <point x="68.00000000000001" y="713.0" type="line"/>
      <point x="71.63157894736842" y="634.1052631578947"/>
      <point x="74.26315789473685" y="567.2631578947369"/>
      <point x="78.94736842105264" y="474.4736842105263" type="curve"/>
      <point x="78.94736842105264" y="233.26315789473685" type="line"/>
      <point x="74.78947368421053" y="143.63157894736844"/>
      <point x="71.63157894736842" y="76.78947368421052"/>
    </contour>
    <contour>
      <point x="203.89473684210523" y="0.0" type="line"/>
      <point x="542.2105263157895" y="0.0" type="line"/>
      <point x="542.2105263157895" y="141.3157894736842" type="line"/>
      <point x="469.2631578947368" y="136.6315789473684"/>
      <point x="407.7368421052632" y="132.99999999999997"/>
      <point x="302.10526315789474" y="126.26315789473684" type="curve"/>
      <point x="203.89473684210523" y="126.26315789473684" type="line"/>
    </contour>
  </outline>
</glyph>
<glyph name="M" format="2">
  <advance width="961.0526315789473"/>
  <unicode hex="004D"/>
  <anchor x="480.2631578947368" y="0.0" name="bottom"/>
  <anchor x="480.2631578947368" y="713.0" name="top"/>
  <outline>
    <contour>
      <point x="43.89473684210526" y="0.0" type="curve"/>
      <point x="203.94736842105263" y="0.0" type="line"/>
      <point x="211.47368421052633" y="107.94736842105263"/>
      <point x="218.05263157894737" y="204.1578947368421"/>
      <point x="223.68421052631578" y="288.10526315789474" type="curve"/>
      <point x="245.78947368421052" y="469.2631578947369" type="line"/>
      <point x="255.6315789473684" y="469.2631578947369" type="line"/>
      <point x="331.2631578947368" y="273.4736842105263" type="line"/>
      <point x="362.7368421052631" y="181.15789473684214"/>
      <point x="397.5263157894737" y="79.26315789473684"/>
      <point x="424.2105263157894" y="0.0" type="curve"/>
      <point x="542.578947368421" y="0.0" type="line"/>
      <point x="569.1052631578948" y="83.05263157894737"/>
      <point x="600.9473684210527" y="179.73684210526318"/>
      <point x="631.7894736842105" y="274.42105263157896" type="curve"/>
      <point x="701.6315789473684" y="469.2631578947369" type="line"/>
      <point x="711.4736842105264" y="469.2631578947369" type="line"/>
      <point x="733.578947368421" y="288.10526315789474" type="line"/>
      <point x="739.2105263157895" y="203.68421052631578"/>
      <point x="746.3157894736843" y="106.0"/>
      <point x="753.3684210526316" y="0.0" type="curve"/>
      <point x="917.1578947368421" y="0.0" type="line"/>
      <point x="904.5263157894736" y="76.78947368421052"/>
      <point x="891.8947368421052" y="146.73684210526315"/>
      <point x="877.2105263157895" y="233.26315789473685" type="curve"/>
      <point x="847.1052631578948" y="472.4736842105263" type="line"/>
      <point x="839.2105263157895" y="559.421052631579"/>
      <point x="832.7894736842105" y="633.578947368421"/>
      <point x="825.8947368421053" y="713.0" type="curve"/>
      <point x="660.0526315789474" y="713.0" type="line"/>
      <point x="630.9473684210527" y="624.3684210526316"/>
      <point x="604.8947368421053" y="546.5263157894736"/>
      <point x="578.2631578947369" y="468.5263157894737" type="curve"/>
      <point x="488.0" y="235.0" type="line"/>
      <point x="478.2105263157894" y="235.0" type="line"/>
      <point x="385.31578947368416" y="468.5263157894737" type="line"/>
      <point x="358.1578947368421" y="547.0"/>
      <point x="331.05263157894734" y="624.8947368421053"/>
      <point x="301.42105263157896" y="713.0" type="curve"/>
      <point x="132.4736842105263" y="713.0" type="line"/>
      <point x="125.57894736842104" y="632.1052631578947"/>
      <point x="119.68421052631578" y="557.0526315789474"/>
      <point x="112.78947368421052" y="472.4736842105263" type="curve"/>
      <point x="83.26315789473685" y="233.26315789473685" type="line"/>
      <point x="68.63157894736842" y="147.3157894736842"/>
      <point x="56.47368421052632" y="75.73684210526316"/>
    </contour>
  </outline>
</glyph>
<glyph name="P" format="2">
  <advance width="645.6699029126214"/>
  <unicode hex="0050"/>
  <outline>
    <contour>
      <point x="355.82524271844665" y="257.18446601941747" type="curve"/>
      <point x="543.5533980582525" y="257.18446601941747"/>
      <point x="611.6893203883495" y="355.81553398058253"/>
      <point x="611.6893203883495" y="493.96116504854365" type="curve" smooth="yes"/>
      <point x="611.6893203883495" y="653.8834951456312"/>
      <point x="525.6699029126214" y="717.378640776699"/>
      <point x="355.52427184466023" y="717.378640776699" type="curve"/>
      <point x="233.24271844660194" y="716.9999999999999"/>
      <point x="135.3398058252427" y="713.252427184466"/>
      <point x="67.8252427184466" y="713.0" type="curve"/>
      <point x="207.97087378640776" y="597.9029126213592" type="line"/>
      <point x="345.5145631067962" y="597.9029126213592" type="line" smooth="yes"/>
      <point x="401.2330097087379" y="597.9029126213592"/>
      <point x="464.9223300970874" y="582.6407766990292"/>
      <point x="464.9223300970874" y="491.95145631067965" type="curve" smooth="yes"/>
      <point x="464.9223300970874" y="408.12621359223306"/>
      <point x="422.5825242718447" y="372.7669902912621"/>
      <point x="323.7864077669903" y="372.7669902912621" type="curve" smooth="yes"/>
      <point x="202.70873786407768" y="372.7669902912621" type="line"/>
      <point x="202.70873786407768" y="259.31067961165047" type="line"/>
      <point x="240.58252427184468" y="259.18446601941747"/>
      <point x="307.0776699029127" y="257.31067961165047"/>
    </contour>
    <contour>
      <point x="67.8252427184466" y="0.0" type="curve"/>
      <point x="232.35922330097088" y="0.0" type="line"/>
      <point x="228.98058252427188" y="77.49514563106796"/>
      <point x="224.72815533980582" y="144.11650485436894"/>
      <point x="221.2233009708738" y="233.36893203883494" type="curve"/>
      <point x="221.2233009708738" y="452.3495145631068" type="line"/>
      <point x="224.72815533980582" y="542.9805825242719"/>
      <point x="228.98058252427188" y="611.7281553398059"/>
      <point x="232.35922330097088" y="690.4757281553398" type="curve"/>
      <point x="67.8252427184466" y="713.0" type="line"/>
      <point x="71.20388349514565" y="634.252427184466"/>
      <point x="74.45631067961165" y="567.6310679611651"/>
      <point x="78.96116504854369" y="474.873786407767" type="curve"/>
      <point x="78.96116504854369" y="233.36893203883494" type="line"/>
      <point x="74.58252427184466" y="143.99029126213594"/>
      <point x="71.20388349514565" y="76.49514563106796"/>
    </contour>
  </outline>
</glyph>
<glyph name="T" format="2">
  <advance width="644.3684210526316"/>
  <unicode hex="0054"/>
  <anchor x="322.6842105263158" y="0.0" name="bottom"/>
  <anchor x="322.6842105263158" y="326.4736842105263" name="center"/>
  <anchor x="322.6842105263158" y="713.0" name="top"/>
  <outline>
    <contour>
      <point x="239.42105263157896" y="0.0" type="curve"/>
      <point x="405.89473684210526" y="0.0" type="line"/>
      <point x="402.2631578947368" y="77.3157894736842"/>
      <point x="398.6315789473684" y="144.1578947368421"/>
      <point x="394.4736842105263" y="233.26315789473685" type="curve"/>
      <point x="394.4736842105263" y="452.0" type="line"/>
      <point x="398.6315789473684" y="543.2105263157895"/>
      <point x="402.2631578947368" y="611.6315789473684"/>
      <point x="405.89473684210526" y="690.5263157894736" type="curve"/>
      <point x="405.89473684210526" y="713.0" type="line"/>
      <point x="238.94736842105263" y="713.0" type="line"/>
      <point x="238.94736842105263" y="690.5263157894736" type="line"/>
      <point x="242.57894736842107" y="611.6315789473684"/>
      <point x="246.21052631578948" y="543.2105263157895"/>
      <point x="250.3684210526316" y="452.0" type="curve"/>
      <point x="250.3684210526316" y="233.26315789473685" type="line"/>
      <point x="246.21052631578948" y="143.63157894736844"/>
      <point x="243.05263157894737" y="76.78947368421052"/>
    </contour>
    <contour>
      <point x="27.105263157894736" y="571.6842105263157" type="line"/>
      <point x="80.3157894736842" y="575.8421052631579"/>
      <point x="136.5263157894737" y="581.0"/>
      <point x="213.6315789473684" y="586.7368421052631" type="curve"/>
      <point x="274.3157894736842" y="586.7368421052631" type="line"/>
      <point x="274.3157894736842" y="713.0" type="line"/>
      <point x="27.105263157894736" y="713.0" type="line"/>
    </contour>
    <contour>
      <point x="370.05263157894734" y="586.7368421052631" type="line"/>
      <point x="430.7368421052632" y="586.7368421052631" type="line"/>
      <point x="507.8421052631579" y="581.0"/>
      <point x="564.0526315789474" y="575.8421052631578"/>
      <point x="617.2631578947369" y="571.6842105263157" type="curve"/>
      <point x="617.2631578947369" y="713.0" type="line"/>
      <point x="370.05263157894734" y="713.0" type="line"/>
    </contour>
  </outline>
</glyph>
<glyph name="V" format="2">
  <advance width="705.8947368421052"/>
  <unicode hex="0056"/>
  <anchor x="353.42105263157896" y="0.0" name="bottom"/>
  <anchor x="353.42105263157896" y="713.0" name="top"/>
  <outline>
    <contour>
      <point x="245.78947368421052" y="0.0" type="curve"/>
      <point x="459.36842105263156" y="0.0" type="line"/>
      <point x="480.0" y="73.47368421052632"/>
      <point x="503.10526315789474" y="155.4736842105263"/>
      <point x="522.7894736842105" y="225.52631578947367" type="curve"/>
      <point x="595.578947368421" y="450.0" type="line"/>
      <point x="624.4736842105264" y="525.9473684210526"/>
      <point x="662.421052631579" y="626.5263157894736"/>
      <point x="695.3157894736843" y="713.0" type="curve"/>
      <point x="512.7368421052632" y="713.0" type="line"/>
      <point x="488.21052631578954" y="617.5263157894736"/>
      <point x="461.7368421052632" y="508.89473684210526"/>
      <point x="437.6842105263158" y="415.42105263157896" type="curve"/>
      <point x="358.4736842105263" y="147.05263157894734" type="line"/>
      <point x="347.2105263157894" y="147.05263157894734" type="line"/>
      <point x="270.6842105263158" y="414.42105263157896" type="line"/>
      <point x="247.1578947368421" y="507.4736842105263"/>
      <point x="218.78947368421052" y="618.8947368421053"/>
      <point x="194.73684210526315" y="713.0" type="curve"/>
      <point x="9.578947368421053" y="713.0" type="line"/>
      <point x="43.00000000000001" y="624.8947368421052"/>
      <point x="80.84210526315789" y="525.4736842105262"/>
      <point x="109.73684210526316" y="450.0" type="curve"/>
      <point x="182.42105263157896" y="226.0" type="line"/>
      <point x="201.57894736842107" y="157.47368421052633"/>
      <point x="226.63157894736844" y="70.05263157894737"/>
    </contour>
  </outline>
</glyph>
<glyph name="W" format="2">
  <advance width="1039.5263157894738"/>
  <unicode hex="0057"/>
  <anchor x="516.3684210526316" y="0.0" name="bottom"/>
  <anchor x="516.3684210526316" y="713.0" name="top"/>
  <outline>
    <contour>
      <point x="206.5263157894737" y="0.0" type="curve"/>
      <point x="395.57894736842104" y="0.0" type="line"/>
      <point x="411.89473684210526" y="82.73684210526316"/>
      <point x="432.5263157894737" y="183.5263157894737"/>
      <point x="449.3157894736842" y="266.1578947368421" type="curve"/>
      <point x="507.05263157894734" y="506.7368421052632" type="line"/>
      <point x="518.3157894736842" y="506.7368421052632" type="line"/>
      <point x="577.578947368421" y="266.6842105263158" type="line"/>
      <point x="594.3684210526316" y="184.05263157894737"/>
      <point x="615.5263157894738" y="84.15789473684211"/>
      <point x="632.3157894736842" y="0.0" type="curve"/>
      <point x="830.8421052631578" y="0.0" type="line"/>
      <point x="846.1578947368421" y="68.05263157894737"/>
      <point x="865.8947368421052" y="154.00000000000003"/>
      <point x="882.6842105263158" y="225.47368421052633" type="curve"/>
      <point x="944.8421052631579" y="450.0" type="line"/>
      <point x="969.8421052631579" y="526.8947368421052"/>
      <point x="1002.9473684210526" y="626.5263157894736"/>
      <point x="1032.0" y="713.0" type="curve"/>
      <point x="846.2631578947369" y="713.0" type="line"/>
      <point x="828.5263157894738" y="623.1052631578947"/>
      <point x="807.9473684210526" y="516.3684210526316"/>
      <point x="790.7368421052631" y="428.5263157894737" type="curve"/>
      <point x="733.2631578947369" y="171.21052631578948" type="line"/>
      <point x="722.0" y="171.21052631578948" type="line"/>
      <point x="662.7368421052631" y="427.5263157894737" type="line"/>
      <point x="645.0" y="517.3157894736842"/>
      <point x="624.7894736842106" y="622.1578947368421"/>
      <point x="607.0526315789474" y="713.0" type="curve"/>
      <point x="431.0" y="713.0" type="line"/>
      <point x="413.68421052631584" y="623.0526315789474"/>
      <point x="393.05263157894734" y="515.421052631579"/>
      <point x="376.2631578947368" y="428.5263157894737" type="curve"/>
      <point x="318.5263157894737" y="171.21052631578948" type="line"/>
      <point x="307.2631578947368" y="171.21052631578948" type="line"/>
      <point x="250.26315789473682" y="426.5789473684211" type="line"/>
      <point x="232.578947368421" y="516.8421052631579"/>
      <point x="211.94736842105263" y="622.2105263157895"/>
      <point x="194.26315789473682" y="713.0" type="curve"/>
      <point x="8.000000000000002" y="713.0" type="line"/>
      <point x="36.57894736842105" y="626.421052631579"/>
      <point x="69.57894736842105" y="526.0000000000001"/>
      <point x="94.57894736842105" y="449.05263157894734" type="curve"/>
      <point x="155.21052631578948" y="225.0" type="line"/>
      <point x="171.00000000000003" y="156.52631578947367"/>
      <point x="190.26315789473685" y="71.52631578947368"/>
    </contour>
  </outline>
</glyph>
<glyph name="X" format="2">
  <advance width="711.1052631578947"/>
  <unicode hex="0058"/>
  <outline>
    <contour>
      <point x="19.894736842105264" y="0.0" type="curve"/>
      <point x="205.36842105263156" y="0.0" type="line"/>
      <point x="231.7894736842105" y="54.73684210526316"/>
      <point x="254.42105263157896" y="104.26315789473685"/>
      <point x="277.0" y="152.10526315789474" type="curve"/>
      <point x="339.63157894736844" y="267.63157894736844" type="line"/>
      <point x="350.89473684210526" y="267.63157894736844" type="line"/>
      <point x="417.89473684210526" y="152.57894736842104" type="line"/>
      <point x="442.4736842105263" y="105.15789473684211"/>
      <point x="469.0526315789474" y="54.21052631578947"/>
      <point x="497.94736842105266" y="0.0" type="curve"/>
      <point x="692.7894736842105" y="0.0" type="line"/>
      <point x="640.0526315789474" y="76.0"/>
      <point x="593.7894736842105" y="141.99999999999997"/>
      <point x="540.0526315789473" y="219.52631578947367" type="curve"/>
      <point x="442.94736842105266" y="375.57894736842104" type="line"/>
      <point x="442.94736842105266" y="335.94736842105266" type="line"/>
      <point x="537.6315789473683" y="503.94736842105266" type="line"/>
      <point x="574.9473684210526" y="562.0"/>
      <point x="620.7894736842105" y="633.1578947368422"/>
      <point x="672.2105263157895" y="713.0" type="curve"/>
      <point x="486.2631578947368" y="713.0" type="line"/>
      <point x="458.7368421052631" y="655.0"/>
      <point x="431.7894736842105" y="598.1578947368421"/>
      <point x="407.6842105263158" y="548.2631578947369" type="curve"/>
      <point x="355.2105263157895" y="450.8421052631579" type="line"/>
      <point x="343.94736842105266" y="450.8421052631579" type="line"/>
      <point x="289.4736842105263" y="547.7894736842105" type="line"/>
      <point x="264.84210526315786" y="596.7368421052632"/>
      <point x="236.8421052631579" y="654.1578947368422"/>
      <point x="207.3684210526316" y="713.0" type="curve"/>
      <point x="18.789473684210527" y="713.0" type="line"/>
      <point x="72.52631578947368" y="631.4210526315788"/>
      <point x="116.31578947368422" y="564.3684210526316"/>
      <point x="160.57894736842104" y="497.3157894736842" type="curve"/>
      <point x="248.21052631578948" y="349.7368421052632" type="line"/>
      <point x="248.21052631578948" y="385.1578947368421" type="line"/>
      <point x="148.73684210526318" y="206.89473684210526" type="line"/>
      <point x="102.47368421052632" y="132.73684210526315"/>
      <point x="62.26315789473684" y="68.26315789473685"/>
    </contour>
  </outline>
</glyph>
<glyph name="Y" format="2">
  <advance width="674.2631578947369"/>
  <unicode hex="0059"/>
  <anchor x="339.2105263157894" y="0.0" name="bottom"/>
  <anchor x="339.2105263157894" y="713.0" name="top"/>
  <anchor x="20.0" y="713.0" name="topleft"/>
  <outline>
    <contour>
      <point x="270.0" y="258.94736842105266" type="line"/>
      <point x="407.89473684210526" y="258.94736842105266" type="line"/>
      <point x="556.6842105263158" y="534.6842105263158" type="line"/>
      <point x="591.7368421052632" y="591.4736842105264"/>
      <point x="626.6315789473683" y="648.5263157894736"/>
      <point x="665.7894736842105" y="713.0" type="curve"/>
      <point x="479.1578947368421" y="713.0" type="line"/>
      <point x="443.68421052631584" y="626.9473684210526"/>
      <point x="425.4736842105263" y="581.8947368421052"/>
      <point x="396.7368421052631" y="515.3157894736842" type="curve"/>
      <point x="345.36842105263156" y="410.0526315789474" type="line"/>
      <point x="333.05263157894734" y="410.0526315789474" type="line"/>
      <point x="280.7894736842105" y="518.2105263157895" type="line"/>
      <point x="253.4736842105263" y="582.8947368421053"/>
      <point x="235.73684210526315" y="626.421052631579"/>
      <point x="200.26315789473682" y="713.0" type="curve"/>
      <point x="8.894736842105264" y="713.0" type="line"/>
      <point x="54.05263157894737" y="641.1052631578948"/>
      <point x="86.05263157894737" y="590.4736842105264"/>
      <point x="120.63157894736842" y="534.6842105263158" type="curve"/>
    </contour>
    <contour>
      <point x="255.94736842105266" y="0.0" type="curve"/>
      <point x="422.9473684210526" y="0.0" type="line"/>
      <point x="419.3157894736842" y="77.3157894736842"/>
      <point x="415.6842105263157" y="144.1578947368421"/>
      <point x="411.52631578947364" y="233.26315789473685" type="curve"/>
      <point x="411.52631578947364" y="380.2105263157895" type="line"/>
      <point x="266.89473684210526" y="380.2105263157895" type="line"/>
      <point x="266.89473684210526" y="233.26315789473685" type="line"/>
      <point x="262.7368421052632" y="143.63157894736844"/>
      <point x="259.57894736842104" y="76.78947368421052"/>
    </contour>
  </outline>
</glyph>
<glyph name="Z" format="2">
  <advance width="682.6842105263158"/>
  <unicode hex="005A"/>
  <anchor x="341.57894736842104" y="0.0" name="bottom"/>
  <anchor x="341.57894736842104" y="357.0" name="center"/>
  <anchor x="341.57894736842104" y="713.0" name="top"/>
  <outline>
    <contour>
      <point x="41.8421052631579" y="0.0" type="line"/>
      <point x="638.4736842105264" y="0.0" type="line"/>
      <point x="638.4736842105264" y="136.52631578947367" type="line"/>
      <point x="564.6842105263158" y="132.3684210526316"/>
      <point x="447.4736842105263" y="125.63157894736842"/>
      <point x="365.7894736842105" y="120.47368421052632" type="curve"/>
      <point x="196.52631578947367" y="120.47368421052632" type="line"/>
      <point x="209.4736842105263" y="71.3157894736842" type="line"/>
      <point x="469.1578947368421" y="403.1578947368421" type="line"/>
      <point x="526.1578947368421" y="471.7368421052632"/>
      <point x="580.578947368421" y="538.2105263157895"/>
      <point x="633.3684210526316" y="602.578947368421" type="curve"/>
      <point x="633.3684210526316" y="713.0" type="line"/>
      <point x="51.526315789473685" y="713.0" type="line"/>
      <point x="51.526315789473685" y="574.8421052631578" type="line"/>
      <point x="145.1578947368421" y="581.1052631578947"/>
      <point x="231.26315789473685" y="587.3157894736842"/>
      <point x="308.0" y="592.5263157894736" type="curve"/>
      <point x="494.1578947368421" y="592.5263157894736" type="line"/>
      <point x="474.3157894736842" y="637.8947368421053" type="line"/>
      <point x="225.63157894736844" y="315.2105263157895" type="line"/>
      <point x="167.00000000000003" y="244.4736842105263"/>
      <point x="88.21052631578947" y="149.73684210526318"/>
      <point x="41.8421052631579" y="93.26315789473685" type="curve"/>
    </contour>
  </outline>
</glyph>
<glyph name="bracketleft" format="2">
  <advance width="397.63157894736844"/>
  <unicode hex="005B"/>
  <outline>
    <contour>
      <point x="72.15789473684211" y="-121.47368421052632" type="curve"/>
      <point x="212.89473684210526" y="-121.47368421052632" type="line"/>
      <point x="212.89473684210526" y="-99.0" type="line"/>
      <point x="209.26315789473682" y="-21.684210526315788"/>
      <point x="205.6315789473684" y="45.63157894736842"/>
      <point x="201.4736842105263" y="134.73684210526315" type="curve"/>
      <point x="201.4736842105263" y="511.10526315789474" type="line"/>
      <point x="205.6315789473684" y="602.3157894736842"/>
      <point x="209.26315789473682" y="670.7368421052631"/>
      <point x="212.89473684210526" y="749.6315789473684" type="curve"/>
      <point x="212.89473684210526" y="772.1052631578947" type="line"/>
      <point x="72.15789473684211" y="772.1052631578947" type="line"/>
      <point x="75.26315789473684" y="692.1578947368421"/>
      <point x="77.36842105263158" y="626.3684210526316"/>
      <point x="81.52631578947368" y="533.578947368421" type="curve"/>
      <point x="81.52631578947368" y="111.78947368421052" type="line"/>
      <point x="77.89473684210526" y="22.68421052631579"/>
      <point x="75.26315789473684" y="-45.21052631578947"/>
    </contour>
    <contour>
      <point x="184.94736842105263" y="-121.47368421052632" type="line"/>
      <point x="376.63157894736844" y="-121.47368421052632" type="line"/>
      <point x="376.63157894736844" y="-8.894736842105269" type="line"/>
      <point x="330.2631578947369" y="-11.000000000000005"/>
      <point x="282.0" y="-13.578947368421058"/>
      <point x="225.10526315789477" y="-16.21052631578948" type="curve"/>
      <point x="184.94736842105263" y="-16.21052631578948" type="line"/>
    </contour>
    <contour>
      <point x="176.5263157894737" y="666.8421052631579" type="line"/>
      <point x="217.3684210526316" y="666.8421052631579" type="line"/>
      <point x="284.2105263157895" y="664.2105263157895"/>
      <point x="331.0526315789474" y="661.6315789473684"/>
      <point x="374.4736842105263" y="659.5263157894738" type="curve"/>
      <point x="374.4736842105263" y="772.1052631578947" type="line"/>
      <point x="176.5263157894737" y="772.1052631578947" type="line"/>
    </contour>
  </outline>
</glyph>
<glyph name="backslash" format="2">
  <advance width="462.7368421052631"/>
  <unicode hex="005C"/>
  <outline>
    <contour>
      <point x="300.89473684210526" y="0.0" type="curve"/>
      <point x="446.8421052631579" y="0.0" type="line"/>
      <point x="413.89473684210526" y="75.10526315789474"/>
      <point x="386.4736842105263" y="137.57894736842104"/>
      <point x="346.10526315789474" y="228.0" type="curve"/>
      <point x="246.78947368421052" y="476.0" type="line"/>
      <point x="212.21052631578948" y="571.4736842105264"/>
      <point x="188.99999999999997" y="636.4736842105264"/>
      <point x="161.3157894736842" y="713.0" type="curve"/>
      <point x="15.894736842105265" y="713.0" type="line"/>
      <point x="51.31578947368421" y="632.4736842105264"/>
      <point x="79.21052631578947" y="569.0"/>
      <point x="120.57894736842105" y="474.0" type="curve"/>
      <point x="218.8947368421053" y="228.0" type="line"/>
      <point x="252.00000000000003" y="136.0"/>
      <point x="274.2105263157895" y="74.0"/>
    </contour>
  </outline>
</glyph>
<glyph name="asciicircum" format="2">
  <advance width="625.7894736842105"/>
  <unicode hex="005E"/>
  <outline>
    <contour>
      <point x="458.6842105263158" y="365.0526315789474" type="curve"/>
      <point x="575.1578947368421" y="366.57894736842104" type="line"/>
      <point x="517.6315789473683" y="473.10526315789474"/>
      <point x="460.63157894736844" y="580.6315789473684"/>
      <point x="403.10526315789474" y="687.1578947368421" type="curve"/>
      <point x="222.6842105263158" y="687.1578947368421" type="line"/>
      <point x="165.1578947368421" y="580.6315789473684"/>
      <point x="108.15789473684211" y="475.10526315789474"/>
      <point x="50.631578947368425" y="368.57894736842104" type="curve"/>
      <point x="167.63157894736844" y="368.57894736842104" type="line"/>
      <point x="213.8421052631579" y="437.2105263157895"/>
      <point x="261.0526315789474" y="506.8421052631579"/>
      <point x="307.2631578947368" y="575.4736842105264" type="curve"/>
      <point x="318.5263157894737" y="575.4736842105264" type="line"/>
      <point x="365.2631578947368" y="505.3157894736842"/>
      <point x="411.94736842105266" y="435.2105263157895"/>
    </contour>
  </outline>
</glyph>
<glyph name="underscore" format="2">
  <advance width="422.1052631578947"/>
  <unicode hex="005F"/>
  <outline>
    <contour>
      <point x="-10.0" y="-156.31578947368422" type="line"/>
      <point x="56.94736842105263" y="-154.26315789473685"/>
      <point x="128.68421052631578" y="-152.21052631578948"/>
      <point x="175.26315789473685" y="-151.1578947368421" type="curve"/>
      <point x="246.8421052631579" y="-151.1578947368421" type="line"/>
      <point x="293.42105263157896" y="-152.21052631578948"/>
      <point x="365.1578947368421" y="-154.26315789473685"/>
      <point x="432.10526315789474" y="-156.31578947368422" type="curve"/>
      <point x="432.10526315789474" y="-39.05263157894737" type="line"/>
      <point x="365.1578947368421" y="-41.10526315789474"/>
      <point x="293.42105263157896" y="-43.1578947368421"/>
      <point x="246.8421052631579" y="-44.21052631578947" type="curve"/>
      <point x="175.26315789473685" y="-44.21052631578947" type="line"/>
      <point x="128.68421052631578" y="-43.1578947368421"/>
      <point x="56.94736842105263" y="-41.10526315789474"/>
      <point x="-10.0" y="-39.05263157894737" type="curve"/>
    </contour>
  </outline>
</glyph>
<glyph name="a" format="2">
  <advance width="533.0"/>
  <unicode hex="0061"/>
  <anchor x="264.126213592233" y="0.0" name="bottom"/>
  <anchor x="468.7864077669903" y="0.0" name="ogonek"/>
  <anchor x="264.126213592233" y="498.504854368932" name="top"/>
  <outline>
    <contour>
      <point x="185.4466019417476" y="-11.37864077669903" type="curve" smooth="yes"/>
      <point x="219.69902912621362" y="-11.37864077669903"/>
      <point x="285.68932038834953" y="16.38834951456311"/>
      <point x="345.0485436893204" y="61.50485436893203" type="curve"/>
      <point x="354.6796116504854" y="61.50485436893203" type="line"/>
      <point x="373.30097087378647" y="0.0" type="line"/>
      <point x="500.5339805825243" y="0.0" type="line"/>
      <point x="487.5339805825243" y="58.51456310679612"/>
      <point x="477.4077669902913" y="107.66019417475727"/>
      <point x="468.5339805825243" y="157.66990291262135" type="curve"/>
      <point x="468.5339805825243" y="211.126213592233" type="line" smooth="yes"/>
      <point x="468.5339805825243" y="250.11650485436894"/>
      <point x="471.6601941747573" y="301.49514563106794"/>
      <point x="471.6601941747573" y="333.873786407767" type="curve" smooth="yes"/>
      <point x="471.6601941747573" y="458.757281553398"/>
      <point x="388.66019417475735" y="511.00970873786406"/>
      <point x="273.1359223300971" y="511.00970873786406" type="curve" smooth="yes"/>
      <point x="240.64077669902912" y="511.00970873786406"/>
      <point x="109.22330097087378" y="487.883495145631"/>
      <point x="61.71844660194175" y="477.75728155339806" type="curve"/>
      <point x="67.09708737864078" y="356.4077669902913" type="line"/>
      <point x="132.83495145631065" y="376.15533980582524"/>
      <point x="226.98058252427182" y="402.7864077669903"/>
      <point x="243.2233009708738" y="402.7864077669903" type="curve" smooth="yes"/>
      <point x="299.9611650485437" y="402.7864077669903"/>
      <point x="346.93203883495147" y="382.6699029126213"/>
      <point x="344.18446601941747" y="317.6116504854369" type="curve"/>
      <point x="202.20388349514565" y="296.2330097087378" type="line" smooth="yes"/>
      <point x="125.7378640776699" y="284.4854368932039"/>
      <point x="39.59223300970874" y="248.36893203883494"/>
      <point x="39.59223300970874" y="136.48543689320388" type="curve" smooth="yes"/>
      <point x="39.59223300970874" y="43.262135922330096"/>
      <point x="100.6893203883495" y="-11.37864077669903"/>
    </contour>
    <contour>
      <point x="233.5242718446602" y="90.96116504854368" type="curve" smooth="yes"/>
      <point x="200.3009708737864" y="90.96116504854368"/>
      <point x="170.32038834951456" y="106.20388349514563"/>
      <point x="170.32038834951456" y="148.4271844660194" type="curve" smooth="yes"/>
      <point x="170.32038834951456" y="187.28155339805826"/>
      <point x="194.3106796116505" y="212.1359223300971"/>
      <point x="235.5242718446602" y="219.8834951456311" type="curve" smooth="yes"/>
      <point x="309.07766990291265" y="233.25242718446603"/>
      <point x="327.56310679611653" y="238.37864077669903"/>
      <point x="340.80582524271847" y="247.37864077669903" type="curve"/>
      <point x="340.80582524271847" y="154.5339805825243" type="line"/>
      <point x="304.9611650485437" y="122.31067961165049"/>
      <point x="248.13592233009712" y="90.96116504854368"/>
    </contour>
  </outline>
</glyph>
<glyph name="b" format="2">
  <advance width="594.2105263157895"/>
  <unicode hex="0062"/>
  <outline>
    <contour>
      <point x="350.6842105263158" y="-12.68421052631579" type="curve" smooth="yes"/>
      <point x="488.7894736842105" y="-12.68421052631579"/>
      <point x="554.3157894736842" y="111.05263157894737"/>
      <point x="554.3157894736842" y="250.05263157894737" type="curve" smooth="yes"/>
      <point x="554.3157894736842" y="398.10526315789474"/>
      <point x="482.4210526315789" y="511.36842105263156"/>
      <point x="349.2105263157894" y="511.36842105263156" type="curve" smooth="yes"/>
      <point x="308.1578947368421" y="511.36842105263156"/>
      <point x="255.9473684210526" y="479.7894736842106"/>
      <point x="212.6315789473684" y="444.7368421052631" type="curve"/>
      <point x="201.3684210526316" y="444.7368421052631" type="line"/>
      <point x="201.3684210526316" y="493.4736842105263" type="line"/>
      <point x="206.57894736842107" y="584.2631578947369"/>
      <point x="211.26315789473685" y="666.9473684210526"/>
      <point x="215.42105263157896" y="746.3157894736842" type="curve"/>
      <point x="49.05263157894737" y="730.578947368421" type="line"/>
      <point x="56.8421052631579" y="652.7894736842105"/>
      <point x="64.10526315789474" y="575.3157894736842"/>
      <point x="70.31578947368422" y="493.4736842105263" type="curve"/>
      <point x="70.31578947368422" y="216.78947368421052" type="line"/>
      <point x="66.15789473684211" y="134.21052631578948"/>
      <point x="63.526315789473685" y="72.36842105263158"/>
      <point x="59.89473684210527" y="0.0" type="curve"/>
      <point x="173.1578947368421" y="0.0" type="line"/>
      <point x="187.21052631578948" y="61.00000000000001" type="line"/>
      <point x="196.89473684210526" y="61.00000000000001" type="line"/>
      <point x="253.73684210526318" y="14.789473684210524"/>
      <point x="309.5263157894737" y="-12.68421052631579"/>
    </contour>
    <contour>
      <point x="302.7894736842105" y="99.84210526315789" type="curve"/>
      <point x="270.42105263157896" y="102.36842105263158"/>
      <point x="229.3157894736842" y="128.4736842105263"/>
      <point x="201.3684210526316" y="158.63157894736844" type="curve"/>
      <point x="201.3684210526316" y="346.10526315789474" type="line"/>
      <point x="234.05263157894734" y="377.3157894736842"/>
      <point x="274.6315789473684" y="395.21052631578954"/>
      <point x="301.84210526315786" y="397.2631578947369" type="curve"/>
      <point x="379.6842105263158" y="394.2631578947369"/>
      <point x="420.1578947368421" y="329.89473684210526"/>
      <point x="420.1578947368421" y="249.0" type="curve" smooth="yes"/>
      <point x="420.1578947368421" y="172.05263157894737"/>
      <point x="382.57894736842104" y="102.84210526315789"/>
    </contour>
  </outline>
</glyph>
<glyph name="d" format="2">
  <advance width="583.578947368421"/>
  <unicode hex="0064"/>
  <anchor x="314.42105263157896" y="0.0" name="bottom"/>
  <anchor x="292.6842105263158" y="249.10526315789474" name="center"/>
  <anchor x="314.42105263157896" y="728.2631578947369" name="top"/>
  <anchor x="561.8421052631579" y="498.2105263157895" name="topright"/>
  <outline>
    <contour>
      <point x="243.5263157894737" y="-12.68421052631579" type="curve" smooth="yes"/>
      <point x="284.6842105263158" y="-12.68421052631579"/>
      <point x="338.89473684210526" y="14.263157894736844"/>
      <point x="394.6842105263158" y="60.99999999999999" type="curve"/>
      <point x="404.36842105263156" y="60.99999999999999" type="line"/>
      <point x="413.2105263157895" y="0.0" type="line"/>
      <point x="534.7894736842105" y="0.0" type="line"/>
      <point x="531.157894736842" y="72.36842105263158"/>
      <point x="528.0526315789473" y="134.21052631578948"/>
      <point x="523.8947368421052" y="216.78947368421052" type="curve"/>
      <point x="523.8947368421052" y="493.4736842105263" type="line"/>
      <point x="529.1052631578947" y="584.2631578947369"/>
      <point x="533.7894736842104" y="666.9473684210526"/>
      <point x="537.9473684210526" y="746.3157894736842" type="curve"/>
      <point x="371.5789473684211" y="730.578947368421" type="line"/>
      <point x="379.3684210526316" y="652.7894736842105"/>
      <point x="386.63157894736844" y="575.3157894736842"/>
      <point x="392.8421052631579" y="493.4736842105263" type="curve"/>
      <point x="392.8421052631579" y="444.7368421052631" type="line"/>
      <point x="381.57894736842104" y="444.7368421052631" type="line"/>
      <point x="338.2631578947368" y="479.7894736842105"/>
      <point x="286.0526315789474" y="511.36842105263156"/>
      <point x="245.0" y="511.36842105263156" type="curve" smooth="yes"/>
      <point x="111.78947368421052" y="511.36842105263156"/>
      <point x="39.89473684210526" y="398.10526315789474"/>
      <point x="39.89473684210526" y="250.05263157894737" type="curve" smooth="yes"/>
      <point x="39.89473684210526" y="111.05263157894737"/>
      <point x="105.42105263157895" y="-12.68421052631579"/>
    </contour>
    <contour>
      <point x="291.42105263157896" y="99.84210526315789" type="curve"/>
      <point x="211.6315789473684" y="102.84210526315789"/>
      <point x="174.05263157894737" y="172.05263157894737"/>
      <point x="174.05263157894737" y="249.0" type="curve" smooth="yes"/>
      <point x="174.05263157894737" y="329.89473684210526"/>
      <point x="214.5263157894737" y="394.2631578947369"/>
      <point x="292.36842105263156" y="397.2631578947369" type="curve"/>
      <point x="319.57894736842104" y="395.21052631578954"/>
      <point x="360.1578947368421" y="377.3157894736842"/>
      <point x="392.8421052631579" y="346.10526315789474" type="curve"/>
      <point x="392.8421052631579" y="158.63157894736844" type="line"/>
      <point x="364.8947368421052" y="128.4736842105263"/>
      <point x="323.7894736842105" y="102.36842105263158"/>
    </contour>
  </outline>
</glyph>
<glyph name="e" format="2">
  <advance width="526.873786407767"/>
  <unicode hex="0065"/>
  <anchor x="280.99029126213594" y="0.0" name="bottom"/>
  <anchor x="406.6699029126214" y="0.0" name="ogonek"/>
  <anchor x="276.62135922330094" y="498.504854368932" name="top"/>
  <outline>
    <contour>
      <point x="311.25242718446606" y="-12.504854368932039" type="curve" smooth="yes"/>
      <point x="351.00970873786406" y="-12.504854368932039"/>
      <point x="433.0194174757281" y="4.116504854368932"/>
      <point x="481.5242718446602" y="18.990291262135923" type="curve"/>
      <point x="477.1456310679612" y="131.83495145631065" type="line"/>
      <point x="419.7669902912622" y="113.59223300970874"/>
      <point x="349.01941747572806" y="96.59223300970874"/>
      <point x="326.2718446601942" y="96.59223300970874" type="curve" smooth="yes"/>
      <point x="218.80582524271844" y="96.59223300970874"/>
      <point x="169.20388349514565" y="153.4271844660194"/>
      <point x="169.20388349514565" y="248.873786407767" type="curve"/>
      <point x="169.20388349514565" y="264.7669902912621" type="line"/>
      <point x="169.20388349514565" y="350.73786407766994"/>
      <point x="214.17475728155338" y="409.6990291262136"/>
      <point x="278.495145631068" y="413.6990291262136" type="curve"/>
      <point x="331.95145631067965" y="410.8252427184466"/>
      <point x="371.79611650485435" y="370.46601941747576"/>
      <point x="371.79611650485435" y="298.378640776699" type="curve" smooth="yes"/>
      <point x="371.79611650485435" y="289.63106796116506"/>
      <point x="371.79611650485435" y="280.88349514563106"/>
      <point x="370.79611650485435" y="272.00970873786406" type="curve"/>
      <point x="486.1456310679612" y="226.7378640776699" type="line"/>
      <point x="489.1456310679612" y="246.8640776699029"/>
      <point x="490.2718446601942" y="265.99029126213594"/>
      <point x="490.2718446601942" y="292.368932038835" type="curve" smooth="yes"/>
      <point x="490.2718446601942" y="438.5145631067961"/>
      <point x="410.5145631067961" y="511.00970873786406"/>
      <point x="277.368932038835" y="511.00970873786406" type="curve" smooth="yes"/>
      <point x="122.2135922330097" y="511.00970873786406"/>
      <point x="38.970873786407765" y="403.63106796116506"/>
      <point x="38.970873786407765" y="251.0" type="curve" smooth="yes"/>
      <point x="38.970873786407765" y="97.49514563106796"/>
      <point x="122.2233009708738" y="-12.504854368932039"/>
    </contour>
    <contour>
      <point x="90.51456310679612" y="226.7378640776699" type="line"/>
      <point x="486.1456310679612" y="226.7378640776699" type="line"/>
      <point x="486.1456310679612" y="284.0194174757282" type="line"/>
      <point x="408.9514563106796" y="313.49514563106794" type="line"/>
      <point x="90.51456310679612" y="307.8640776699029" type="line"/>
    </contour>
  </outline>
</glyph>
<glyph name="g" format="2">
  <advance width="549.7669902912621"/>
  <unicode hex="0067"/>
  <anchor x="274.13592233009706" y="-192.0" name="bottom"/>
  <anchor x="274.13592233009706" y="498.504854368932" name="top"/>
  <outline>
    <contour>
      <point x="240.11650485436894" y="-204.252427184466" type="curve" smooth="yes"/>
      <point x="366.7669902912621" y="-204.252427184466"/>
      <point x="513.6699029126213" y="-151.88349514563106"/>
      <point x="513.6699029126213" y="-20.71844660194175" type="curve" smooth="yes"/>
      <point x="513.6699029126213" y="74.5631067961165"/>
      <point x="441.7669902912621" y="103.18446601941747"/>
      <point x="311.9126213592233" y="103.18446601941747" type="curve" smooth="yes"/>
      <point x="291.2912621359223" y="103.18446601941747" type="line" smooth="yes"/>
      <point x="229.57281553398062" y="103.18446601941747"/>
      <point x="203.70873786407768" y="108.80582524271844"/>
      <point x="203.70873786407768" y="129.92233009708738" type="curve" smooth="yes"/>
      <point x="203.70873786407768" y="149.66990291262135"/>
      <point x="232.19417475728156" y="157.29126213592232"/>
      <point x="291.54368932038835" y="170.53398058252426" type="curve" smooth="yes"/>
      <point x="383.90291262135923" y="190.9029126213592"/>
      <point x="453.4174757281553" y="239.76699029126215"/>
      <point x="453.4174757281553" y="339.126213592233" type="curve" smooth="yes"/>
      <point x="453.4174757281553" y="394.99029126213594"/>
      <point x="432.30097087378635" y="439.1067961165049"/>
      <point x="385.33009708737865" y="467.1067961165048" type="curve"/>
      <point x="350.30097087378635" y="419.43689320388347" type="line"/>
      <point x="410.2912621359223" y="410.93203883495147"/>
      <point x="467.02912621359224" y="404.1747572815534"/>
      <point x="530.2718446601941" y="395.2912621359223" type="curve"/>
      <point x="530.2718446601941" y="499.88349514563106" type="line"/>
      <point x="388.5533980582524" y="499.88349514563106" type="line" smooth="yes"/>
      <point x="324.15533980582524" y="499.88349514563106"/>
      <point x="299.6504854368932" y="511.00970873786406"/>
      <point x="246.0097087378641" y="511.00970873786406" type="curve" smooth="yes"/>
      <point x="108.83495145631068" y="511.00970873786406"/>
      <point x="38.09708737864078" y="441.378640776699"/>
      <point x="38.09708737864078" y="343.7281553398058" type="curve" smooth="yes"/>
      <point x="38.09708737864078" y="276.5145631067961"/>
      <point x="99.44660194174757" y="228.76699029126215"/>
      <point x="152.71844660194174" y="193.00000000000003" type="curve"/>
      <point x="152.71844660194174" y="184.36893203883494" type="line"/>
      <point x="101.34951456310678" y="163.12621359223303"/>
      <point x="83.09708737864077" y="133.24271844660194"/>
      <point x="83.09708737864077" y="100.24271844660194" type="curve" smooth="yes"/>
      <point x="83.09708737864077" y="53.873786407766985"/>
      <point x="118.71844660194174" y="33.6116504854369"/>
      <point x="138.61165048543688" y="26.737864077669904" type="curve"/>
      <point x="138.61165048543688" y="17.233009708737868" type="line"/>
      <point x="94.33009708737865" y="-6.53398058252427"/>
      <point x="44.980582524271846" y="-44.77669902912621"/>
      <point x="44.980582524271846" y="-88.63106796116506" type="curve" smooth="yes"/>
      <point x="44.980582524271846" y="-147.1359223300971"/>
      <point x="90.48543689320387" y="-204.252427184466"/>
    </contour>
    <contour>
      <point x="262.1456310679612" y="-108.07766990291263" type="curve"/>
      <point x="191.93203883495147" y="-105.95145631067962"/>
      <point x="160.5631067961165" y="-82.83495145631066"/>
      <point x="160.5631067961165" y="-57.728155339805824" type="curve" smooth="yes"/>
      <point x="160.5631067961165" y="-38.99029126213592"/>
      <point x="213.0388349514563" y="-13.757281553398059"/>
      <point x="245.01941747572812" y="-0.019417475728154443" type="curve"/>
      <point x="273.86407766990294" y="-0.019417475728154443" type="line" smooth="yes"/>
      <point x="363.05825242718447" y="-0.019417475728154443"/>
      <point x="390.6796116504854" y="-15.514563106796116"/>
      <point x="390.6796116504854" y="-43.495145631067956" type="curve" smooth="yes"/>
      <point x="390.6796116504854" y="-72.47572815533981"/>
      <point x="339.20388349514565" y="-101.33009708737865"/>
    </contour>
    <contour>
      <point x="238.51456310679612" y="248.29126213592232" type="curve"/>
      <point x="200.41747572815538" y="272.6504854368932"/>
      <point x="158.70873786407768" y="304.252427184466"/>
      <point x="158.70873786407768" y="333.22330097087377" type="curve" smooth="yes"/>
      <point x="158.70873786407768" y="378.93203883495147"/>
      <point x="199.66990291262135" y="402.41747572815535"/>
      <point x="244.0097087378641" y="405.41747572815535" type="curve"/>
      <point x="290.73786407766994" y="402.54368932038835"/>
      <point x="335.45631067961165" y="380.93203883495147"/>
      <point x="335.45631067961165" y="328.1067961165049" type="curve" smooth="yes"/>
      <point x="335.45631067961165" y="276.65048543689323"/>
      <point x="278.61165048543694" y="257.40776699029124"/>
    </contour>
  </outline>
</glyph>
<glyph name="h" format="2">
  <advance width="583.7894736842106"/>
  <unicode hex="0068"/>
  <guideline x="128.31578947368422" y="737.3157894736842" angle="4.470799999999997"/>
  <anchor x="295.84210526315786" y="0.0" name="bottom"/>
  <anchor x="295.84210526315786" y="409.0" name="center"/>
  <anchor x="272.5263157894737" y="728.2631578947369" name="top"/>
  <outline>
    <contour>
      <point x="59.89473684210527" y="0.0" type="curve"/>
      <point x="212.26315789473685" y="0.0" type="line"/>
      <point x="208.63157894736844" y="71.84210526315789"/>
      <point x="205.0" y="134.21052631578948"/>
      <point x="201.3684210526316" y="209.94736842105263" type="curve"/>
      <point x="201.3684210526316" y="319.4210526315789" type="line"/>
      <point x="239.89473684210526" y="358.8947368421053"/>
      <point x="291.47368421052636" y="390.9473684210526"/>
      <point x="314.4736842105263" y="390.9473684210526" type="curve" smooth="yes"/>
      <point x="371.1578947368421" y="390.9473684210526"/>
      <point x="389.57894736842104" y="354.10526315789474"/>
      <point x="389.57894736842104" y="279.6842105263158" type="curve"/>
      <point x="389.57894736842104" y="209.94736842105263" type="line"/>
      <point x="386.4736842105263" y="134.21052631578948"/>
      <point x="383.8421052631579" y="71.84210526315789"/>
      <point x="380.7368421052632" y="0.0" type="curve"/>
      <point x="532.0526315789474" y="0.0" type="line"/>
      <point x="528.4210526315791" y="71.84210526315789"/>
      <point x="524.7894736842105" y="134.21052631578948"/>
      <point x="520.6315789473684" y="216.78947368421052" type="curve"/>
      <point x="520.6315789473684" y="249.6315789473684"/>
      <point x="523.7368421052632" y="290.36842105263156"/>
      <point x="523.7368421052632" y="333.89473684210526" type="curve" smooth="yes"/>
      <point x="523.7368421052632" y="451.05263157894734"/>
      <point x="471.7368421052631" y="511.36842105263156"/>
      <point x="368.6315789473684" y="511.36842105263156" type="curve" smooth="yes"/>
      <point x="324.42105263157896" y="511.36842105263156"/>
      <point x="257.84210526315786" y="464.36842105263156"/>
      <point x="213.1578947368421" y="424.2631578947369" type="curve"/>
      <point x="201.3684210526316" y="424.2631578947369" type="line"/>
      <point x="201.3684210526316" y="493.4736842105263" type="line"/>
      <point x="206.57894736842107" y="584.2631578947369"/>
      <point x="211.26315789473685" y="666.9473684210527"/>
      <point x="215.42105263157896" y="746.3157894736842" type="curve"/>
      <point x="49.05263157894737" y="730.578947368421" type="line"/>
      <point x="56.8421052631579" y="652.7894736842105"/>
      <point x="64.10526315789474" y="575.3157894736842"/>
      <point x="70.31578947368422" y="493.4736842105263" type="curve"/>
      <point x="70.31578947368422" y="216.78947368421052" type="line"/>
      <point x="66.15789473684211" y="134.21052631578948"/>
      <point x="63.526315789473685" y="72.36842105263158"/>
    </contour>
  </outline>
</glyph>
<glyph name="k" format="2">
  <advance width="569.1578947368421"/>
  <unicode hex="006B"/>
  <anchor x="286.9473684210526" y="0.0" name="bottom"/>
  <anchor x="286.9473684210526" y="728.2631578947369" name="top"/>
  <outline>
    <contour>
      <point x="382.2631578947369" y="0.0" type="curve"/>
      <point x="564.1052631578948" y="0.0" type="line"/>
      <point x="508.89473684210526" y="60.1578947368421"/>
      <point x="454.1052631578947" y="120.36842105263158"/>
      <point x="398.8947368421052" y="180.52631578947367" type="curve"/>
      <point x="306.7894736842105" y="291.63157894736844" type="line"/>
      <point x="312.57894736842104" y="232.6315789473684" type="line"/>
      <point x="387.4736842105263" y="319.8421052631579" type="line"/>
      <point x="441.7368421052632" y="379.4736842105263"/>
      <point x="494.10526315789474" y="438.10526315789474"/>
      <point x="549.3684210526316" y="498.2105263157895" type="curve"/>
      <point x="377.42105263157896" y="498.2105263157895" type="line"/>
      <point x="345.63157894736844" y="453.94736842105266"/>
      <point x="313.89473684210526" y="409.7368421052632"/>
      <point x="282.1052631578947" y="365.4736842105263" type="curve"/>
      <point x="224.89473684210526" y="293.36842105263156" type="line"/>
      <point x="189.6315789473684" y="293.36842105263156" type="line"/>
      <point x="189.6315789473684" y="205.3684210526316" type="line"/>
      <point x="221.57894736842107" y="205.3684210526316" type="line"/>
      <point x="287.7368421052631" y="126.47368421052632" type="line"/>
      <point x="319.4210526315789" y="84.3157894736842"/>
      <point x="351.1052631578947" y="42.1578947368421"/>
    </contour>
    <contour>
      <point x="59.89473684210527" y="0.0" type="curve"/>
      <point x="212.26315789473685" y="0.0" type="line"/>
      <point x="208.63157894736844" y="65.52631578947368"/>
      <point x="205.0" y="122.63157894736842"/>
      <point x="201.3684210526316" y="192.05263157894737" type="curve"/>
      <point x="201.3684210526316" y="493.4736842105263" type="line"/>
      <point x="206.57894736842107" y="584.2631578947369"/>
      <point x="211.26315789473685" y="666.9473684210527"/>
      <point x="215.42105263157896" y="746.3157894736842" type="curve"/>
      <point x="49.05263157894737" y="730.578947368421" type="line"/>
      <point x="56.8421052631579" y="652.7894736842105"/>
      <point x="64.10526315789474" y="575.3157894736842"/>
      <point x="70.31578947368422" y="493.4736842105263" type="curve"/>
      <point x="70.31578947368422" y="216.78947368421052" type="line"/>
      <point x="66.15789473684211" y="134.21052631578948"/>
      <point x="63.526315789473685" y="72.36842105263158"/>
    </contour>
  </outline>
</glyph>
<glyph name="m" format="2">
  <advance width="884.3684210526316"/>
  <unicode hex="006D"/>
  <anchor x="449.42105263157896" y="0.0" name="bottom"/>
  <anchor x="449.42105263157896" y="498.2105263157895" name="top"/>
  <outline>
    <contour>
      <point x="64.8421052631579" y="0.0" type="curve"/>
      <point x="217.21052631578948" y="0.0" type="line"/>
      <point x="213.57894736842107" y="71.84210526315789"/>
      <point x="209.94736842105263" y="134.21052631578948"/>
      <point x="206.31578947368422" y="209.94736842105263" type="curve"/>
      <point x="206.31578947368422" y="319.4210526315789" type="line"/>
      <point x="244.8421052631579" y="358.89473684210526"/>
      <point x="290.6315789473684" y="390.9473684210526"/>
      <point x="313.6842105263158" y="390.9473684210526" type="curve" smooth="yes"/>
      <point x="366.42105263157896" y="390.9473684210526"/>
      <point x="383.89473684210526" y="354.10526315789474"/>
      <point x="383.89473684210526" y="279.6842105263158" type="curve"/>
      <point x="383.89473684210526" y="209.94736842105263" type="line"/>
      <point x="380.7894736842105" y="134.21052631578948"/>
      <point x="378.15789473684214" y="71.84210526315789"/>
      <point x="375.05263157894734" y="0.0" type="curve"/>
      <point x="526.3684210526316" y="0.0" type="line"/>
      <point x="522.7368421052632" y="71.84210526315789"/>
      <point x="519.1052631578947" y="134.21052631578948"/>
      <point x="514.9473684210526" y="216.78947368421052" type="curve"/>
      <point x="514.9473684210526" y="249.6315789473684"/>
      <point x="518.0526315789474" y="290.36842105263156"/>
      <point x="518.0526315789474" y="333.89473684210526" type="curve" smooth="yes"/>
      <point x="518.0526315789474" y="356.57894736842104"/>
      <point x="516.0" y="377.2631578947368"/>
      <point x="511.94736842105266" y="395.84210526315786" type="curve"/>
      <point x="502.0" y="397.7368421052631" type="line"/>
      <point x="486.3157894736842" y="473.57894736842104"/>
      <point x="440.7368421052632" y="511.36842105263156"/>
      <point x="367.7894736842105" y="511.36842105263156" type="curve" smooth="yes"/>
      <point x="321.4736842105263" y="511.36842105263156"/>
      <point x="253.8421052631579" y="462.78947368421046"/>
      <point x="203.3684210526316" y="421.1052631578947" type="curve"/>
      <point x="191.57894736842104" y="421.1052631578947" type="line"/>
      <point x="183.47368421052633" y="504.89473684210526" type="line"/>
      <point x="55.73684210526316" y="498.2105263157895" type="line"/>
      <point x="62.94736842105264" y="430.36842105263156"/>
      <point x="69.57894736842105" y="364.7368421052632"/>
      <point x="75.26315789473685" y="300.42105263157896" type="curve"/>
      <point x="75.26315789473685" y="216.78947368421052" type="line"/>
      <point x="71.10526315789474" y="134.21052631578948"/>
      <point x="68.47368421052632" y="72.36842105263158"/>
    </contour>
    <contour>
      <point x="681.3157894736843" y="0.0" type="curve"/>
      <point x="832.6315789473683" y="0.0" type="line"/>
      <point x="829.0" y="71.84210526315789"/>
      <point x="825.3684210526314" y="134.21052631578948"/>
      <point x="821.2105263157894" y="216.78947368421052" type="curve"/>
      <point x="821.2105263157894" y="249.6315789473684"/>
      <point x="824.3157894736842" y="290.36842105263156"/>
      <point x="824.3157894736842" y="333.89473684210526" type="curve" smooth="yes"/>
      <point x="824.3157894736842" y="451.05263157894734"/>
      <point x="772.3157894736843" y="511.36842105263156"/>
      <point x="674.0526315789473" y="511.36842105263156" type="curve" smooth="yes"/>
      <point x="627.2105263157894" y="511.36842105263156"/>
      <point x="558.5263157894736" y="463.2105263157895"/>
      <point x="506.1052631578947" y="418.10526315789474" type="curve"/>
      <point x="493.2631578947368" y="418.10526315789474" type="line"/>
      <point x="512.0526315789473" y="319.4210526315789" type="line"/>
      <point x="550.5789473684212" y="358.8947368421053"/>
      <point x="596.8947368421052" y="390.9473684210526"/>
      <point x="619.9473684210526" y="390.9473684210526" type="curve" smooth="yes"/>
      <point x="672.6842105263158" y="390.9473684210526"/>
      <point x="690.1578947368421" y="354.10526315789474"/>
      <point x="690.1578947368421" y="279.6842105263158" type="curve"/>
      <point x="690.1578947368421" y="209.94736842105263" type="line"/>
      <point x="687.0526315789474" y="134.21052631578948"/>
      <point x="684.421052631579" y="71.84210526315789"/>
    </contour>
  </outline>
</glyph>
<glyph name="n" format="2">
  <advance width="588.7368421052632"/>
  <unicode hex="006E"/>
  <anchor x="296.63157894736844" y="0.0" name="bottom"/>
  <anchor x="296.63157894736844" y="498.2105263157895" name="top"/>
  <outline>
    <contour>
      <point x="64.8421052631579" y="0.0" type="curve"/>
      <point x="217.21052631578948" y="0.0" type="line"/>
      <point x="213.57894736842107" y="71.84210526315789"/>
      <point x="209.94736842105263" y="134.21052631578948"/>
      <point x="206.31578947368422" y="209.94736842105263" type="curve"/>
      <point x="206.31578947368422" y="319.4210526315789" type="line"/>
      <point x="244.84210526315792" y="358.8947368421053"/>
      <point x="296.42105263157896" y="390.9473684210526"/>
      <point x="319.42105263157896" y="390.9473684210526" type="curve" smooth="yes"/>
      <point x="376.10526315789474" y="390.9473684210526"/>
      <point x="394.5263157894737" y="354.10526315789474"/>
      <point x="394.5263157894737" y="279.6842105263158" type="curve"/>
      <point x="394.5263157894737" y="209.94736842105263" type="line"/>
      <point x="391.42105263157896" y="134.21052631578948"/>
      <point x="388.7894736842106" y="71.84210526315789"/>
      <point x="385.6842105263158" y="0.0" type="curve"/>
      <point x="537.0" y="0.0" type="line"/>
      <point x="533.3684210526317" y="71.84210526315789"/>
      <point x="529.7368421052631" y="134.21052631578948"/>
      <point x="525.578947368421" y="216.78947368421052" type="curve"/>
      <point x="525.578947368421" y="249.6315789473684"/>
      <point x="528.6842105263158" y="290.36842105263156"/>
      <point x="528.6842105263158" y="333.89473684210526" type="curve" smooth="yes"/>
      <point x="528.6842105263158" y="451.05263157894734"/>
      <point x="476.6842105263158" y="511.36842105263156"/>
      <point x="373.57894736842104" y="511.36842105263156" type="curve" smooth="yes"/>
      <point x="326.2105263157895" y="511.36842105263156"/>
      <point x="253.8421052631579" y="462.78947368421046"/>
      <point x="203.3684210526316" y="421.10526315789474" type="curve"/>
      <point x="191.57894736842104" y="421.10526315789474" type="line"/>
      <point x="183.47368421052633" y="504.89473684210526" type="line"/>
      <point x="55.73684210526316" y="498.2105263157895" type="line"/>
      <point x="62.94736842105264" y="430.36842105263156"/>
      <point x="69.57894736842105" y="364.7368421052632"/>
      <point x="75.26315789473685" y="300.42105263157896" type="curve"/>
      <point x="75.26315789473685" y="216.78947368421052" type="line"/>
      <point x="71.10526315789474" y="134.21052631578948"/>
      <point x="68.47368421052632" y="72.36842105263158"/>
    </contour>
  </outline>
</glyph>
<glyph name="p" format="2">
  <advance width="599.1578947368421"/>
  <unicode hex="0070"/>
  <outline>
    <contour>
      <point x="64.36842105263159" y="-196.10526315789474" type="curve"/>
      <point x="219.8421052631579" y="-192.0" type="line"/>
      <point x="215.1578947368421" y="-120.15789473684211"/>
      <point x="211.5263157894737" y="-57.78947368421053"/>
      <point x="206.31578947368422" y="17.94736842105263" type="curve"/>
      <point x="206.31578947368422" y="54.1578947368421" type="line"/>
      <point x="214.94736842105263" y="54.1578947368421" type="line"/>
      <point x="266.52631578947364" y="12.684210526315791"/>
      <point x="317.6315789473684" y="-12.68421052631579"/>
      <point x="355.63157894736844" y="-12.68421052631579" type="curve" smooth="yes"/>
      <point x="493.7368421052632" y="-12.68421052631579"/>
      <point x="559.2631578947368" y="111.05263157894737"/>
      <point x="559.2631578947368" y="250.05263157894737" type="curve" smooth="yes"/>
      <point x="559.2631578947368" y="398.10526315789474"/>
      <point x="487.36842105263156" y="511.36842105263156"/>
      <point x="354.1578947368421" y="511.36842105263156" type="curve" smooth="yes"/>
      <point x="311.0" y="511.36842105263156"/>
      <point x="253.1052631578947" y="476.1578947368421"/>
      <point x="206.10526315789474" y="436.42105263157896" type="curve"/>
      <point x="194.8421052631579" y="436.42105263157896" type="line"/>
      <point x="187.68421052631578" y="504.89473684210526" type="line"/>
      <point x="55.73684210526316" y="498.2105263157895" type="line"/>
      <point x="62.94736842105264" y="430.36842105263156"/>
      <point x="69.57894736842105" y="364.7368421052632"/>
      <point x="75.26315789473685" y="300.42105263157896" type="curve"/>
      <point x="75.26315789473685" y="24.789473684210527" type="line"/>
      <point x="71.10526315789474" y="-57.78947368421053"/>
      <point x="68.0" y="-124.26315789473684"/>
    </contour>
    <contour>
      <point x="307.7368421052632" y="99.84210526315789" type="curve"/>
      <point x="275.36842105263156" y="102.36842105263158"/>
      <point x="234.26315789473682" y="128.4736842105263"/>
      <point x="206.31578947368422" y="158.63157894736844" type="curve"/>
      <point x="206.31578947368422" y="346.10526315789474" type="line"/>
      <point x="238.99999999999997" y="377.3157894736842"/>
      <point x="279.57894736842104" y="395.21052631578954"/>
      <point x="306.7894736842105" y="397.2631578947369" type="curve"/>
      <point x="384.63157894736844" y="394.2631578947369"/>
      <point x="425.10526315789474" y="329.89473684210526"/>
      <point x="425.10526315789474" y="249.0" type="curve" smooth="yes"/>
      <point x="425.10526315789474" y="172.05263157894737"/>
      <point x="387.5263157894737" y="102.84210526315789"/>
    </contour>
  </outline>
</glyph>
<glyph name="q" format="2">
  <advance width="588.1052631578948"/>
  <unicode hex="0071"/>
  <outline>
    <contour>
      <point x="381.94736842105266" y="-196.10526315789474" type="curve"/>
      <point x="534.7894736842105" y="-192.0" type="line"/>
      <point x="531.157894736842" y="-119.63157894736842"/>
      <point x="528.0526315789473" y="-57.78947368421053"/>
      <point x="523.8947368421052" y="24.789473684210527" type="curve"/>
      <point x="523.8947368421052" y="300.42105263157896" type="line"/>
      <point x="529.0526315789473" y="366.7894736842105"/>
      <point x="534.6315789473683" y="435.0"/>
      <point x="540.7894736842105" y="504.89473684210526" type="curve"/>
      <point x="411.47368421052636" y="498.2105263157895" type="line"/>
      <point x="404.3157894736842" y="436.42105263157896" type="line"/>
      <point x="393.0526315789474" y="436.42105263157896" type="line"/>
      <point x="346.0526315789474" y="476.1578947368421"/>
      <point x="288.1578947368421" y="511.36842105263156"/>
      <point x="245.0" y="511.36842105263156" type="curve" smooth="yes"/>
      <point x="111.78947368421052" y="511.36842105263156"/>
      <point x="39.89473684210526" y="398.10526315789474"/>
      <point x="39.89473684210526" y="250.05263157894737" type="curve" smooth="yes"/>
      <point x="39.89473684210526" y="111.05263157894737"/>
      <point x="105.42105263157895" y="-12.68421052631579"/>
      <point x="243.5263157894737" y="-12.68421052631579" type="curve" smooth="yes"/>
      <point x="281.5263157894737" y="-12.68421052631579"/>
      <point x="332.63157894736844" y="12.684210526315791"/>
      <point x="384.2105263157895" y="54.15789473684211" type="curve"/>
      <point x="392.8421052631579" y="54.15789473684211" type="line"/>
      <point x="392.8421052631579" y="17.94736842105263" type="line"/>
      <point x="389.2105263157895" y="-57.78947368421053"/>
      <point x="385.5789473684211" y="-124.26315789473684"/>
    </contour>
    <contour>
      <point x="291.42105263157896" y="99.84210526315789" type="curve"/>
      <point x="211.6315789473684" y="102.84210526315789"/>
      <point x="174.05263157894737" y="172.05263157894737"/>
      <point x="174.05263157894737" y="249.0" type="curve" smooth="yes"/>
      <point x="174.05263157894737" y="329.89473684210526"/>
      <point x="214.5263157894737" y="394.2631578947369"/>
      <point x="292.36842105263156" y="397.2631578947369" type="curve"/>
      <point x="319.57894736842104" y="395.21052631578954"/>
      <point x="360.1578947368421" y="377.3157894736842"/>
      <point x="392.8421052631579" y="346.10526315789474" type="curve"/>
      <point x="392.8421052631579" y="158.63157894736844" type="line"/>
      <point x="364.8947368421052" y="128.4736842105263"/>
      <point x="323.7894736842105" y="102.36842105263158"/>
    </contour>
  </outline>
</glyph>
<glyph name="r" format="2">
  <advance width="417.1578947368421"/>
  <unicode hex="0072"/>
  <anchor x="133.68421052631578" y="0.0" name="bottom"/>
  <anchor x="234.6315789473684" y="498.2105263157895" name="top"/>
  <outline>
    <contour>
      <point x="64.8421052631579" y="0.0" type="curve"/>
      <point x="217.21052631578948" y="0.0" type="line"/>
      <point x="213.57894736842107" y="71.84210526315789"/>
      <point x="209.94736842105263" y="134.21052631578948"/>
      <point x="206.31578947368422" y="209.94736842105263" type="curve"/>
      <point x="206.31578947368422" y="300.6315789473684" type="line"/>
      <point x="258.99999999999994" y="357.3157894736842"/>
      <point x="298.89473684210526" y="378.8421052631579"/>
      <point x="320.2105263157895" y="378.8421052631579" type="curve" smooth="yes"/>
      <point x="326.6842105263158" y="378.8421052631579"/>
      <point x="352.84210526315786" y="372.31578947368416"/>
      <point x="386.2631578947368" y="364.2105263157895" type="curve"/>
      <point x="397.6842105263158" y="502.7894736842105" type="line"/>
      <point x="380.2105263157895" y="507.3684210526316"/>
      <point x="354.42105263157896" y="511.36842105263156"/>
      <point x="343.42105263157896" y="511.36842105263156" type="curve" smooth="yes"/>
      <point x="312.2631578947369" y="511.36842105263156"/>
      <point x="268.57894736842104" y="486.2105263157895"/>
      <point x="201.94736842105263" y="414.9473684210526" type="curve"/>
      <point x="190.6315789473684" y="414.9473684210526" type="line"/>
      <point x="183.0" y="504.89473684210526" type="line"/>
      <point x="55.73684210526316" y="498.2105263157895" type="line"/>
      <point x="62.94736842105264" y="430.36842105263156"/>
      <point x="69.57894736842105" y="364.7368421052632"/>
      <point x="75.26315789473685" y="300.42105263157896" type="curve"/>
      <point x="75.26315789473685" y="216.78947368421052" type="line"/>
      <point x="71.10526315789474" y="134.21052631578948"/>
      <point x="68.47368421052632" y="72.36842105263158"/>
    </contour>
  </outline>
</glyph>
<glyph name="t" format="2">
  <advance width="418.9473684210526"/>
  <unicode hex="0074"/>
  <anchor x="234.3684210526316" y="0.0" name="bottom"/>
  <anchor x="215.0" y="249.10526315789474" name="center"/>
  <anchor x="205.52631578947367" y="653.4736842105264" name="top"/>
  <anchor x="263.42105263157896" y="498.2105263157895" name="topright"/>
  <outline>
    <contour>
      <point x="274.57894736842104" y="-12.68421052631579" type="curve" smooth="yes"/>
      <point x="293.10526315789474" y="-12.68421052631579"/>
      <point x="351.89473684210526" y="-2.3157894736842106"/>
      <point x="393.3157894736842" y="10.263157894736842" type="curve"/>
      <point x="385.2105263157895" y="119.94736842105263" type="line"/>
      <point x="354.4210526315789" y="106.57894736842105"/>
      <point x="321.5789473684211" y="95.63157894736841"/>
      <point x="310.7894736842105" y="95.63157894736841" type="curve" smooth="yes"/>
      <point x="259.3684210526315" y="95.63157894736841"/>
      <point x="234.42105263157896" y="128.31578947368422"/>
      <point x="234.42105263157896" y="192.4736842105263" type="curve" smooth="yes"/>
      <point x="234.42105263157896" y="464.2105263157895" type="line"/>
      <point x="238.05263157894737" y="550.0"/>
      <point x="240.6842105263158" y="608.2105263157895"/>
      <point x="244.84210526315792" y="685.0" type="curve"/>
      <point x="94.05263157894737" y="658.7368421052631" type="line"/>
      <point x="98.68421052631578" y="594.0"/>
      <point x="101.3157894736842" y="537.7894736842105"/>
      <point x="104.94736842105263" y="464.2105263157895" type="curve"/>
      <point x="104.94736842105263" y="346.10526315789474"/>
      <point x="101.84210526315789" y="248.21052631578948"/>
      <point x="101.84210526315789" y="152.89473684210526" type="curve" smooth="yes"/>
      <point x="101.84210526315789" y="35.05263157894737"/>
      <point x="161.94736842105263" y="-12.68421052631579"/>
    </contour>
    <contour>
      <point x="20.05263157894737" y="388.2631578947368" type="line"/>
      <point x="143.10526315789474" y="402.2105263157894" type="line"/>
      <point x="200.57894736842104" y="402.2105263157894" type="line"/>
      <point x="260.6842105263158" y="398.57894736842104"/>
      <point x="326.8421052631579" y="393.42105263157896"/>
      <point x="390.0" y="388.2631578947368" type="curve"/>
      <point x="390.0" y="498.2105263157895" type="line"/>
      <point x="20.05263157894737" y="498.2105263157895" type="line"/>
    </contour>
  </outline>
</glyph>
<glyph name="u" format="2">
  <advance width="573.2105263157895"/>
  <unicode hex="0075"/>
  <anchor x="283.94736842105266" y="0.0" name="bottom"/>
  <anchor x="515.1578947368421" y="0.0" name="ogonek"/>
  <anchor x="283.94736842105266" y="498.2105263157895" name="top"/>
  <anchor x="548.0" y="498.2105263157895" name="topright"/>
  <outline>
    <contour>
      <point x="211.47368421052633" y="-12.68421052631579" type="curve" smooth="yes"/>
      <point x="263.3157894736842" y="-12.68421052631579"/>
      <point x="334.63157894736844" y="36.42105263157895"/>
      <point x="376.6842105263158" y="82.84210526315789" type="curve"/>
      <point x="388.47368421052636" y="82.84210526315789" type="line"/>
      <point x="395.15789473684214" y="0.0" type="line"/>
      <point x="518.3157894736842" y="0.0" type="line"/>
      <point x="514.6842105263157" y="72.36842105263158"/>
      <point x="511.578947368421" y="134.21052631578948"/>
      <point x="507.4210526315789" y="216.78947368421052" type="curve"/>
      <point x="507.4210526315789" y="272.05263157894734" type="line"/>
      <point x="512.1052631578947" y="363.52631578947364"/>
      <point x="515.736842105263" y="425.89473684210526"/>
      <point x="519.3684210526316" y="498.2105263157895" type="curve"/>
      <point x="366.5263157894737" y="498.2105263157895" type="line"/>
      <point x="370.1578947368421" y="426.36842105263156"/>
      <point x="373.2631578947368" y="363.52631578947364"/>
      <point x="376.36842105263156" y="287.8421052631579" type="curve"/>
      <point x="376.36842105263156" y="176.63157894736838" type="line"/>
      <point x="338.36842105263156" y="137.1578947368421"/>
      <point x="288.36842105263156" y="105.10526315789473"/>
      <point x="265.6315789473684" y="105.10526315789473" type="curve" smooth="yes"/>
      <point x="208.94736842105263" y="105.10526315789473"/>
      <point x="190.52631578947367" y="141.9473684210526"/>
      <point x="190.52631578947367" y="216.3684210526316" type="curve"/>
      <point x="190.52631578947367" y="287.8421052631579" type="line"/>
      <point x="193.6315789473684" y="364.0"/>
      <point x="196.73684210526315" y="430.0"/>
      <point x="199.8421052631579" y="502.3157894736842" type="curve"/>
      <point x="47.526315789473685" y="498.2105263157895" type="line"/>
      <point x="51.68421052631579" y="426.36842105263156"/>
      <point x="54.78947368421053" y="363.5263157894737"/>
      <point x="59.473684210526315" y="272.05263157894734" type="curve"/>
      <point x="59.473684210526315" y="237.78947368421052"/>
      <point x="57.421052631578945" y="208.31578947368422"/>
      <point x="57.421052631578945" y="164.78947368421052" type="curve" smooth="yes"/>
      <point x="57.421052631578945" y="47.631578947368425"/>
      <point x="108.36842105263158" y="-12.68421052631579"/>
    </contour>
  </outline>
</glyph>
<glyph name="v" format="2">
  <advance width="541.7894736842105"/>
  <unicode hex="0076"/>
  <outline>
    <contour>
      <point x="193.42105263157893" y="0.0" type="curve"/>
      <point x="347.9473684210526" y="0.0" type="line"/>
      <point x="368.7894736842105" y="62.526315789473685"/>
      <point x="388.6315789473684" y="124.05263157894737"/>
      <point x="408.99999999999994" y="187.10526315789474" type="curve"/>
      <point x="440.89473684210526" y="276.1578947368421" type="line"/>
      <point x="470.3684210526315" y="349.6842105263158"/>
      <point x="499.36842105263156" y="423.7368421052631"/>
      <point x="528.7894736842105" y="498.2105263157895" type="curve"/>
      <point x="375.57894736842104" y="498.2105263157895" type="line"/>
      <point x="356.3684210526316" y="428.36842105263156"/>
      <point x="337.63157894736844" y="356.3157894736842"/>
      <point x="317.9473684210526" y="281.8421052631579" type="curve"/>
      <point x="277.36842105263156" y="141.8421052631579" type="line"/>
      <point x="266.1052631578947" y="141.8421052631579" type="line"/>
      <point x="225.52631578947367" y="281.8421052631579" type="line"/>
      <point x="205.8421052631579" y="356.3157894736842"/>
      <point x="187.05263157894737" y="427.89473684210526"/>
      <point x="167.89473684210526" y="502.3157894736842" type="curve"/>
      <point x="13.0" y="498.2105263157895" type="line"/>
      <point x="42.00000000000001" y="425.1578947368421"/>
      <point x="71.0" y="350.1578947368421"/>
      <point x="100.0" y="277.10526315789474" type="curve"/>
      <point x="131.89473684210526" y="188.57894736842104" type="line"/>
      <point x="152.26315789473685" y="126.47368421052632"/>
      <point x="172.57894736842107" y="63.05263157894737"/>
    </contour>
  </outline>
</glyph>
<glyph name="w" format="2">
  <advance width="827.1052631578948"/>
  <unicode hex="0077"/>
  <anchor x="413.4736842105263" y="0.0" name="bottom"/>
  <anchor x="413.4736842105263" y="498.2105263157895" name="top"/>
  <outline>
    <contour>
      <point x="171.94736842105263" y="0.0" type="curve"/>
      <point x="324.89473684210526" y="0.0" type="line"/>
      <point x="340.2105263157895" y="65.21052631578947"/>
      <point x="356.99999999999994" y="136.31578947368422"/>
      <point x="371.36842105263156" y="198.1578947368421" type="curve"/>
      <point x="403.7368421052632" y="321.2631578947369" type="line"/>
      <point x="413.9473684210526" y="321.2631578947369" type="line"/>
      <point x="446.8421052631579" y="199.63157894736844" type="line"/>
      <point x="462.7368421052631" y="136.8421052631579"/>
      <point x="481.0" y="64.73684210526315"/>
      <point x="497.3684210526316" y="0.0" type="curve"/>
      <point x="656.578947368421" y="0.0" type="line"/>
      <point x="673.9473684210526" y="61.0"/>
      <point x="691.8421052631578" y="125.57894736842105"/>
      <point x="710.2105263157895" y="190.57894736842104" type="curve"/>
      <point x="738.1578947368421" y="278.10526315789474" type="line"/>
      <point x="763.6842105263158" y="351.1578947368421"/>
      <point x="789.6842105263157" y="424.1578947368421"/>
      <point x="816.2105263157895" y="498.2105263157895" type="curve"/>
      <point x="660.3157894736843" y="498.2105263157895" type="line"/>
      <point x="645.9473684210527" y="432.57894736842104"/>
      <point x="628.7368421052631" y="351.1578947368421"/>
      <point x="612.421052631579" y="278.63157894736844" type="curve"/>
      <point x="577.1052631578947" y="136.5263157894737" type="line"/>
      <point x="566.8421052631579" y="136.5263157894737" type="line"/>
      <point x="531.5263157894736" y="277.10526315789474" type="line"/>
      <point x="514.6842105263158" y="351.10526315789474"/>
      <point x="497.3684210526315" y="427.1578947368421"/>
      <point x="481.0" y="498.2105263157895" type="curve"/>
      <point x="348.7894736842105" y="498.2105263157895" type="line"/>
      <point x="331.94736842105266" y="423.7368421052632"/>
      <point x="315.10526315789474" y="349.7368421052632"/>
      <point x="298.7368421052632" y="276.1578947368421" type="curve"/>
      <point x="264.36842105263156" y="136.5263157894737" type="line"/>
      <point x="254.10526315789474" y="136.5263157894737" type="line"/>
      <point x="218.73684210526315" y="273.7894736842105" type="line"/>
      <point x="201.89473684210526" y="346.8421052631579"/>
      <point x="183.1578947368421" y="429.2631578947369"/>
      <point x="166.3157894736842" y="502.3157894736842" type="curve"/>
      <point x="10.894736842105262" y="498.2105263157895" type="line"/>
      <point x="37.42105263157895" y="423.6842105263158"/>
      <point x="62.94736842105263" y="352.1578947368421"/>
      <point x="89.47368421052632" y="278.10526315789474" type="curve"/>
      <point x="117.36842105263158" y="189.57894736842104" type="line"/>
      <point x="135.73684210526315" y="125.52631578947368"/>
      <point x="153.57894736842104" y="62.526315789473685"/>
    </contour>
  </outline>
</glyph>
<glyph name="y" format="2">
  <advance width="543.6842105263157"/>
  <unicode hex="0079"/>
  <anchor x="425.7894736842105" y="0.0" name="bottom"/>
  <anchor x="273.1578947368421" y="498.2105263157895" name="top"/>
  <outline>
    <contour>
      <point x="108.94736842105263" y="-196.10526315789474" type="curve"/>
      <point x="265.3157894736842" y="-192.0" type="line"/>
      <point x="291.6842105263158" y="-120.0"/>
      <point x="321.57894736842104" y="-37.421052631578945"/>
      <point x="367.89473684210526" y="90.10526315789474" type="curve"/>
      <point x="422.3157894736842" y="230.1578947368421" type="line"/>
      <point x="473.2631578947368" y="355.6842105263158"/>
      <point x="497.7368421052632" y="417.2105263157895"/>
      <point x="530.6842105263157" y="498.2105263157895" type="curve"/>
      <point x="378.52631578947364" y="498.2105263157895" type="line"/>
      <point x="358.8421052631579" y="424.2105263157895"/>
      <point x="339.63157894736844" y="353.6842105263158"/>
      <point x="318.94736842105266" y="279.2105263157895" type="curve"/>
      <point x="275.42105263157896" y="137.6315789473684" type="line"/>
      <point x="264.1578947368421" y="137.6315789473684" type="line"/>
      <point x="224.5263157894737" y="279.2631578947368" type="line"/>
      <point x="205.3157894736842" y="355.2631578947368"/>
      <point x="186.57894736842104" y="426.3157894736842"/>
      <point x="167.36842105263156" y="502.3157894736842" type="curve"/>
      <point x="13.0" y="498.2105263157895" type="line"/>
      <point x="40.473684210526315" y="427.2105263157895"/>
      <point x="70.47368421052632" y="351.2105263157895"/>
      <point x="98.47368421052632" y="279.1578947368421" type="curve"/>
      <point x="130.36842105263156" y="189.1578947368421" type="line"/>
      <point x="152.21052631578948" y="123.15789473684211"/>
      <point x="176.05263157894737" y="52.1578947368421"/>
      <point x="197.94736842105263" y="-16.894736842105264" type="curve"/>
      <point x="204.1578947368421" y="9.157894736842104" type="line"/>
      <point x="172.94736842105263" y="-57.578947368421055"/>
      <point x="140.1578947368421" y="-128.89473684210526"/>
    </contour>
  </outline>
</glyph>
<glyph name="z" format="2">
  <advance width="510.42105263157896"/>
  <unicode hex="007A"/>
  <anchor x="253.73684210526315" y="0.0" name="bottom"/>
  <anchor x="253.73684210526315" y="249.10526315789474" name="center"/>
  <anchor x="253.73684210526315" y="498.2105263157895" name="top"/>
  <outline>
    <contour>
      <point x="33.473684210526315" y="0.0" type="line"/>
      <point x="478.8421052631579" y="0.0" type="line"/>
      <point x="478.8421052631579" y="112.05263157894737" type="line"/>
      <point x="415.89473684210526" y="106.8421052631579"/>
      <point x="335.36842105263156" y="101.10526315789474"/>
      <point x="286.42105263157896" y="97.47368421052632" type="curve"/>
      <point x="177.10526315789474" y="97.47368421052632" type="line"/>
      <point x="191.05263157894734" y="68.47368421052632" type="line"/>
      <point x="327.89473684210526" y="247.10526315789474" type="line"/>
      <point x="372.36842105263156" y="300.2105263157895"/>
      <point x="426.7368421052632" y="365.10526315789474"/>
      <point x="463.9473684210526" y="409.52631578947364" type="curve"/>
      <point x="463.9473684210526" y="498.2105263157895" type="line"/>
      <point x="37.1578947368421" y="498.2105263157895" type="line"/>
      <point x="37.1578947368421" y="383.5263157894737" type="line"/>
      <point x="103.52631578947368" y="389.2631578947368"/>
      <point x="187.63157894736844" y="396.0526315789474"/>
      <point x="236.63157894736844" y="400.2105263157895" type="curve"/>
      <point x="336.63157894736844" y="400.2105263157895" type="line"/>
      <point x="319.10526315789474" y="437.6842105263158" type="line"/>
      <point x="177.4736842105263" y="251.6315789473684" type="line"/>
      <point x="134.42105263157896" y="199.89473684210526"/>
      <point x="85.47368421052632" y="140.84210526315792"/>
      <point x="33.473684210526315" y="78.26315789473684" type="curve"/>
    </contour>
  </outline>
</glyph>
<glyph name="braceleft" format="2">
  <advance width="434.10526315789474"/>
  <unicode hex="007B"/>
  <outline>
    <contour>
      <point x="316.57894736842104" y="-121.47368421052632" type="curve" smooth="yes"/>
      <point x="413.57894736842104" y="-121.47368421052632" type="line"/>
      <point x="413.57894736842104" y="-13.105263157894743" type="line"/>
      <point x="384.3157894736842" y="-14.15789473684211"/>
      <point x="353.05263157894734" y="-15.684210526315795"/>
      <point x="336.05263157894734" y="-16.21052631578948" type="curve"/>
      <point x="283.63157894736844" y="-13.631578947368427"/>
      <point x="259.2631578947369" y="9.94736842105263"/>
      <point x="258.2105263157895" y="58.78947368421052" type="curve" smooth="yes"/>
      <point x="253.52631578947367" y="232.4736842105263" type="line" smooth="yes"/>
      <point x="253.0" y="245.21052631578948"/>
      <point x="202.21052631578945" y="295.1578947368421"/>
      <point x="168.6315789473684" y="319.94736842105266" type="curve"/>
      <point x="168.6315789473684" y="330.6842105263158" type="line"/>
      <point x="202.21052631578945" y="355.5263157894737"/>
      <point x="253.0" y="403.8421052631579"/>
      <point x="253.52631578947367" y="417.6842105263158" type="curve" smooth="yes"/>
      <point x="258.2105263157895" y="591.8421052631579" type="line" smooth="yes"/>
      <point x="259.2631578947369" y="640.6842105263158"/>
      <point x="283.63157894736844" y="664.2631578947369"/>
      <point x="336.05263157894734" y="666.8421052631579" type="curve"/>
      <point x="353.5263157894737" y="666.3157894736843"/>
      <point x="384.7368421052632" y="664.7894736842106"/>
      <point x="410.9473684210526" y="663.7368421052632" type="curve"/>
      <point x="410.9473684210526" y="772.1052631578947" type="line"/>
      <point x="316.57894736842104" y="772.1052631578947" type="line" smooth="yes"/>
      <point x="203.89473684210526" y="772.1052631578947"/>
      <point x="132.05263157894737" y="715.5263157894736"/>
      <point x="132.05263157894737" y="614.4736842105264" type="curve"/>
      <point x="132.05263157894737" y="607.1052631578947"/>
      <point x="135.68421052631578" y="471.2631578947369"/>
      <point x="135.68421052631578" y="463.89473684210526" type="curve"/>
      <point x="135.68421052631578" y="409.1578947368421"/>
      <point x="96.57894736842105" y="372.2105263157895"/>
      <point x="57.473684210526315" y="372.2105263157895" type="curve" smooth="yes"/>
      <point x="15.263157894736842" y="372.2105263157895" type="line"/>
      <point x="15.263157894736842" y="277.94736842105266" type="line"/>
      <point x="57.473684210526315" y="277.94736842105266" type="line" smooth="yes"/>
      <point x="96.57894736842105" y="277.94736842105266"/>
      <point x="135.68421052631578" y="241.0"/>
      <point x="135.68421052631578" y="186.26315789473685" type="curve"/>
      <point x="135.68421052631578" y="178.89473684210526"/>
      <point x="132.05263157894737" y="43.526315789473685"/>
      <point x="132.05263157894737" y="36.1578947368421" type="curve"/>
      <point x="132.05263157894737" y="-64.89473684210526"/>
      <point x="203.89473684210526" y="-121.47368421052632"/>
    </contour>
  </outline>
</glyph>
<glyph name="asciitilde" format="2">
  <advance width="575.7894736842105"/>
  <unicode hex="007E"/>
  <outline>
    <contour>
      <point x="402.05263157894734" y="209.8421052631579" type="curve" smooth="yes"/>
      <point x="473.36842105263156" y="209.8421052631579"/>
      <point x="521.578947368421" y="273.05263157894734"/>
      <point x="521.578947368421" y="378.7368421052632" type="curve"/>
      <point x="442.0526315789474" y="378.7368421052632" type="line"/>
      <point x="434.8421052631579" y="342.7368421052632"/>
      <point x="417.3157894736842" y="326.0"/>
      <point x="387.94736842105266" y="323.4736842105263" type="curve"/>
      <point x="331.68421052631584" y="327.05263157894734"/>
      <point x="261.57894736842104" y="396.4736842105263"/>
      <point x="178.42105263157896" y="396.4736842105263" type="curve" smooth="yes"/>
      <point x="103.94736842105263" y="396.4736842105263"/>
      <point x="54.21052631578947" y="332.7368421052632"/>
      <point x="54.21052631578947" y="227.57894736842104" type="curve"/>
      <point x="133.73684210526315" y="227.57894736842104" type="line"/>
      <point x="140.94736842105263" y="263.57894736842104"/>
      <point x="160.52631578947367" y="280.3157894736842"/>
      <point x="190.94736842105263" y="282.8421052631579" type="curve"/>
      <point x="244.57894736842104" y="279.2631578947369"/>
      <point x="317.3157894736842" y="209.8421052631579"/>
    </contour>
  </outline>
</glyph>
<glyph name="sterling" format="2">
  <advance width="602.1578947368421"/>
  <unicode hex="00A3"/>
  <outline>
    <contour>
      <point x="53.94736842105263" y="0.0" type="line"/>
      <point x="569.7894736842105" y="0.0" type="line"/>
      <point x="569.7894736842105" y="131.94736842105263" type="line"/>
      <point x="494.0" y="128.31578947368422"/>
      <point x="378.2631578947368" y="123.63157894736842"/>
      <point x="290.8421052631579" y="119.47368421052632" type="curve"/>
      <point x="153.89473684210526" y="119.47368421052632" type="line"/>
      <point x="179.94736842105263" y="94.68421052631578" type="line"/>
      <point x="250.99999999999997" y="208.36842105263156"/>
      <point x="266.5263157894737" y="242.1578947368421"/>
      <point x="266.5263157894737" y="277.42105263157896" type="curve" smooth="yes"/>
      <point x="266.5263157894737" y="437.4736842105263" type="line" smooth="yes"/>
      <point x="266.5263157894737" y="537.8947368421053"/>
      <point x="310.8421052631579" y="581.9473684210526"/>
      <point x="394.57894736842104" y="584.5263157894736" type="curve"/>
      <point x="414.6842105263158" y="584.5263157894736"/>
      <point x="469.15789473684214" y="570.2105263157895"/>
      <point x="531.1578947368422" y="545.1052631578947" type="curve"/>
      <point x="544.578947368421" y="665.8947368421053" type="line"/>
      <point x="504.4736842105263" y="679.9473684210527"/>
      <point x="433.0" y="701.2631578947369"/>
      <point x="383.57894736842104" y="701.2631578947369" type="curve" smooth="yes"/>
      <point x="213.8421052631579" y="701.2631578947369"/>
      <point x="125.57894736842105" y="612.5263157894736"/>
      <point x="125.57894736842105" y="443.0526315789474" type="curve" smooth="yes"/>
      <point x="125.57894736842105" y="374.1578947368421"/>
      <point x="128.1578947368421" y="306.2631578947368"/>
      <point x="128.1578947368421" y="237.89473684210526" type="curve"/>
      <point x="128.1578947368421" y="212.6315789473684"/>
      <point x="115.21052631578948" y="178.47368421052633"/>
      <point x="53.94736842105263" y="75.94736842105263" type="curve"/>
    </contour>
    <contour>
      <point x="53.89473684210526" y="318.0526315789474" type="line"/>
      <point x="120.84210526315789" y="320.10526315789474"/>
      <point x="192.57894736842107" y="322.15789473684214"/>
      <point x="239.1578947368421" y="323.2105263157895" type="curve"/>
      <point x="276.5263157894737" y="323.2105263157895" type="line"/>
      <point x="323.10526315789474" y="322.15789473684214"/>
      <point x="394.8421052631579" y="320.10526315789474"/>
      <point x="461.7894736842105" y="318.0526315789474" type="curve"/>
      <point x="461.7894736842105" y="420.57894736842104" type="line"/>
      <point x="394.8421052631579" y="418.5263157894737"/>
      <point x="323.10526315789474" y="416.4736842105263"/>
      <point x="276.5263157894737" y="415.42105263157896" type="curve"/>
      <point x="239.1578947368421" y="415.42105263157896" type="line"/>
      <point x="192.57894736842107" y="416.4736842105263"/>
      <point x="120.84210526315789" y="418.5263157894737"/>
      <point x="53.89473684210526" y="420.57894736842104" type="curve"/>
    </contour>
  </outline>
</glyph>
<glyph name="currency" format="2">
  <advance width="644.2105263157895"/>
  <unicode hex="00A4"/>
  <outline>
    <contour>
      <point x="320.63157894736844" y="102.10526315789474" type="curve" smooth="yes"/>
      <point x="453.36842105263156" y="102.10526315789474"/>
      <point x="548.0526315789474" y="180.31578947368422"/>
      <point x="548.0526315789474" y="321.05263157894734" type="curve" smooth="yes"/>
      <point x="548.0526315789474" y="448.7894736842105"/>
      <point x="453.8421052631579" y="538.3684210526316"/>
      <point x="322.63157894736844" y="538.3684210526316" type="curve" smooth="yes"/>
      <point x="189.42105263157896" y="538.3684210526316"/>
      <point x="95.21052631578948" y="450.9473684210526"/>
      <point x="95.21052631578948" y="321.05263157894734" type="curve" smooth="yes"/>
      <point x="95.21052631578948" y="180.8421052631579"/>
      <point x="189.42105263157896" y="102.10526315789474"/>
    </contour>
    <contour>
      <point x="121.10526315789474" y="29.157894736842106" type="line"/>
      <point x="166.89473684210526" y="77.52631578947368"/>
      <point x="216.0" y="129.73684210526318"/>
      <point x="247.89473684210526" y="163.68421052631578" type="curve"/>
      <point x="165.31578947368422" y="246.26315789473685" type="line"/>
      <point x="131.3684210526316" y="214.36842105263156"/>
      <point x="79.15789473684211" y="165.26315789473682"/>
      <point x="30.789473684210524" y="119.47368421052632" type="curve"/>
    </contour>
    <contour>
      <point x="321.1578947368421" y="209.89473684210526" type="curve"/>
      <point x="259.89473684210526" y="214.0"/>
      <point x="212.4736842105263" y="248.31578947368422"/>
      <point x="212.4736842105263" y="320.5263157894737" type="curve" smooth="yes"/>
      <point x="212.4736842105263" y="386.7368421052632"/>
      <point x="260.3684210526316" y="427.0"/>
      <point x="322.10526315789474" y="431.10526315789474" type="curve"/>
      <point x="383.89473684210526" y="427.0"/>
      <point x="430.7894736842105" y="385.6842105263158"/>
      <point x="430.7894736842105" y="320.5263157894737" type="curve" smooth="yes"/>
      <point x="430.7894736842105" y="248.31578947368422"/>
      <point x="383.36842105263156" y="214.0"/>
    </contour>
    <contour>
      <point x="166.3684210526316" y="395.7368421052632" type="curve"/>
      <point x="246.8421052631579" y="476.2105263157895" type="line"/>
      <point x="214.94736842105263" y="510.15789473684214"/>
      <point x="165.8421052631579" y="562.3684210526316"/>
      <point x="120.05263157894737" y="610.7368421052631" type="curve"/>
      <point x="31.842105263157894" y="522.5263157894738" type="line"/>
      <point x="80.21052631578947" y="476.7368421052632"/>
      <point x="132.42105263157896" y="427.63157894736844"/>
    </contour>
    <contour>
      <point x="524.1578947368422" y="30.210526315789476" type="curve"/>
      <point x="612.3684210526316" y="118.42105263157895" type="line"/>
      <point x="564.0" y="164.21052631578945"/>
      <point x="511.7894736842106" y="213.31578947368422"/>
      <point x="477.8421052631579" y="245.21052631578948" type="curve"/>
      <point x="397.36842105263156" y="164.73684210526315" type="line"/>
      <point x="429.2631578947368" y="130.78947368421052"/>
      <point x="478.3684210526316" y="78.57894736842105"/>
    </contour>
    <contour>
      <point x="478.89473684210526" y="394.6842105263158" type="line"/>
      <point x="512.8421052631579" y="426.57894736842104"/>
      <point x="565.0526315789474" y="475.6842105263158"/>
      <point x="613.421052631579" y="521.4736842105264" type="curve"/>
      <point x="523.1052631578948" y="611.7894736842105" type="line"/>
      <point x="477.3157894736842" y="563.421052631579"/>
      <point x="428.2105263157895" y="511.21052631578954"/>
      <point x="396.3157894736842" y="477.2631578947368" type="curve"/>
    </contour>
  </outline>
</glyph>
<glyph name="yen" format="2">
  <advance width="645.1052631578947"/>
  <unicode hex="00A5"/>
  <outline>
    <contour>
      <point x="257.52631578947364" y="252.21052631578948" type="line"/>
      <point x="389.6842105263158" y="252.21052631578948" type="line"/>
      <point x="530.5263157894738" y="516.421052631579" type="line"/>
      <point x="564.0526315789474" y="572.2105263157895"/>
      <point x="600.0" y="631.3684210526317"/>
      <point x="633.5263157894736" y="687.1578947368421" type="curve"/>
      <point x="460.47368421052636" y="687.1578947368421" type="line"/>
      <point x="425.3684210526316" y="605.0526315789474"/>
      <point x="408.1052631578947" y="567.6842105263158"/>
      <point x="380.6842105263158" y="502.8421052631579" type="curve"/>
      <point x="329.7894736842105" y="396.5263157894737" type="line"/>
      <point x="317.4736842105263" y="396.5263157894737" type="line"/>
      <point x="268.1052631578947" y="501.8421052631579" type="line"/>
      <point x="241.26315789473682" y="564.4736842105264"/>
      <point x="224.94736842105263" y="603.5263157894738"/>
      <point x="189.89473684210526" y="687.1578947368421" type="curve"/>
      <point x="10.526315789473683" y="687.1578947368421" type="line"/>
      <point x="63.105263157894726" y="601.2631578947368"/>
      <point x="85.10526315789474" y="565.6315789473684"/>
      <point x="115.63157894736842" y="515.8947368421053" type="curve"/>
    </contour>
    <contour>
      <point x="244.52631578947367" y="0.0" type="curve"/>
      <point x="403.6842105263158" y="0.0" type="line"/>
      <point x="400.05263157894734" y="74.84210526315789"/>
      <point x="396.94736842105254" y="138.68421052631578"/>
      <point x="392.78947368421046" y="223.78947368421052" type="curve"/>
      <point x="392.78947368421046" y="364.57894736842104" type="line"/>
      <point x="254.94736842105263" y="364.57894736842104" type="line"/>
      <point x="254.94736842105263" y="223.78947368421052" type="line"/>
      <point x="250.78947368421052" y="138.68421052631578"/>
      <point x="248.15789473684208" y="74.84210526315789"/>
    </contour>
    <contour>
      <point x="74.36842105263158" y="120.73684210526315" type="line"/>
      <point x="141.31578947368422" y="122.78947368421052"/>
      <point x="213.05263157894737" y="124.84210526315789"/>
      <point x="259.6315789473684" y="125.89473684210526" type="curve"/>
      <point x="387.52631578947364" y="125.89473684210526" type="line"/>
      <point x="434.1052631578947" y="124.84210526315789"/>
      <point x="505.84210526315786" y="122.78947368421052"/>
      <point x="572.7894736842105" y="120.73684210526315" type="curve"/>
      <point x="572.7894736842105" y="210.1052631578947" type="line"/>
      <point x="505.84210526315786" y="209.1052631578947"/>
      <point x="434.1052631578947" y="208.1052631578947"/>
      <point x="387.52631578947364" y="207.57894736842104" type="curve"/>
      <point x="259.6315789473684" y="207.57894736842104" type="line"/>
      <point x="213.05263157894737" y="208.1052631578947"/>
      <point x="141.31578947368422" y="209.1052631578947"/>
      <point x="74.36842105263158" y="210.1052631578947" type="curve"/>
    </contour>
    <contour>
      <point x="74.36842105263158" y="279.1578947368421" type="line"/>
      <point x="141.31578947368422" y="280.1578947368421"/>
      <point x="213.05263157894737" y="281.1578947368421"/>
      <point x="259.6315789473684" y="281.6842105263158" type="curve"/>
      <point x="387.52631578947364" y="281.6842105263158" type="line"/>
      <point x="434.1052631578947" y="281.1578947368421"/>
      <point x="505.84210526315786" y="280.1578947368421"/>
      <point x="572.7894736842105" y="279.1578947368421" type="curve"/>
      <point x="572.7894736842105" y="368.52631578947364" type="line"/>
      <point x="505.84210526315786" y="366.4736842105263"/>
      <point x="434.1052631578947" y="364.4210526315789"/>
      <point x="387.52631578947364" y="363.36842105263156" type="curve"/>
      <point x="259.6315789473684" y="363.36842105263156" type="line"/>
      <point x="213.05263157894737" y="364.4210526315789"/>
      <point x="141.31578947368422" y="366.4736842105263"/>
      <point x="74.36842105263158" y="368.52631578947364" type="curve"/>
    </contour>
  </outline>
</glyph>
<glyph name="section" format="2">
  <advance width="570.6893203883494"/>
  <unicode hex="00A7"/>
  <outline>
    <contour>
      <point x="247.37864077669903" y="-129.0097087378641" type="curve" smooth="yes"/>
      <point x="409.1650485436893" y="-129.0097087378641"/>
      <point x="477.80582524271847" y="-55.51456310679612"/>
      <point x="477.80582524271847" y="46.37864077669903" type="curve" smooth="yes"/>
      <point x="477.80582524271847" y="149.12621359223303"/>
      <point x="414.69902912621365" y="185.89320388349515"/>
      <point x="289.05825242718447" y="221.89320388349515" type="curve" smooth="yes"/>
      <point x="204.8349514563107" y="245.8834951456311"/>
      <point x="172.85436893203882" y="268.747572815534"/>
      <point x="172.85436893203882" y="317.09708737864077" type="curve" smooth="yes"/>
      <point x="172.85436893203882" y="362.2038834951456"/>
      <point x="211.2135922330097" y="394.31067961165047"/>
      <point x="246.4466019417476" y="398.93203883495147" type="curve"/>
      <point x="182.91262135922332" y="477.873786407767" type="line"/>
      <point x="89.74757281553399" y="454.0"/>
      <point x="38.349514563106794" y="385.873786407767"/>
      <point x="38.349514563106794" y="309.3592233009709" type="curve" smooth="yes"/>
      <point x="38.349514563106794" y="222.72815533980582"/>
      <point x="94.33980582524272" y="174.97087378640776"/>
      <point x="202.2233009708738" y="142.4757281553398" type="curve" smooth="yes"/>
      <point x="310.06796116504853" y="109.99029126213593"/>
      <point x="344.5533980582524" y="96.49514563106796"/>
      <point x="344.5533980582524" y="49.89320388349515" type="curve" smooth="yes"/>
      <point x="344.5533980582524" y="-7.563106796116504"/>
      <point x="296.58252427184465" y="-23.80582524271845"/>
      <point x="239.24271844660194" y="-25.80582524271845" type="curve"/>
      <point x="206.75728155339806" y="-25.80582524271845"/>
      <point x="127.11650485436893" y="-0.5533980582524283"/>
      <point x="44.359223300970875" y="28.699029126213595" type="curve"/>
      <point x="34.980582524271846" y="-87.76699029126215" type="line"/>
      <point x="113.48543689320388" y="-109.26213592233009"/>
      <point x="205.37864077669906" y="-129.0097087378641"/>
    </contour>
    <contour>
      <point x="402.7669902912621" y="125.24271844660194" type="line"/>
      <point x="497.43689320388347" y="156.36893203883494"/>
      <point x="539.4563106796116" y="219.50485436893203"/>
      <point x="539.4563106796116" y="295.50485436893206" type="curve" smooth="yes"/>
      <point x="539.4563106796116" y="385.63106796116506"/>
      <point x="476.34951456310677" y="427.25242718446606"/>
      <point x="350.70873786407765" y="463.252427184466" type="curve" smooth="yes"/>
      <point x="266.4854368932039" y="487.24271844660194"/>
      <point x="234.50485436893203" y="510.1067961165049"/>
      <point x="234.50485436893203" y="549.9611650485436" type="curve" smooth="yes"/>
      <point x="234.50485436893203" y="608.4174757281553"/>
      <point x="291.21359223300976" y="620.9126213592233"/>
      <point x="328.06796116504864" y="622.9126213592233" type="curve"/>
      <point x="344.8155339805825" y="622.9126213592233"/>
      <point x="422.19417475728153" y="599.9126213592232"/>
      <point x="494.9514563106796" y="571.7864077669904" type="curve"/>
      <point x="503.5825242718447" y="689.1359223300971" type="line"/>
      <point x="446.81553398058253" y="702.009708737864"/>
      <point x="348.3009708737864" y="727.252427184466"/>
      <point x="303.9126213592233" y="727.252427184466" type="curve" smooth="yes"/>
      <point x="175.1359223300971" y="727.252427184466"/>
      <point x="99.12621359223301" y="658.621359223301"/>
      <point x="99.12621359223301" y="553.7281553398058" type="curve" smooth="yes"/>
      <point x="99.12621359223301" y="459.2330097087379"/>
      <point x="163.85436893203885" y="410.2135922330097"/>
      <point x="263.873786407767" y="382.96116504854365" type="curve" smooth="yes"/>
      <point x="370.8446601941747" y="353.97087378640776"/>
      <point x="406.2038834951456" y="331.3495145631068"/>
      <point x="406.2038834951456" y="281.252427184466" type="curve" smooth="yes"/>
      <point x="406.2038834951456" y="238.38834951456312"/>
      <point x="375.83495145631065" y="204.54368932038835"/>
      <point x="332.97087378640776" y="195.4271844660194" type="curve"/>
    </contour>
  </outline>
</glyph>
<glyph name="ordfeminine" format="2">
  <advance width="401.7669902912621"/>
  <unicode hex="00AA"/>
  <outline>
    <contour>
      <point x="141.72815533980582" y="330.368932038835" type="curve" smooth="yes"/>
      <point x="173.97087378640774" y="330.368932038835"/>
      <point x="224.46601941747576" y="362.11650485436894"/>
      <point x="263.96116504854365" y="394.7378640776699" type="curve"/>
      <point x="272.33980582524265" y="394.7378640776699" type="line"/>
      <point x="286.0873786407767" y="338.62135922330094" type="line"/>
      <point x="379.1650485436893" y="338.62135922330094" type="line"/>
      <point x="369.1650485436893" y="386.2621359223301"/>
      <point x="362.2912621359223" y="420.5145631067961"/>
      <point x="355.1650485436893" y="457.90291262135923" type="curve"/>
      <point x="355.1650485436893" y="499.62135922330094" type="line" smooth="yes"/>
      <point x="355.1650485436893" y="528.990291262136"/>
      <point x="357.2912621359223" y="568.242718446602"/>
      <point x="357.2912621359223" y="592.495145631068" type="curve" smooth="yes"/>
      <point x="357.2912621359223" y="687.1262135922331"/>
      <point x="301.40776699029124" y="727.252427184466"/>
      <point x="212.76699029126215" y="727.252427184466" type="curve" smooth="yes"/>
      <point x="189.14563106796118" y="727.252427184466"/>
      <point x="88.99029126213593" y="709.2524271844659"/>
      <point x="51.7378640776699" y="699.3786407766991" type="curve"/>
      <point x="55.990291262135926" y="605.6893203883495" type="line"/>
      <point x="116.24271844660193" y="627.3106796116506"/>
      <point x="179.62135922330094" y="644.4368932038835"/>
      <point x="190.11650485436894" y="644.4368932038835" type="curve" smooth="yes"/>
      <point x="233.85436893203882" y="644.4368932038835"/>
      <point x="269.0873786407767" y="631.8155339805825"/>
      <point x="266.3398058252427" y="584.8543689320388" type="curve"/>
      <point x="152.48543689320388" y="562.3592233009708" type="line" smooth="yes"/>
      <point x="103.75728155339806" y="552.8640776699028"/>
      <point x="34.737864077669904" y="522.378640776699"/>
      <point x="34.737864077669904" y="434.62135922330094" type="curve" smooth="yes"/>
      <point x="34.737864077669904" y="375.873786407767"/>
      <point x="71.98058252427184" y="330.368932038835"/>
    </contour>
    <contour>
      <point x="182.65048543689318" y="408.55339805825247" type="curve" smooth="yes"/>
      <point x="152.3009708737864" y="408.55339805825247"/>
      <point x="127.81553398058253" y="422.7961165048544"/>
      <point x="127.81553398058253" y="456.65048543689323" type="curve" smooth="yes"/>
      <point x="127.81553398058253" y="492.378640776699"/>
      <point x="159.41747572815532" y="506.62135922330094"/>
      <point x="190.89320388349515" y="513.3689320388349" type="curve" smooth="yes"/>
      <point x="240.6019417475728" y="524.73786407767"/>
      <point x="253.46601941747574" y="530.3592233009709"/>
      <point x="264.08737864077665" y="537.4854368932039" type="curve"/>
      <point x="264.0873786407767" y="454.2718446601941" type="line"/>
      <point x="236.10679611650488" y="428.1650485436893"/>
      <point x="199.8834951456311" y="408.55339805825247"/>
    </contour>
  </outline>
</glyph>
<glyph name="logicalnot" format="2">
  <advance width="575.7894736842105"/>
  <unicode hex="00AC"/>
  <outline>
    <contour>
      <point x="399.0526315789474" y="53.94736842105263" type="curve"/>
      <point x="526.7368421052631" y="53.94736842105263" type="line"/>
      <point x="524.6842105263157" y="120.89473684210526"/>
      <point x="522.6315789473684" y="192.63157894736844"/>
      <point x="521.578947368421" y="239.21052631578948" type="curve"/>
      <point x="521.578947368421" y="364.6315789473684" type="line"/>
      <point x="454.63157894736844" y="362.57894736842104"/>
      <point x="382.89473684210526" y="360.52631578947364"/>
      <point x="336.3157894736842" y="359.4736842105263" type="curve"/>
      <point x="239.4736842105263" y="359.4736842105263" type="line"/>
      <point x="192.89473684210526" y="360.52631578947364"/>
      <point x="121.15789473684211" y="362.57894736842104"/>
      <point x="54.21052631578947" y="364.6315789473684" type="curve"/>
      <point x="54.21052631578947" y="240.10526315789474" type="line"/>
      <point x="121.15789473684211" y="242.15789473684214"/>
      <point x="192.89473684210526" y="244.21052631578948"/>
      <point x="239.4736842105263" y="245.26315789473685" type="curve"/>
      <point x="336.3157894736842" y="245.26315789473685" type="line"/>
      <point x="377.7368421052631" y="244.21052631578948"/>
      <point x="441.7894736842105" y="242.15789473684214"/>
      <point x="501.05263157894734" y="240.10526315789474" type="curve"/>
      <point x="404.2105263157895" y="326.3157894736842" type="line"/>
      <point x="404.2105263157895" y="239.21052631578948" type="line"/>
      <point x="403.15789473684214" y="192.63157894736844"/>
      <point x="401.10526315789474" y="120.89473684210526"/>
    </contour>
  </outline>
</glyph>
<glyph name="micro" format="2">
  <advance width="571.1052631578948"/>
  <unicode hex="00B5"/>
  <outline>
    <contour>
      <point x="48.578947368421055" y="-196.10526315789474" type="curve"/>
      <point x="204.05263157894737" y="-192.0" type="line"/>
      <point x="199.3684210526316" y="-120.15789473684211"/>
      <point x="195.73684210526318" y="-57.78947368421053"/>
      <point x="190.5263157894737" y="17.94736842105263" type="curve" smooth="yes"/>
      <point x="190.5263157894737" y="33.21052631578947" type="line"/>
      <point x="134.89473684210526" y="33.21052631578947" type="line"/>
      <point x="156.26315789473685" y="2.052631578947368"/>
      <point x="188.42105263157896" y="-12.68421052631579"/>
      <point x="233.57894736842107" y="-12.68421052631579" type="curve" smooth="yes"/>
      <point x="280.1578947368421" y="-12.68421052631579"/>
      <point x="347.05263157894734" y="36.94736842105264"/>
      <point x="384.36842105263156" y="83.89473684210526" type="curve"/>
      <point x="394.57894736842104" y="83.89473684210526" type="line"/>
      <point x="415.42105263157896" y="0.0" type="line"/>
      <point x="538.9473684210526" y="0.0" type="line"/>
      <point x="526.4736842105264" y="59.1578947368421"/>
      <point x="517.421052631579" y="106.36842105263158"/>
      <point x="507.42105263157896" y="157.31578947368422" type="curve"/>
      <point x="507.89473684210526" y="272.05263157894734" type="line"/>
      <point x="508.94736842105266" y="363.05263157894734"/>
      <point x="509.94736842105266" y="420.57894736842104"/>
      <point x="511.0" y="498.2105263157895" type="curve"/>
      <point x="366.5263157894737" y="498.2105263157895" type="line"/>
      <point x="370.15789473684214" y="426.36842105263156"/>
      <point x="373.2631578947369" y="362.4736842105263"/>
      <point x="376.3684210526316" y="287.8421052631579" type="curve"/>
      <point x="376.3684210526316" y="173.7894736842105" type="line"/>
      <point x="338.36842105263156" y="137.1578947368421"/>
      <point x="288.36842105263156" y="105.10526315789473"/>
      <point x="265.63157894736844" y="105.10526315789473" type="curve" smooth="yes"/>
      <point x="208.94736842105263" y="105.10526315789473"/>
      <point x="190.5263157894737" y="141.9473684210526"/>
      <point x="190.5263157894737" y="216.3684210526316" type="curve"/>
      <point x="191.00000000000003" y="287.8421052631579" type="line"/>
      <point x="192.05263157894737" y="358.31578947368416"/>
      <point x="193.6315789473684" y="438.36842105263156"/>
      <point x="195.1578947368421" y="502.3157894736842" type="curve"/>
      <point x="47.526315789473685" y="498.2105263157895" type="line"/>
      <point x="51.68421052631579" y="426.36842105263156"/>
      <point x="54.78947368421053" y="363.52631578947376"/>
      <point x="59.473684210526315" y="272.05263157894734" type="curve"/>
      <point x="59.473684210526315" y="24.789473684210527" type="line"/>
      <point x="55.31578947368421" y="-57.78947368421053"/>
      <point x="52.21052631578947" y="-124.26315789473684"/>
    </contour>
  </outline>
</glyph>
<glyph name="paragraph" format="2">
  <advance width="570.421052631579"/>
  <unicode hex="00B6"/>
  <outline>
    <contour>
      <point x="218.68421052631578" y="287.2105263157895" type="curve" smooth="yes"/>
      <point x="239.21052631578948" y="287.2105263157895" type="line"/>
      <point x="239.21052631578948" y="713.0" type="line"/>
      <point x="218.68421052631578" y="713.0" type="line"/>
      <point x="100.21052631578948" y="713.0"/>
      <point x="26.842105263157897" y="625.2105263157895"/>
      <point x="26.842105263157897" y="503.36842105263156" type="curve" smooth="yes"/>
      <point x="26.842105263157897" y="388.5263157894737"/>
      <point x="92.6842105263158" y="287.2105263157895"/>
    </contour>
    <contour>
      <point x="215.6315789473684" y="-200.68421052631578" type="curve"/>
      <point x="311.2105263157895" y="-200.68421052631578" type="line"/>
      <point x="308.63157894736844" y="-62.684210526315795"/>
      <point x="306.0526315789474" y="90.3157894736842"/>
      <point x="305.5263157894737" y="128.31578947368422" type="curve"/>
      <point x="305.5263157894737" y="384.0" type="line"/>
      <point x="306.0526315789474" y="422.0"/>
      <point x="309.68421052631584" y="575.0"/>
      <point x="312.7894736842105" y="713.0" type="curve"/>
      <point x="222.89473684210526" y="713.0" type="line"/>
      <point x="222.89473684210526" y="575.0"/>
      <point x="222.89473684210526" y="422.0"/>
      <point x="222.89473684210526" y="384.0" type="curve"/>
      <point x="222.89473684210526" y="128.31578947368422" type="line"/>
      <point x="222.3684210526316" y="90.3157894736842"/>
      <point x="218.73684210526318" y="-62.684210526315795"/>
    </contour>
    <contour>
      <point x="378.7894736842105" y="-200.68421052631578" type="curve"/>
      <point x="474.36842105263156" y="-200.68421052631578" type="line"/>
      <point x="471.2631578947369" y="-62.684210526315795"/>
      <point x="467.63157894736844" y="90.3157894736842"/>
      <point x="467.10526315789474" y="128.31578947368422" type="curve"/>
      <point x="467.10526315789474" y="384.0" type="line"/>
      <point x="467.63157894736844" y="422.0"/>
      <point x="471.2631578947369" y="575.0"/>
      <point x="474.36842105263156" y="713.0" type="curve"/>
      <point x="377.2105263157895" y="713.0" type="line"/>
      <point x="380.31578947368416" y="575.0"/>
      <point x="383.9473684210526" y="422.0"/>
      <point x="384.4736842105263" y="384.0" type="curve"/>
      <point x="384.4736842105263" y="128.31578947368422" type="line"/>
      <point x="383.9473684210526" y="90.3157894736842"/>
      <point x="381.36842105263156" y="-62.684210526315795"/>
    </contour>
    <contour>
      <point x="263.57894736842104" y="635.6315789473684" type="line"/>
      <point x="360.42105263157896" y="635.6315789473684" type="line"/>
      <point x="407.0" y="634.578947368421"/>
      <point x="478.7368421052632" y="632.5263157894738"/>
      <point x="545.6842105263158" y="630.4736842105264" type="curve"/>
      <point x="545.6842105263158" y="713.0" type="line"/>
      <point x="478.7368421052632" y="713.0"/>
      <point x="407.0" y="713.0"/>
      <point x="360.42105263157896" y="713.0" type="curve"/>
      <point x="263.57894736842104" y="713.0" type="line"/>
    </contour>
  </outline>
</glyph>
<glyph name="AE" format="2">
  <advance width="992.6699029126214"/>
  <unicode hex="00C6"/>
  <anchor x="543.8155339805826" y="0.0" name="bottom"/>
  <anchor x="543.8155339805826" y="713.0" name="top"/>
  <outline>
    <contour>
      <point x="5.611650485436893" y="0.0" type="curve"/>
      <point x="177.14563106796118" y="0.0" type="line"/>
      <point x="210.74757281553397" y="78.61165048543688"/>
      <point x="247.09708737864077" y="164.9708737864078"/>
      <point x="278.95145631067965" y="240.08737864077668" type="curve"/>
      <point x="449.6116504854369" y="596.8932038834952" type="line"/>
      <point x="473.747572815534" y="596.8932038834952" type="line"/>
      <point x="568.5825242718447" y="596.8932038834952" type="line"/>
      <point x="583.3495145631069" y="713.0" type="line"/>
      <point x="358.6504854368932" y="713.0" type="line"/>
      <point x="326.91262135922335" y="641.1262135922331"/>
      <point x="296.79611650485435" y="573.3689320388348"/>
      <point x="258.43689320388347" y="487.0" type="curve"/>
      <point x="136.46601941747574" y="242.0" type="line"/>
      <point x="95.2233009708738" y="166.126213592233"/>
      <point x="47.85436893203884" y="77.87378640776699"/>
    </contour>
    <contour>
      <point x="207.93203883495144" y="157.06796116504853" type="line"/>
      <point x="534.4271844660195" y="157.06796116504853" type="line"/>
      <point x="521.9126213592234" y="266.2912621359223" type="line"/>
      <point x="222.82524271844656" y="266.2912621359223" type="line"/>
    </contour>
    <contour>
      <point x="461.6116504854369" y="0.0" type="curve"/>
      <point x="626.0194174757281" y="0.0" type="line"/>
      <point x="626.0194174757281" y="22.524271844660195" type="line"/>
      <point x="621.7669902912621" y="100.01941747572816"/>
      <point x="618.3883495145631" y="167.51456310679612"/>
      <point x="614.0097087378641" y="255.89320388349515" type="curve"/>
      <point x="614.0097087378641" y="452.3495145631068" type="line"/>
      <point x="618.3883495145631" y="542.9805825242719"/>
      <point x="621.7669902912621" y="609.9805825242719"/>
      <point x="626.0194174757281" y="690.4757281553398" type="curve"/>
      <point x="626.0194174757281" y="713.0" type="line"/>
      <point x="461.6116504854369" y="713.0" type="line"/>
      <point x="464.99029126213594" y="641.2427184466019"/>
      <point x="468.24271844660194" y="567.6310679611651"/>
      <point x="472.747572815534" y="474.873786407767" type="curve"/>
      <point x="472.747572815534" y="233.36893203883494" type="line"/>
      <point x="468.36893203883494" y="143.99029126213594"/>
      <point x="464.99029126213594" y="76.49514563106796"/>
    </contour>
    <contour>
      <point x="597.6213592233009" y="0.0" type="line"/>
      <point x="941.3106796116506" y="0.0" type="line"/>
      <point x="941.3106796116506" y="131.4854368932039" type="line"/>
      <point x="879.4466019417476" y="128.23300970873785"/>
      <point x="784.4757281553399" y="122.98058252427185"/>
      <point x="720.3495145631068" y="119.60194174757282" type="curve"/>
      <point x="597.6213592233009" y="119.60194174757282" type="line"/>
    </contour>
    <contour>
      <point x="581.4757281553399" y="303.3300970873786" type="line"/>
      <point x="713.9611650485436" y="303.3300970873786" type="line"/>
      <point x="775.9708737864079" y="301.95145631067953"/>
      <point x="875.8058252427185" y="298.82524271844653"/>
      <point x="921.5631067961165" y="297.57281553398053" type="curve"/>
      <point x="921.5631067961165" y="424.4174757281553" type="line"/>
      <point x="865.8252427184468" y="422.29126213592235"/>
      <point x="797.5825242718448" y="420.03883495145635"/>
      <point x="714.8349514563107" y="416.7864077669903" type="curve"/>
      <point x="581.4757281553399" y="416.7864077669903" type="line"/>
    </contour>
    <contour>
      <point x="589.4854368932039" y="593.3980582524272" type="line"/>
      <point x="710.4660194174758" y="593.3980582524272" type="line"/>
      <point x="784.0970873786408" y="589.8932038834952"/>
      <point x="874.8155339805826" y="584.7669902912621"/>
      <point x="937.8058252427185" y="581.5145631067961" type="curve"/>
      <point x="937.8058252427185" y="713.0" type="line"/>
      <point x="589.4854368932039" y="713.0" type="line"/>
    </contour>
  </outline>
</glyph>
<glyph name="multiply" format="2">
  <advance width="577.1578947368421"/>
  <unicode hex="00D7"/>
  <outline>
    <contour>
      <point x="441.2631578947368" y="62.0" type="curve"/>
      <point x="528.9473684210526" y="149.68421052631578" type="line"/>
      <point x="480.10526315789474" y="195.4736842105263"/>
      <point x="427.89473684210526" y="245.10526315789474"/>
      <point x="394.4736842105263" y="277.4736842105263" type="curve"/>
      <point x="263.6842105263158" y="408.2631578947368" type="line"/>
      <point x="231.31578947368422" y="441.6842105263158"/>
      <point x="181.68421052631578" y="493.89473684210526"/>
      <point x="135.89473684210526" y="542.7368421052631" type="curve"/>
      <point x="48.21052631578947" y="455.05263157894734" type="line"/>
      <point x="97.05263157894737" y="409.2631578947369"/>
      <point x="149.26315789473685" y="359.6315789473685"/>
      <point x="182.68421052631578" y="327.2631578947368" type="curve"/>
      <point x="313.4736842105263" y="196.47368421052633" type="line"/>
      <point x="345.8421052631579" y="163.05263157894737"/>
      <point x="395.47368421052636" y="110.84210526315789"/>
    </contour>
    <contour>
      <point x="135.89473684210526" y="62.0" type="line"/>
      <point x="181.68421052631578" y="110.84210526315789"/>
      <point x="231.31578947368422" y="163.05263157894737"/>
      <point x="263.6842105263158" y="196.47368421052633" type="curve"/>
      <point x="394.4736842105263" y="327.2631578947368" type="line"/>
      <point x="427.89473684210526" y="359.6315789473685"/>
      <point x="480.10526315789474" y="409.2631578947369"/>
      <point x="528.9473684210526" y="455.05263157894734" type="curve"/>
      <point x="441.2631578947368" y="542.7368421052631" type="line"/>
      <point x="395.47368421052636" y="493.89473684210526"/>
      <point x="345.8421052631579" y="441.6842105263158"/>
      <point x="313.4736842105263" y="408.2631578947368" type="curve"/>
      <point x="182.68421052631578" y="277.4736842105263" type="line"/>
      <point x="149.26315789473685" y="245.10526315789474"/>
      <point x="97.05263157894737" y="195.4736842105263"/>
      <point x="48.21052631578947" y="149.68421052631578" type="curve"/>
    </contour>
  </outline>
</glyph>
<glyph name="Thorn" format="2">
  <advance width="645.6699029126214"/>
  <unicode hex="00DE"/>
  <outline>
    <contour>
      <point x="67.8252427184466" y="0.0" type="curve"/>
      <point x="232.35922330097088" y="0.0" type="line"/>
      <point x="228.98058252427188" y="77.49514563106796"/>
      <point x="224.72815533980582" y="144.11650485436894"/>
      <point x="221.2233009708738" y="233.36893203883494" type="curve"/>
      <point x="221.2233009708738" y="474.873786407767" type="line"/>
      <point x="225.72815533980582" y="567.6310679611651"/>
      <point x="228.98058252427188" y="634.252427184466"/>
      <point x="232.35922330097088" y="713.0" type="curve"/>
      <point x="67.8252427184466" y="713.0" type="line"/>
      <point x="71.20388349514565" y="634.252427184466"/>
      <point x="74.45631067961165" y="567.6310679611651"/>
      <point x="78.96116504854369" y="474.873786407767" type="curve"/>
      <point x="78.96116504854369" y="233.36893203883494" type="line"/>
      <point x="74.58252427184466" y="143.99029126213594"/>
      <point x="71.20388349514565" y="76.49514563106796"/>
    </contour>
    <contour>
      <point x="355.82524271844665" y="142.5922330097087" type="curve"/>
      <point x="543.5533980582525" y="142.5922330097087"/>
      <point x="611.6893203883495" y="241.2233009708738"/>
      <point x="611.6893203883495" y="379.368932038835" type="curve" smooth="yes"/>
      <point x="611.6893203883495" y="539.2912621359224"/>
      <point x="525.6699029126214" y="600.5339805825242"/>
      <point x="355.52427184466023" y="600.5339805825242" type="curve"/>
      <point x="292.67961165048547" y="599.5339805825242"/>
      <point x="243.20388349514565" y="598.5339805825244"/>
      <point x="203.58252427184468" y="598.4077669902913" type="curve"/>
      <point x="203.58252427184468" y="483.31067961165047" type="line"/>
      <point x="345.5145631067962" y="483.31067961165047" type="line" smooth="yes"/>
      <point x="401.2330097087379" y="483.31067961165047"/>
      <point x="464.9223300970874" y="468.04854368932035"/>
      <point x="464.9223300970874" y="377.3592233009709" type="curve" smooth="yes"/>
      <point x="464.9223300970874" y="293.5339805825243"/>
      <point x="421.7087378640777" y="258.17475728155335"/>
      <point x="323.7864077669903" y="258.17475728155335" type="curve" smooth="yes"/>
      <point x="203.58252427184468" y="258.17475728155335" type="line"/>
      <point x="203.58252427184468" y="144.71844660194174" type="line"/>
      <point x="241.45631067961168" y="144.59223300970874"/>
      <point x="307.0776699029127" y="143.5922330097087"/>
    </contour>
  </outline>
</glyph>
<glyph name="eth" format="2">
  <advance width="593.6310679611651"/>
  <unicode hex="00F0"/>
  <outline>
    <contour>
      <point x="299.37864077669906" y="-12.504854368932039" type="curve" smooth="yes"/>
      <point x="477.2912621359223" y="-12.504854368932039"/>
      <point x="554.6601941747572" y="111.37864077669903"/>
      <point x="554.6601941747572" y="302.126213592233" type="curve" smooth="yes"/>
      <point x="554.6601941747572" y="447.873786407767"/>
      <point x="499.02912621359224" y="560.6310679611651"/>
      <point x="409.0194174757282" y="650.757281553398" type="curve"/>
      <point x="366.8932038834952" y="688.757281553398"/>
      <point x="324.3883495145631" y="726.1359223300971"/>
      <point x="285.5145631067962" y="759.1359223300971" type="curve"/>
      <point x="159.77669902912623" y="710.6019417475729" type="line"/>
      <point x="215.29126213592235" y="669.5922330097088"/>
      <point x="261.04854368932035" y="635.0873786407768"/>
      <point x="304.6796116504854" y="601.5825242718447" type="curve"/>
      <point x="380.16504854368935" y="519.7184466019418"/>
      <point x="420.4077669902913" y="425.7378640776699"/>
      <point x="420.4077669902913" y="315.8932038834952" type="curve" smooth="yes"/>
      <point x="420.4077669902913" y="171.80582524271847"/>
      <point x="381.56310679611653" y="99.46601941747572"/>
      <point x="298.37864077669906" y="95.46601941747572" type="curve"/>
      <point x="215.19417475728156" y="99.46601941747572"/>
      <point x="172.3495145631068" y="165.41747572815532"/>
      <point x="172.3495145631068" y="235.9902912621359" type="curve" smooth="yes"/>
      <point x="172.3495145631068" y="305.56310679611653"/>
      <point x="213.32038834951456" y="366.8932038834951"/>
      <point x="296.504854368932" y="370.0194174757281" type="curve"/>
      <point x="320.11650485436894" y="368.8932038834951"/>
      <point x="374.95145631067965" y="352.0291262135923"/>
      <point x="430.0388349514563" y="308.1844660194175" type="curve"/>
      <point x="454.19417475728153" y="341.3398058252427"/>
      <point x="446.4368932038835" y="391.7281553398058"/>
      <point x="417.77669902912623" y="432.126213592233" type="curve"/>
      <point x="395.90291262135923" y="421.8640776699029" type="line"/>
      <point x="353.5533980582524" y="451.22330097087377"/>
      <point x="286.1941747572816" y="474.96116504854365"/>
      <point x="243.06796116504853" y="474.96116504854365" type="curve" smooth="yes"/>
      <point x="122.46601941747574" y="474.96116504854365"/>
      <point x="38.970873786407765" y="377.74757281553394"/>
      <point x="38.970873786407765" y="241.62135922330097" type="curve" smooth="yes"/>
      <point x="38.970873786407765" y="107.62135922330097"/>
      <point x="123.59223300970875" y="-12.504854368932039"/>
    </contour>
    <contour>
      <point x="164.22330097087377" y="514.3009708737864" type="line"/>
      <point x="224.98058252427182" y="537.1844660194175"/>
      <point x="280.3592233009709" y="556.8155339805826"/>
      <point x="328.11650485436894" y="575.4466019417476" type="curve"/>
      <point x="375.368932038835" y="590.8252427184466" type="line"/>
      <point x="425.25242718446606" y="605.2038834951455"/>
      <point x="484.13592233009706" y="622.5825242718447"/>
      <point x="544.8932038834952" y="640.8349514563107" type="curve"/>
      <point x="513.9902912621359" y="733.0291262135922" type="line"/>
      <point x="452.6116504854369" y="711.2718446601941"/>
      <point x="395.9805825242718" y="690.5145631067961"/>
      <point x="349.22330097087377" y="672.8834951456311" type="curve"/>
      <point x="300.71844660194176" y="656.5048543689321" type="line"/>
      <point x="251.70873786407768" y="642.126213592233"/>
      <point x="193.33009708737865" y="625.873786407767"/>
      <point x="131.44660194174756" y="607.495145631068" type="curve"/>
    </contour>
  </outline>
</glyph>
